Tilt-Neon-Model.ufo
<glyph name="exclam" format="2">
  <advance width="260"/>
  <unicode hex="0021"/>
  <outline>
    <contour>
      <point x="196.0" y="640.0" type="curve" smooth="yes"/>
      <point x="196.0" y="285.0" type="line" smooth="yes"/>
      <point x="196.0" y="258.0"/>
      <point x="172.99999999999997" y="235.0"/>
      <point x="145.99999999999997" y="235.0" type="curve" smooth="yes"/>
      <point x="118.99999999999997" y="235.0"/>
      <point x="95.99999999999999" y="258.0"/>
      <point x="96.0" y="285.0" type="curve" smooth="yes"/>
      <point x="96.0" y="640.0" type="line" smooth="yes"/>
      <point x="96.00000000000001" y="667.0"/>
      <point x="119.00000000000003" y="690.0"/>
      <point x="146.00000000000003" y="690.0" type="curve" smooth="yes"/>
      <point x="173.00000000000003" y="690.0"/>
      <point x="196.0" y="667.0"/>
    </contour>
    <contour>
      <point x="146.7253004752585" y="-9.467956768242672" type="curve" smooth="yes"/>
      <point x="56.13555964175431" y="3.8540639425667735"/>
      <point x="56.13555964175425" y="120.14593605743319"/>
      <point x="146.72530047525848" y="133.46795676824266" type="curve" smooth="yes"/>
      <point x="173.43799713010952" y="137.3962945116031"/>
      <point x="199.53961902488223" y="117.98739617959257"/>
      <point x="203.46795676824266" y="91.27469952474152" type="curve" smooth="yes"/>
      <point x="207.3962945116031" y="64.56200286989048"/>
      <point x="187.98739617959257" y="38.460380975117765"/>
      <point x="161.27469952474152" y="34.532043231757335" type="curve" smooth="yes"/>
      <point x="158.71042117305674" y="34.154943474156646"/>
      <point x="158.71042117305674" y="89.84505652584338"/>
      <point x="161.2746995247415" y="89.46795676824267" type="curve" smooth="yes"/>
      <point x="187.98739617959254" y="85.53961902488227"/>
      <point x="207.3962945116031" y="59.43799713010955"/>
      <point x="203.4679567682427" y="32.72530047525851" type="curve" smooth="yes"/>
      <point x="199.53961902488228" y="6.012603820407463"/>
      <point x="173.43799713010955" y="-13.396294511603077"/>
    </contour>
  </outline>
</glyph>
<glyph name="quotedbl" format="2">
  <advance width="496"/>
  <unicode hex="0022"/>
  <outline>
    <contour>
      <point x="98.0" y="438.0" type="curve" smooth="yes"/>
      <point x="98.0" y="640.0" type="line" smooth="yes"/>
      <point x="98.0" y="667.0"/>
      <point x="121.0" y="690.0"/>
      <point x="148.0" y="690.0" type="curve" smooth="yes"/>
      <point x="175.0" y="690.0"/>
      <point x="198.0" y="667.0"/>
      <point x="198.0" y="640.0" type="curve" smooth="yes"/>
      <point x="198.0" y="438.0" type="line" smooth="yes"/>
      <point x="198.0" y="411.0"/>
      <point x="174.99999999999997" y="388.0"/>
      <point x="147.99999999999997" y="388.0" type="curve" smooth="yes"/>
      <point x="120.99999999999997" y="388.0"/>
      <point x="97.99999999999999" y="411.0"/>
    </contour>
    <contour>
      <point x="298.0" y="438.0" type="curve" smooth="yes"/>
      <point x="298.0" y="640.0" type="line" smooth="yes"/>
      <point x="298.0" y="667.0"/>
      <point x="321.0" y="690.0"/>
      <point x="348.0" y="690.0" type="curve" smooth="yes"/>
      <point x="375.0" y="690.0"/>
      <point x="398.0" y="667.0"/>
      <point x="398.0" y="640.0" type="curve" smooth="yes"/>
      <point x="398.0" y="438.0" type="line" smooth="yes"/>
      <point x="398.0" y="411.0"/>
      <point x="375.0" y="388.0"/>
      <point x="348.0" y="388.0" type="curve" smooth="yes"/>
      <point x="321.0" y="388.0"/>
      <point x="298.0" y="411.0"/>
    </contour>
  </outline>
</glyph>
<glyph name="percent" format="2">
  <advance width="1023"/>
  <unicode hex="0025"/>
  <outline>
    <contour>
      <point x="239.0" y="392.0" type="curve" smooth="yes"/>
      <point x="294.8381108917075" y="392.0"/>
      <point x="326.0" y="434.7981474883102"/>
      <point x="326.0" y="494.0" type="curve" smooth="yes"/>
      <point x="326.0" y="553.260286395959"/>
      <point x="294.8932246689158" y="595.0"/>
      <point x="239.0" y="595.0" type="curve" smooth="yes"/>
      <point x="183.1067753310843" y="595.0"/>
      <point x="152.0" y="553.260286395959"/>
      <point x="152.0" y="494.0" type="curve" smooth="yes"/>
      <point x="152.0" y="434.7981474883102"/>
      <point x="183.1618891082926" y="392.0"/>
    </contour>
    <contour>
      <point x="784.0" y="84.0" type="curve" smooth="yes"/>
      <point x="839.0826558909857" y="84.0"/>
      <point x="872.0" y="126.88690587308858"/>
      <point x="872.0" y="186.0" type="curve" smooth="yes"/>
      <point x="872.0" y="245.14266545964122"/>
      <point x="839.1102109964839" y="287.0"/>
      <point x="784.0" y="287.0" type="curve" smooth="yes"/>
      <point x="728.9999267877441" y="287.0"/>
      <point x="698.0" y="245.02446881315248"/>
      <point x="698.0" y="186.0" type="curve" smooth="yes"/>
      <point x="698.0" y="127.00504342125407"/>
      <point x="729.0274268243503" y="84.0"/>
    </contour>
    <contour>
      <point x="239.0" y="292.0" type="curve" smooth="yes"/>
      <point x="129.04808953251606" y="292.0"/>
      <point x="52.0" y="377.42448046820977"/>
      <point x="52.0" y="494.0" type="curve" smooth="yes"/>
      <point x="52.0" y="610.5755195317904"/>
      <point x="129.04808953251606" y="695.0"/>
      <point x="239.0" y="695.0" type="curve" smooth="yes"/>
      <point x="348.95191046748386" y="695.0"/>
      <point x="426.0" y="610.5755195317904"/>
      <point x="426.0" y="494.0" type="curve" smooth="yes"/>
      <point x="426.0" y="377.42448046820977"/>
      <point x="348.95191046748386" y="292.0"/>
    </contour>
    <contour>
      <point x="760.0898765699947" y="611.5110189114704" type="curve" smooth="yes"/>
      <point x="344.0898765699947" y="11.511018911470341" type="line" smooth="yes"/>
      <point x="328.7058267821887" y="-10.677514436326799"/>
      <point x="296.6995522592675" y="-16.47392635780072"/>
      <point x="274.51101891147033" y="-1.0898765699947042" type="curve" smooth="yes"/>
      <point x="252.32248556367318" y="14.294173217811313"/>
      <point x="246.52607364219926" y="46.300447740732515"/>
      <point x="261.9101234300053" y="68.48898108852966" type="curve" smooth="yes"/>
      <point x="677.9101234300053" y="668.4889810885296" type="line" smooth="yes"/>
      <point x="693.2941732178114" y="690.6775144363268"/>
      <point x="725.3004477407325" y="696.4739263578007"/>
      <point x="747.4889810885296" y="681.0898765699947" type="curve" smooth="yes"/>
      <point x="769.6775144363268" y="665.7058267821886"/>
      <point x="775.4739263578007" y="633.6995522592675"/>
    </contour>
    <contour>
      <point x="784.0" y="-16.0" type="curve" smooth="yes"/>
      <point x="675.2097890784253" y="-16.0"/>
      <point x="598.0" y="69.24952974270053"/>
      <point x="598.0" y="186.0" type="curve" smooth="yes"/>
      <point x="598.0" y="302.7504702572995"/>
      <point x="675.2097890784253" y="387.0"/>
      <point x="784.0" y="387.0" type="curve" smooth="yes"/>
      <point x="892.7902109215747" y="387.0"/>
      <point x="972.0" y="302.7504702572995"/>
      <point x="972.0" y="186.0" type="curve" smooth="yes"/>
      <point x="972.0" y="69.2495297427005"/>
      <point x="892.7902109215747" y="-16.0"/>
    </contour>
  </outline>
</glyph>
<glyph name="ampersand" format="2">
  <advance width="634"/>
  <unicode hex="0026"/>
  <outline>
    <contour>
      <point x="576.0" y="298.0" type="curve" smooth="yes"/>
      <point x="378.0" y="298.0" type="line" smooth="yes"/>
      <point x="238.1460070161195" y="298.0"/>
      <point x="158.0" y="264.9941393824689"/>
      <point x="158.0" y="180.0" type="curve" smooth="yes"/>
      <point x="158.0" y="118.02330286940668"/>
      <point x="212.64197053439224" y="84.0"/>
      <point x="288.0" y="84.0" type="curve" smooth="yes"/>
      <point x="368.05041732734213" y="84.0"/>
      <point x="421.0" y="123.09043516156962"/>
      <point x="421.0" y="198.0" type="curve" smooth="yes"/>
      <point x="420.00033543652034" y="470.81685104555504" type="line" smooth="yes"/>
      <point x="419.90143500112003" y="497.81666990983405"/>
      <point x="442.81703218127603" y="520.9007641280793"/>
      <point x="469.81685104555504" y="520.9996645634797" type="curve" smooth="yes"/>
      <point x="496.81666990983405" y="521.09856499888"/>
      <point x="519.9007641280793" y="498.18296781872397"/>
      <point x="519.9996645634797" y="471.18314895444496" type="curve" smooth="yes"/>
      <point x="521.0" y="198.0" type="line" smooth="yes"/>
      <point x="521.0" y="69.053392217416"/>
      <point x="425.7958847872712" y="-16.0"/>
      <point x="288.0" y="-16.0" type="curve" smooth="yes"/>
      <point x="150.039265782313" y="-16.0"/>
      <point x="58.0" y="66.53696625087429"/>
      <point x="58.0" y="180.0" type="curve" smooth="yes"/>
      <point x="58.0" y="313.23681459559265"/>
      <point x="158.7648778017975" y="398.0"/>
      <point x="378.0" y="398.0" type="curve" smooth="yes"/>
      <point x="576.0" y="398.0" type="line" smooth="yes"/>
      <point x="603.0" y="398.0"/>
      <point x="626.0" y="375.0"/>
      <point x="626.0" y="348.0" type="curve" smooth="yes"/>
      <point x="626.0" y="321.0"/>
      <point x="603.0" y="298.0"/>
    </contour>
    <contour>
      <point x="412.3299715640712" y="574.2263953166589" type="curve" smooth="yes"/>
      <point x="314.75369623150954" y="611.0885437756266"/>
      <point x="175.0" y="605.635785905361"/>
      <point x="175.0" y="503.0" type="curve" smooth="yes"/>
      <point x="175.0" y="435.74447341840585"/>
      <point x="248.71993223760253" y="398.0"/>
      <point x="378.0" y="398.0" type="curve" smooth="yes"/>
      <point x="405.0" y="398.0"/>
      <point x="428.0" y="375.0"/>
      <point x="428.0" y="348.0" type="curve" smooth="yes"/>
      <point x="428.0" y="321.0"/>
      <point x="405.0" y="298.0"/>
      <point x="378.0" y="298.0" type="curve" smooth="yes"/>
      <point x="164.81915752971284" y="298.0"/>
      <point x="75.0" y="392.09667154724946"/>
      <point x="75.0" y="503.0" type="curve" smooth="yes"/>
      <point x="75.0" y="682.421718360785"/>
      <point x="277.0930426703938" y="732.2137993058765"/>
      <point x="447.6700284359288" y="667.7736046833411" type="curve" smooth="yes"/>
      <point x="472.927774964933" y="658.2317893279395"/>
      <point x="486.3154200387426" y="628.5877180930752"/>
      <point x="476.77360468334103" y="603.329971564071" type="curve" smooth="yes"/>
      <point x="467.23178932793945" y="578.0722250350668"/>
      <point x="437.58771809307535" y="564.6845799612573"/>
    </contour>
  </outline>
</glyph>
<glyph name="quotesingle" format="2">
  <advance width="297"/>
  <unicode hex="0027"/>
  <outline>
    <contour>
      <point x="98.0" y="438.0" type="curve" smooth="yes"/>
      <point x="98.0" y="640.0" type="line" smooth="yes"/>
      <point x="98.0" y="667.0"/>
      <point x="121.0" y="690.0"/>
      <point x="148.0" y="690.0" type="curve" smooth="yes"/>
      <point x="175.0" y="690.0"/>
      <point x="198.0" y="667.0"/>
      <point x="198.0" y="640.0" type="curve" smooth="yes"/>
      <point x="198.0" y="438.0" type="line" smooth="yes"/>
      <point x="198.0" y="411.0"/>
      <point x="174.99999999999997" y="388.0"/>
      <point x="147.99999999999997" y="388.0" type="curve" smooth="yes"/>
      <point x="120.99999999999997" y="388.0"/>
      <point x="97.99999999999999" y="411.0"/>
    </contour>
  </outline>
</glyph>
<glyph name="parenright" format="2">
  <advance width="375"/>
  <unicode hex="0029"/>
  <outline>
    <contour>
      <point x="48" y="-83" type="curve" smooth="yes"/>
      <point x="278" y="121"/>
      <point x="276" y="449"/>
      <point x="49" y="653" type="curve" smooth="yes"/>
      <point x="29" y="671"/>
      <point x="27" y="703"/>
      <point x="46" y="723" type="curve" smooth="yes"/>
      <point x="64" y="744"/>
      <point x="96" y="745"/>
      <point x="116" y="727" type="curve" smooth="yes"/>
      <point x="387" y="483"/>
      <point x="389" y="87"/>
      <point x="115" y="-157" type="curve" smooth="yes"/>
      <point x="95" y="-175"/>
      <point x="62" y="-173"/>
      <point x="44" y="-153" type="curve" smooth="yes"/>
      <point x="26" y="-133"/>
      <point x="28" y="-101"/>
    </contour>
  </outline>
</glyph>
<glyph name="hyphen" format="2">
  <advance width="350"/>
  <unicode hex="002D"/>
  <outline>
    <contour>
      <point x="270" y="286" type="curve" smooth="yes"/>
      <point x="80" y="286" type="line" smooth="yes"/>
      <point x="53" y="286"/>
      <point x="30" y="309"/>
      <point x="30" y="336" type="curve" smooth="yes"/>
      <point x="30" y="363"/>
      <point x="53" y="386"/>
      <point x="80" y="386" type="curve" smooth="yes"/>
      <point x="270" y="386" type="line" smooth="yes"/>
      <point x="297" y="386"/>
      <point x="320" y="363"/>
      <point x="320" y="336" type="curve" smooth="yes"/>
      <point x="320" y="309"/>
      <point x="297" y="286"/>
    </contour>
  </outline>
</glyph>
<glyph name="period" format="2">
  <advance width="260"/>
  <unicode hex="002E"/>
  <outline>
    <contour>
      <point x="80" y="40" type="curve" smooth="yes"/>
      <point x="80" y="84" type="line" smooth="yes"/>
      <point x="80" y="111"/>
      <point x="103" y="134"/>
      <point x="130" y="134" type="curve" smooth="yes"/>
      <point x="157" y="134"/>
      <point x="180" y="111"/>
      <point x="180" y="84" type="curve" smooth="yes"/>
      <point x="180" y="40" type="line" smooth="yes"/>
      <point x="180" y="13"/>
      <point x="157" y="-10"/>
      <point x="130" y="-10" type="curve" smooth="yes"/>
      <point x="103" y="-10"/>
      <point x="80" y="13"/>
    </contour>
  </outline>
</glyph>
<glyph name="one" format="2">
  <advance width="344"/>
  <unicode hex="0031"/>
  <outline>
    <contour>
      <point x="53" y="649" type="curve" smooth="yes"/>
      <point x="207" y="687" type="line" smooth="yes"/>
      <point x="238" y="694"/>
      <point x="269" y="670"/>
      <point x="269" y="638" type="curve" smooth="yes"/>
      <point x="269" y="40" type="line" smooth="yes"/>
      <point x="269" y="13"/>
      <point x="246" y="-10"/>
      <point x="219" y="-10" type="curve" smooth="yes"/>
      <point x="192" y="-10"/>
      <point x="169" y="13"/>
      <point x="169" y="40" type="curve" smooth="yes"/>
      <point x="169" y="638" type="line"/>
      <point x="231" y="589" type="line"/>
      <point x="77" y="551" type="line" smooth="yes"/>
      <point x="51" y="545"/>
      <point x="23" y="562"/>
      <point x="16" y="588" type="curve" smooth="yes"/>
      <point x="10" y="614"/>
      <point x="27" y="642"/>
    </contour>
  </outline>
</glyph>
<glyph name="two" format="2">
  <advance width="532"/>
  <unicode hex="0032"/>
  <outline>
    <contour>
      <point x="432" y="-5" type="curve" smooth="yes"/>
      <point x="100" y="-5" type="line" smooth="yes"/>
      <point x="72" y="-5"/>
      <point x="50" y="17"/>
      <point x="50" y="45" type="curve" smooth="yes"/>
      <point x="50" y="75" type="line" smooth="yes"/>
      <point x="50" y="88"/>
      <point x="55" y="100"/>
      <point x="63" y="109" type="curve" smooth="yes"/>
      <point x="264" y="326" type="line" smooth="yes"/>
      <point x="336" y="404"/>
      <point x="372" y="454"/>
      <point x="372" y="502" type="curve" smooth="yes"/>
      <point x="372" y="592"/>
      <point x="250" y="620"/>
      <point x="127" y="569" type="curve" smooth="yes"/>
      <point x="103" y="558"/>
      <point x="72" y="571"/>
      <point x="62" y="596" type="curve" smooth="yes"/>
      <point x="51" y="620"/>
      <point x="64" y="651"/>
      <point x="89" y="661" type="curve" smooth="yes"/>
      <point x="296" y="749"/>
      <point x="472" y="656"/>
      <point x="472" y="502" type="curve" smooth="yes"/>
      <point x="472" y="433"/>
      <point x="442" y="370"/>
      <point x="338" y="258" type="curve" smooth="yes"/>
      <point x="137" y="41" type="line"/>
      <point x="150" y="75" type="line"/>
      <point x="150" y="45" type="line"/>
      <point x="100" y="95" type="line"/>
      <point x="432" y="95" type="line" smooth="yes"/>
      <point x="459" y="95"/>
      <point x="482" y="72"/>
      <point x="482" y="45" type="curve" smooth="yes"/>
      <point x="482" y="18"/>
      <point x="459" y="-5"/>
    </contour>
  </outline>
</glyph>
<glyph name="three" format="2">
  <advance width="516"/>
  <unicode hex="0033"/>
  <outline>
    <contour>
      <point x="127" y="116" type="curve" smooth="yes"/>
      <point x="259" y="67"/>
      <point x="381" y="89"/>
      <point x="381" y="200" type="curve" smooth="yes"/>
      <point x="381" y="281"/>
      <point x="295" y="302"/>
      <point x="164" y="305" type="curve" smooth="yes"/>
      <point x="122" y="306"/>
      <point x="99" y="356"/>
      <point x="127" y="388" type="curve" smooth="yes"/>
      <point x="367" y="668" type="line"/>
      <point x="405" y="585" type="line"/>
      <point x="122" y="585" type="line" smooth="yes"/>
      <point x="95" y="585"/>
      <point x="72" y="608"/>
      <point x="72" y="635" type="curve" smooth="yes"/>
      <point x="72" y="662"/>
      <point x="95" y="685"/>
      <point x="122" y="685" type="curve" smooth="yes"/>
      <point x="405" y="685" type="line" smooth="yes"/>
      <point x="448" y="685"/>
      <point x="471" y="635"/>
      <point x="443" y="602" type="curve" smooth="yes"/>
      <point x="203" y="322" type="line"/>
      <point x="166" y="405" type="line"/>
      <point x="380" y="400"/>
      <point x="481" y="332"/>
      <point x="481" y="200" type="curve" smooth="yes"/>
      <point x="481" y="22"/>
      <point x="303" y="-56"/>
      <point x="92" y="22" type="curve" smooth="yes"/>
      <point x="67" y="32"/>
      <point x="54" y="61"/>
      <point x="63" y="86" type="curve" smooth="yes"/>
      <point x="72" y="112"/>
      <point x="102" y="125"/>
    </contour>
  </outline>
</glyph>
<glyph name="four" format="2">
  <advance width="545"/>
  <unicode hex="0034"/>
  <outline>
    <contour>
      <point x="480" y="161" type="curve" smooth="yes"/>
      <point x="70" y="161" type="line" smooth="yes"/>
      <point x="42" y="161"/>
      <point x="20" y="183"/>
      <point x="20" y="211" type="curve" smooth="yes"/>
      <point x="20" y="241" type="line" smooth="yes"/>
      <point x="20" y="250"/>
      <point x="23" y="260"/>
      <point x="28" y="268" type="curve" smooth="yes"/>
      <point x="278" y="662" type="line" smooth="yes"/>
      <point x="287" y="676"/>
      <point x="303" y="685"/>
      <point x="320" y="685" type="curve" smooth="yes"/>
      <point x="378" y="685" type="line" smooth="yes"/>
      <point x="406" y="685"/>
      <point x="428" y="663"/>
      <point x="428" y="635" type="curve" smooth="yes"/>
      <point x="428" y="40" type="line" smooth="yes"/>
      <point x="428" y="13"/>
      <point x="405" y="-10"/>
      <point x="378" y="-10" type="curve" smooth="yes"/>
      <point x="351" y="-10"/>
      <point x="328" y="13"/>
      <point x="328" y="40" type="curve" smooth="yes"/>
      <point x="328" y="635" type="line"/>
      <point x="378" y="585" type="line"/>
      <point x="320" y="585" type="line"/>
      <point x="362" y="608" type="line"/>
      <point x="112" y="214" type="line"/>
      <point x="120" y="241" type="line"/>
      <point x="120" y="211" type="line"/>
      <point x="70" y="261" type="line"/>
      <point x="480" y="261" type="line" smooth="yes"/>
      <point x="507" y="261"/>
      <point x="530" y="238"/>
      <point x="530" y="211" type="curve" smooth="yes"/>
      <point x="530" y="184"/>
      <point x="507" y="161"/>
    </contour>
  </outline>
</glyph>
<glyph name="five" format="2">
  <advance width="516"/>
  <unicode hex="0035"/>
  <outline>
    <contour>
      <point x="405" y="585" type="curve" smooth="yes"/>
      <point x="157" y="585" type="line"/>
      <point x="207" y="630" type="line"/>
      <point x="179" y="351" type="line"/>
      <point x="119" y="405" type="line"/>
      <point x="327" y="449"/>
      <point x="486" y="381"/>
      <point x="486" y="205" type="curve" smooth="yes"/>
      <point x="486" y="11"/>
      <point x="293" y="-58"/>
      <point x="88" y="15" type="curve" smooth="yes"/>
      <point x="63" y="24"/>
      <point x="49" y="53"/>
      <point x="58" y="79" type="curve" smooth="yes"/>
      <point x="67" y="104"/>
      <point x="96" y="118"/>
      <point x="122" y="109" type="curve" smooth="yes"/>
      <point x="252" y="63"/>
      <point x="386" y="82"/>
      <point x="386" y="205" type="curve" smooth="yes"/>
      <point x="386" y="317"/>
      <point x="271" y="335"/>
      <point x="139" y="307" type="curve" smooth="yes"/>
      <point x="106" y="300"/>
      <point x="76" y="327"/>
      <point x="79" y="361" type="curve" smooth="yes"/>
      <point x="107" y="640" type="line" smooth="yes"/>
      <point x="110" y="666"/>
      <point x="131" y="685"/>
      <point x="157" y="685" type="curve" smooth="yes"/>
      <point x="405" y="685" type="line" smooth="yes"/>
      <point x="432" y="685"/>
      <point x="455" y="662"/>
      <point x="455" y="635" type="curve" smooth="yes"/>
      <point x="455" y="608"/>
      <point x="432" y="585"/>
    </contour>
  </outline>
</glyph>
<glyph name="six" format="2">
  <advance width="521"/>
  <unicode hex="0036"/>
  <outline>
    <contour>
      <point x="46.06910853337451" y="219.62794165613818" type="curve" smooth="yes"/>
      <point x="52.44086592219106" y="340.6913320436528"/>
      <point x="161.83920370143233" y="444.0"/>
      <point x="288.0" y="444.0" type="curve" smooth="yes"/>
      <point x="414.482948460978" y="444.0"/>
      <point x="496.0" y="341.02973680480557"/>
      <point x="496.0" y="221.0" type="curve" smooth="yes"/>
      <point x="496.0" y="98.31299151580289"/>
      <point x="410.3117973126359" y="-15.521936141411947"/>
      <point x="266.122941980693" y="-12.992307100500668" type="curve" smooth="yes"/>
      <point x="142.26086102995438" y="-10.610415111906208"/>
      <point x="35.0" y="73.15598198618078"/>
      <point x="35.0" y="310.0" type="curve" smooth="yes"/>
      <point x="35.0" y="637.7992734724423"/>
      <point x="249.48935926747686" y="744.392137493542"/>
      <point x="430.30390513305895" y="659.2343191181388" type="curve" smooth="yes"/>
      <point x="454.73043745685396" y="647.730210346287"/>
      <point x="465.7384278899907" y="617.122627190736"/>
      <point x="454.2343191181389" y="592.696094866941" type="curve" smooth="yes"/>
      <point x="442.7302103462871" y="568.2695625431461"/>
      <point x="412.12262719073607" y="557.2615721100093"/>
      <point x="387.69609486694105" y="568.7656808818612" type="curve" smooth="yes"/>
      <point x="259.09674834815667" y="629.3318247261919"/>
      <point x="135.0" y="543.138170140506"/>
      <point x="135.0" y="310.0" type="curve" smooth="yes"/>
      <point x="135.0" y="150.70610483813135"/>
      <point x="184.7122898732037" y="88.59170067146088"/>
      <point x="267.877058019307" y="86.99230710050067" type="curve" smooth="yes"/>
      <point x="351.59951283872925" y="85.5234921036687"/>
      <point x="396.0" y="149.76247265364955"/>
      <point x="396.0" y="221.0" type="curve" smooth="yes"/>
      <point x="396.0" y="286.8585201386023"/>
      <point x="357.3993007912153" y="344.0"/>
      <point x="288.0" y="344.0" type="curve" smooth="yes"/>
      <point x="216.15818081639344" y="344.0"/>
      <point x="149.55926617286823" y="283.3111777624742"/>
      <point x="145.9308914666255" y="214.37205834386182" type="curve" smooth="yes"/>
      <point x="144.51180297231087" y="187.40937695188404"/>
      <point x="120.33473973583959" y="165.65002003905988"/>
      <point x="93.37205834386182" y="167.0691085333745" type="curve" smooth="yes"/>
      <point x="66.40937695188406" y="168.48819702768913"/>
      <point x="44.65002003905989" y="192.6652602641604"/>
    </contour>
  </outline>
</glyph>
<glyph name="semicolon" format="2">
  <advance width="291"/>
  <unicode hex="003B"/>
  <outline>
    <contour>
      <point x="89.06712630051125" y="-82.28589456901535" type="curve" smooth="yes"/>
      <point x="125.31072399320608" y="-30.61948934751419"/>
      <point x="129.90643580938723" y="17.490879885853406"/>
      <point x="110.62792639837937" y="65.301583225153" type="curve" smooth="yes"/>
      <point x="100.53078133996198" y="90.34250297002814"/>
      <point x="113.26066348027783" y="120.27492854320325"/>
      <point x="138.30158322515297" y="130.37207360162063" type="curve" smooth="yes"/>
      <point x="163.3425029700281" y="140.469218660038"/>
      <point x="193.27492854320323" y="127.73933651972214"/>
      <point x="203.37207360162063" y="102.698416774847" type="curve" smooth="yes"/>
      <point x="234.07094636924123" y="26.565212311147924"/>
      <point x="228.64675450261547" y="-57.441126413761474"/>
      <point x="170.93287369948877" y="-139.71410543098463" type="curve" smooth="yes"/>
      <point x="155.42725676675704" y="-161.81785722870856"/>
      <point x="123.38964636673927" y="-167.43849063222046"/>
      <point x="101.28589456901534" y="-151.93287369948874" type="curve" smooth="yes"/>
      <point x="79.18214277129141" y="-136.427256766757"/>
      <point x="73.56150936777954" y="-104.38964636673927"/>
    </contour>
    <contour>
      <point x="110.0" y="400.0" type="curve" smooth="yes"/>
      <point x="110.0" y="444.0" type="line" smooth="yes"/>
      <point x="110.0" y="471.0"/>
      <point x="133.0" y="494.0"/>
      <point x="160.0" y="494.0" type="curve" smooth="yes"/>
      <point x="187.0" y="494.0"/>
      <point x="210.0" y="471.0"/>
      <point x="210.0" y="444.0" type="curve" smooth="yes"/>
      <point x="210.0" y="400.0" type="line" smooth="yes"/>
      <point x="210.0" y="373.0"/>
      <point x="186.99999999999997" y="350.0"/>
      <point x="159.99999999999997" y="350.0" type="curve" smooth="yes"/>
      <point x="132.99999999999997" y="350.0"/>
      <point x="109.99999999999999" y="373.0"/>
    </contour>
  </outline>
</glyph>
<glyph name="equal" format="2">
  <advance width="490"/>
  <unicode hex="003D"/>
  <outline>
    <contour>
      <point x="410.0" y="378.0" type="curve" smooth="yes"/>
      <point x="79.99999999999999" y="378.0" type="line" smooth="yes"/>
      <point x="52.999999999999986" y="378.0"/>
      <point x="29.999999999999996" y="401.0"/>
      <point x="30.0" y="428.0" type="curve" smooth="yes"/>
      <point x="30.000000000000004" y="455.0"/>
      <point x="53.000000000000014" y="478.0"/>
      <point x="80.00000000000001" y="478.0" type="curve" smooth="yes"/>
      <point x="410.0" y="478.0" type="line" smooth="yes"/>
      <point x="437.0" y="478.0"/>
      <point x="460.0" y="455.0"/>
      <point x="460.0" y="428.0" type="curve" smooth="yes"/>
      <point x="460.0" y="401.0"/>
      <point x="437.0" y="378.0"/>
    </contour>
    <contour>
      <point x="410.0" y="138.0" type="curve" smooth="yes"/>
      <point x="79.99999999999999" y="138.0" type="line" smooth="yes"/>
      <point x="52.999999999999986" y="138.0"/>
      <point x="29.999999999999996" y="161.0"/>
      <point x="30.0" y="188.0" type="curve" smooth="yes"/>
      <point x="30.000000000000004" y="215.0"/>
      <point x="53.000000000000014" y="238.0"/>
      <point x="80.00000000000001" y="238.0" type="curve" smooth="yes"/>
      <point x="410.0" y="238.0" type="line" smooth="yes"/>
      <point x="437.0" y="238.0"/>
      <point x="460.0" y="214.99999999999997"/>
      <point x="460.0" y="187.99999999999997" type="curve" smooth="yes"/>
      <point x="460.0" y="160.99999999999997"/>
      <point x="437.0" y="138.0"/>
    </contour>
  </outline>
</glyph>
<glyph name="question" format="2">
  <advance width="511"/>
  <unicode hex="003F"/>
  <outline>
    <contour>
      <point x="68.78817895866702" y="657.1617366687584" type="curve" smooth="yes"/>
      <point x="287.7104974535122" y="748.2739154643011"/>
      <point x="477.0" y="658.2609497596092"/>
      <point x="477.0" y="514.0" type="curve" smooth="yes"/>
      <point x="477.0" y="405.66156424855086"/>
      <point x="382.6995222909942" y="331.69222216948447"/>
      <point x="237.8283582047541" y="296.41924308761725" type="curve"/>
      <point x="276.0" y="345.0" type="line"/>
      <point x="276.0" y="266.0" type="line" smooth="yes"/>
      <point x="276.0" y="239.0"/>
      <point x="253.0" y="216.0"/>
      <point x="226.0" y="216.0" type="curve" smooth="yes"/>
      <point x="199.0" y="216.0"/>
      <point x="176.0" y="239.0"/>
      <point x="176.0" y="266.0" type="curve" smooth="yes"/>
      <point x="176.0" y="345.0" type="line" smooth="yes"/>
      <point x="176.0" y="368.0580356166494"/>
      <point x="191.7681053318557" y="388.1259828169486"/>
      <point x="214.1716417952459" y="393.58075691238275" type="curve" smooth="yes"/>
      <point x="296.54838804174256" y="413.6377038245733"/>
      <point x="377.0" y="452.3965201982721"/>
      <point x="377.0" y="514.0" type="curve" smooth="yes"/>
      <point x="377.0" y="595.133447873975"/>
      <point x="230.3353866746458" y="616.0804409358573"/>
      <point x="107.21182104133298" y="564.8382633312416" type="curve" smooth="yes"/>
      <point x="82.28448324020343" y="554.4638799689218"/>
      <point x="52.2126466935614" y="566.8608411575375"/>
      <point x="41.838263331241585" y="591.788178958667" type="curve" smooth="yes"/>
      <point x="31.463879968921766" y="616.7155167597965"/>
      <point x="43.86084115753747" y="646.7873533064386"/>
    </contour>
    <contour>
      <point x="225.7253004752585" y="-9.467956768242672" type="curve" smooth="yes"/>
      <point x="135.1355596417544" y="3.8540639425667735"/>
      <point x="135.13555964175438" y="120.14593605743319"/>
      <point x="225.72530047525848" y="133.46795676824266" type="curve" smooth="yes"/>
      <point x="252.43799713010952" y="137.3962945116031"/>
      <point x="278.5396190248822" y="117.98739617959257"/>
      <point x="282.46795676824263" y="91.27469952474152" type="curve" smooth="yes"/>
      <point x="286.39629451160306" y="64.56200286989048"/>
      <point x="266.98739617959257" y="38.460380975117765"/>
      <point x="240.27469952474152" y="34.532043231757335" type="curve" smooth="yes"/>
      <point x="237.71042117305674" y="34.154943474156646"/>
      <point x="237.71042117305674" y="89.84505652584338"/>
      <point x="240.2746995247415" y="89.46795676824267" type="curve" smooth="yes"/>
      <point x="266.98739617959257" y="85.53961902488227"/>
      <point x="286.3962945116031" y="59.43799713010955"/>
      <point x="282.4679567682427" y="32.72530047525851" type="curve" smooth="yes"/>
      <point x="278.53961902488226" y="6.012603820407463"/>
      <point x="252.43799713010955" y="-13.396294511603077"/>
    </contour>
  </outline>
</glyph>
<glyph name="A" format="2">
  <advance width="641"/>
  <unicode hex="0041"/>
  <outline>
    <contour>
      <point x="28" y="58" type="curve" smooth="yes"/>
      <point x="253" y="658" type="line" smooth="yes"/>
      <point x="260" y="677"/>
      <point x="279" y="690"/>
      <point x="300" y="690" type="curve" smooth="yes"/>
      <point x="354" y="690" type="line" smooth="yes"/>
      <point x="375" y="690"/>
      <point x="394" y="677"/>
      <point x="401" y="657" type="curve" smooth="yes"/>
      <point x="613" y="57" type="line" smooth="yes"/>
      <point x="622" y="31"/>
      <point x="608" y="2"/>
      <point x="583" y="-7" type="curve" smooth="yes"/>
      <point x="557" y="-16"/>
      <point x="528" y="-2"/>
      <point x="519" y="23" type="curve" smooth="yes"/>
      <point x="307" y="623" type="line"/>
      <point x="354" y="590" type="line"/>
      <point x="300" y="590" type="line"/>
      <point x="347" y="622" type="line"/>
      <point x="122" y="22" type="line" smooth="yes"/>
      <point x="112" y="-3"/>
      <point x="83" y="-16"/>
      <point x="57" y="-7" type="curve" smooth="yes"/>
      <point x="32" y="3"/>
      <point x="19" y="32"/>
    </contour>
    <contour>
      <point x="498" y="168" type="curve" smooth="yes"/>
      <point x="145" y="168" type="line" smooth="yes"/>
      <point x="118" y="168"/>
      <point x="95" y="191"/>
      <point x="95" y="218" type="curve" smooth="yes"/>
      <point x="95" y="245"/>
      <point x="118" y="268"/>
      <point x="145" y="268" type="curve" smooth="yes"/>
      <point x="498" y="268" type="line" smooth="yes"/>
      <point x="525" y="268"/>
      <point x="548" y="245"/>
      <point x="548" y="218" type="curve" smooth="yes"/>
      <point x="548" y="191"/>
      <point x="525" y="168"/>
    </contour>
  </outline>
</glyph>
<glyph name="B" format="2">
  <advance width="540"/>
  <unicode hex="0042"/>
  <outline>
    <contour>
      <point x="286" y="398" type="curve" smooth="yes"/>
      <point x="418" y="398"/>
      <point x="510" y="315"/>
      <point x="510" y="198" type="curve" smooth="yes"/>
      <point x="510" y="80"/>
      <point x="421" y="-5"/>
      <point x="284" y="-5" type="curve" smooth="yes"/>
      <point x="125" y="-5" type="line" smooth="yes"/>
      <point x="97" y="-5"/>
      <point x="75" y="17"/>
      <point x="75" y="45" type="curve" smooth="yes"/>
      <point x="75" y="635" type="line" smooth="yes"/>
      <point x="75" y="663"/>
      <point x="97" y="685"/>
      <point x="125" y="685" type="curve" smooth="yes"/>
      <point x="275" y="685" type="line" smooth="yes"/>
      <point x="404" y="685"/>
      <point x="488" y="601"/>
      <point x="488" y="491" type="curve" smooth="yes"/>
      <point x="488" y="377"/>
      <point x="400" y="298"/>
      <point x="277" y="298" type="curve" smooth="yes"/>
      <point x="165" y="298" type="line" smooth="yes"/>
      <point x="138" y="298"/>
      <point x="115" y="321"/>
      <point x="115" y="348" type="curve" smooth="yes"/>
      <point x="115" y="375"/>
      <point x="138" y="398"/>
      <point x="165" y="398" type="curve" smooth="yes"/>
      <point x="277" y="398" type="line" smooth="yes"/>
      <point x="342" y="398"/>
      <point x="388" y="431"/>
      <point x="388" y="491" type="curve" smooth="yes"/>
      <point x="388" y="549"/>
      <point x="344" y="585"/>
      <point x="275" y="585" type="curve" smooth="yes"/>
      <point x="125" y="585" type="line"/>
      <point x="175" y="635" type="line"/>
      <point x="175" y="45" type="line"/>
      <point x="125" y="95" type="line"/>
      <point x="284" y="95" type="line" smooth="yes"/>
      <point x="361" y="95"/>
      <point x="410" y="132"/>
      <point x="410" y="198" type="curve" smooth="yes"/>
      <point x="410" y="262"/>
      <point x="358" y="298"/>
      <point x="286" y="298" type="curve" smooth="yes"/>
      <point x="259" y="298"/>
      <point x="236" y="321"/>
      <point x="236" y="348" type="curve" smooth="yes"/>
      <point x="236" y="375"/>
      <point x="259" y="398"/>
    </contour>
  </outline>
</glyph>
<glyph name="C" format="2">
  <advance width="605"/>
  <unicode hex="0043"/>
  <outline>
    <contour>
      <point x="496" y="555" type="curve" smooth="yes"/>
      <point x="318" y="654"/>
      <point x="140" y="554"/>
      <point x="140" y="340" type="curve" smooth="yes"/>
      <point x="140" y="125"/>
      <point x="314" y="24"/>
      <point x="495" y="127" type="curve" smooth="yes"/>
      <point x="519" y="141"/>
      <point x="550" y="132"/>
      <point x="563" y="109" type="curve" smooth="yes"/>
      <point x="577" y="85"/>
      <point x="568" y="54"/>
      <point x="545" y="41" type="curve" smooth="yes"/>
      <point x="298" y="-100"/>
      <point x="40" y="47"/>
      <point x="40" y="340" type="curve" smooth="yes"/>
      <point x="40" y="632"/>
      <point x="302" y="778"/>
      <point x="544" y="643" type="curve" smooth="yes"/>
      <point x="568" y="630"/>
      <point x="577" y="598"/>
      <point x="564" y="575" type="curve" smooth="yes"/>
      <point x="551" y="551"/>
      <point x="519" y="542"/>
    </contour>
  </outline>
</glyph>
<glyph name="D" format="2">
  <advance width="686"/>
  <unicode hex="0044"/>
  <outline>
    <contour>
      <point x="185.0" y="44.99999999999999" type="line"/>
      <point x="135.0" y="95.0" type="line"/>
      <point x="319.0" y="95.0" type="line" smooth="yes"/>
      <point x="453.9440489124611" y="95.0"/>
      <point x="536.0" y="197.64858427329722"/>
      <point x="536.0" y="341.0" type="curve" smooth="yes"/>
      <point x="536.0" y="483.3736796358054"/>
      <point x="451.9769834230203" y="585.0"/>
      <point x="318.0" y="585.0" type="curve" smooth="yes"/>
      <point x="135.0" y="585.0" type="line"/>
      <point x="185.0" y="635.0" type="line"/>
    </contour>
    <contour>
      <point x="85.0" y="45.00000000000001" type="curve" smooth="yes"/>
      <point x="85.0" y="635.0" type="line" smooth="yes"/>
      <point x="85.0" y="662.6142374915397"/>
      <point x="107.38576250846033" y="685.0"/>
      <point x="135.0" y="685.0" type="curve" smooth="yes"/>
      <point x="318.0" y="685.0" type="line" smooth="yes"/>
      <point x="505.90772551807015" y="685.0"/>
      <point x="636.0" y="540.6844057126737"/>
      <point x="636.0" y="341.0" type="curve" smooth="yes"/>
      <point x="636.0" y="140.24566550558026"/>
      <point x="507.9803640659634" y="-5.0"/>
      <point x="319.0" y="-5.0" type="curve" smooth="yes"/>
      <point x="135.0" y="-5.0" type="line" smooth="yes"/>
      <point x="107.38576250846033" y="-4.999999999999993"/>
      <point x="85.0" y="17.385762508460335"/>
    </contour>
  </outline>
</glyph>
<glyph name="G" format="2">
  <advance width="673"/>
  <unicode hex="0047"/>
  <outline>
    <contour>
      <point x="525.8926390457021" y="563.7949271468796" type="curve" smooth="yes"/>
      <point x="297.37732753702215" y="658.2937401767849"/>
      <point x="150.0" y="529.1385459413568"/>
      <point x="150.0" y="341.0" type="curve" smooth="yes"/>
      <point x="150.0" y="199.05490968250493"/>
      <point x="228.35579215721228" y="85.0"/>
      <point x="362.0" y="85.0" type="curve" smooth="yes"/>
      <point x="418.23178799440615" y="85.0"/>
      <point x="483.6090837066676" y="102.69366239467125"/>
      <point x="540.7059761317569" y="139.8931529140476" type="curve"/>
      <point x="518.0" y="98.0" type="line"/>
      <point x="518.0" y="320.0" type="line"/>
      <point x="568.0" y="270.0" type="line"/>
      <point x="397.0" y="270.0" type="line" smooth="yes"/>
      <point x="370.0" y="270.0"/>
      <point x="347.0" y="293.0"/>
      <point x="347.0" y="320.0" type="curve" smooth="yes"/>
      <point x="347.0" y="347.0"/>
      <point x="370.0" y="370.0"/>
      <point x="397.0" y="370.0" type="curve" smooth="yes"/>
      <point x="568.0" y="370.0" type="line" smooth="yes"/>
      <point x="595.6142374915397" y="370.0"/>
      <point x="618.0" y="347.61423749153965"/>
      <point x="618.0" y="320.0" type="curve" smooth="yes"/>
      <point x="618.0" y="98.0" type="line" smooth="yes"/>
      <point x="618.0" y="81.09509584010164"/>
      <point x="609.4580185676019" y="65.334904238565"/>
      <point x="595.2940238682431" y="56.10684708595242" type="curve" smooth="yes"/>
      <point x="520.4084493191772" y="7.317760637318699"/>
      <point x="435.75094463165556" y="-15.0"/>
      <point x="362.0" y="-15.0" type="curve" smooth="yes"/>
      <point x="173.80767652033353" y="-15.0"/>
      <point x="50.0" y="141.1187123290499"/>
      <point x="50.0" y="341.0" type="curve" smooth="yes"/>
      <point x="50.0" y="590.7326149877475"/>
      <point x="260.7791619280838" y="781.6415461346377"/>
      <point x="564.1073609542979" y="656.2050728531204" type="curve" smooth="yes"/>
      <point x="589.058100294983" y="645.8870979377996"/>
      <point x="601.5230477684413" y="615.8433783863873"/>
      <point x="591.2050728531204" y="590.8926390457021" type="curve" smooth="yes"/>
      <point x="580.8870979377996" y="565.941899705017"/>
      <point x="550.8433783863873" y="553.4769522315587"/>
    </contour>
  </outline>
</glyph>
<glyph name="H" format="2">
  <advance width="688"/>
  <unicode hex="0048"/>
  <outline>
    <contour>
      <point x="85.0" y="35.00000000000001" type="curve" smooth="yes"/>
      <point x="85.0" y="645.0" type="line" smooth="yes"/>
      <point x="85.0" y="672.0"/>
      <point x="108.0" y="695.0"/>
      <point x="135.0" y="695.0" type="curve" smooth="yes"/>
      <point x="162.0" y="695.0"/>
      <point x="185.0" y="672.0"/>
      <point x="185.0" y="645.0" type="curve" smooth="yes"/>
      <point x="185.0" y="34.99999999999999" type="line" smooth="yes"/>
      <point x="185.0" y="7.999999999999993"/>
      <point x="161.99999999999997" y="-15.000000000000007"/>
      <point x="134.99999999999997" y="-15.0" type="curve" smooth="yes"/>
      <point x="107.99999999999997" y="-14.999999999999993"/>
      <point x="84.99999999999999" y="8.000000000000007"/>
    </contour>
    <contour>
      <point x="513.0" y="35.00000000000001" type="curve" smooth="yes"/>
      <point x="513.0" y="645.0" type="line" smooth="yes"/>
      <point x="513.0" y="672.0"/>
      <point x="536.0" y="695.0"/>
      <point x="563.0" y="695.0" type="curve" smooth="yes"/>
      <point x="590.0" y="695.0"/>
      <point x="613.0" y="672.0"/>
      <point x="613.0" y="645.0" type="curve" smooth="yes"/>
      <point x="613.0" y="34.99999999999999" type="line" smooth="yes"/>
      <point x="613.0" y="7.999999999999993"/>
      <point x="590.0" y="-15.000000000000007"/>
      <point x="563.0" y="-15.0" type="curve" smooth="yes"/>
      <point x="536.0" y="-14.999999999999993"/>
      <point x="513.0" y="8.000000000000007"/>
    </contour>
    <contour>
      <point x="135.0" y="404.0" type="curve" smooth="yes"/>
      <point x="563.0" y="404.0" type="line" smooth="yes"/>
      <point x="590.0" y="404.0"/>
      <point x="613.0" y="381.0"/>
      <point x="613.0" y="354.0" type="curve" smooth="yes"/>
      <point x="613.0" y="327.0"/>
      <point x="590.0" y="304.0"/>
      <point x="563.0" y="304.0" type="curve" smooth="yes"/>
      <point x="135.0" y="304.0" type="line" smooth="yes"/>
      <point x="108.0" y="304.0"/>
      <point x="85.0" y="327.0"/>
      <point x="85.0" y="354.0" type="curve" smooth="yes"/>
      <point x="85.0" y="381.0"/>
      <point x="108.0" y="404.0"/>
    </contour>
  </outline>
</glyph>
<glyph name="I" format="2">
  <advance width="270"/>
  <unicode hex="0049"/>
  <outline>
    <contour>
      <point x="85.0" y="35.00000000000001" type="curve" smooth="yes"/>
      <point x="85.0" y="645.0" type="line" smooth="yes"/>
      <point x="85.0" y="672.0"/>
      <point x="108.0" y="695.0"/>
      <point x="135.0" y="695.0" type="curve" smooth="yes"/>
      <point x="162.0" y="695.0"/>
      <point x="185.0" y="672.0"/>
      <point x="185.0" y="645.0" type="curve" smooth="yes"/>
      <point x="185.0" y="34.99999999999999" type="line" smooth="yes"/>
      <point x="185.0" y="7.999999999999993"/>
      <point x="161.99999999999997" y="-15.000000000000007"/>
      <point x="134.99999999999997" y="-15.0" type="curve" smooth="yes"/>
      <point x="107.99999999999997" y="-14.999999999999993"/>
      <point x="84.99999999999999" y="8.000000000000007"/>
    </contour>
  </outline>
</glyph>
<glyph name="L" format="2">
  <advance width="488"/>
  <unicode hex="004C"/>
  <outline>
    <contour>
      <point x="413" y="-5" type="curve" smooth="yes"/>
      <point x="125" y="-5" type="line" smooth="yes"/>
      <point x="97" y="-5"/>
      <point x="75" y="17"/>
      <point x="75" y="45" type="curve" smooth="yes"/>
      <point x="75" y="635" type="line" smooth="yes"/>
      <point x="75" y="662"/>
      <point x="98" y="685"/>
      <point x="125" y="685" type="curve" smooth="yes"/>
      <point x="152" y="685"/>
      <point x="175" y="662"/>
      <point x="175" y="635" type="curve" smooth="yes"/>
      <point x="175" y="45" type="line"/>
      <point x="125" y="95" type="line"/>
      <point x="413" y="95" type="line" smooth="yes"/>
      <point x="440" y="95"/>
      <point x="463" y="72"/>
      <point x="463" y="45" type="curve" smooth="yes"/>
      <point x="463" y="18"/>
      <point x="440" y="-5"/>
    </contour>
  </outline>
</glyph>
<glyph name="M" format="2">
  <advance width="808"/>
  <unicode hex="004D"/>
  <anchor x="401" y="0" name="below"/>
  <anchor x="404" y="680" name="above"/>
  <outline>
    <contour>
      <point x="75" y="40" type="curve" smooth="yes"/>
      <point x="75" y="635" type="line" smooth="yes"/>
      <point x="75" y="663"/>
      <point x="97" y="685"/>
      <point x="125" y="685" type="curve" smooth="yes"/>
      <point x="179" y="685" type="line" smooth="yes"/>
      <point x="200" y="685"/>
      <point x="218" y="672"/>
      <point x="226" y="653" type="curve" smooth="yes"/>
      <point x="451" y="58" type="line"/>
      <point x="357" y="58" type="line"/>
      <point x="582" y="653" type="line" smooth="yes"/>
      <point x="590" y="672"/>
      <point x="608" y="685"/>
      <point x="629" y="685" type="curve" smooth="yes"/>
      <point x="683" y="685" type="line" smooth="yes"/>
      <point x="711" y="685"/>
      <point x="733" y="663"/>
      <point x="733" y="635" type="curve" smooth="yes"/>
      <point x="733" y="40" type="line" smooth="yes"/>
      <point x="733" y="13"/>
      <point x="710" y="-10"/>
      <point x="683" y="-10" type="curve" smooth="yes"/>
      <point x="656" y="-10"/>
      <point x="633" y="13"/>
      <point x="633" y="40" type="curve" smooth="yes"/>
      <point x="633" y="635" type="line"/>
      <point x="683" y="585" type="line"/>
      <point x="629" y="585" type="line"/>
      <point x="676" y="617" type="line"/>
      <point x="451" y="22" type="line" smooth="yes"/>
      <point x="434" y="-21"/>
      <point x="374" y="-21"/>
      <point x="357" y="22" type="curve" smooth="yes"/>
      <point x="132" y="617" type="line"/>
      <point x="179" y="585" type="line"/>
      <point x="125" y="585" type="line"/>
      <point x="175" y="635" type="line"/>
      <point x="175" y="40" type="line" smooth="yes"/>
      <point x="175" y="13"/>
      <point x="152" y="-10"/>
      <point x="125" y="-10" type="curve" smooth="yes"/>
      <point x="98" y="-10"/>
      <point x="75" y="13"/>
    </contour>
  </outline>
</glyph>
<glyph name="N" format="2">
  <advance width="688"/>
  <unicode hex="004E"/>
  <outline>
    <contour>
      <point x="613" y="645" type="curve" smooth="yes"/>
      <point x="613" y="35" type="line" smooth="yes"/>
      <point x="613" y="7"/>
      <point x="591" y="-15"/>
      <point x="563" y="-15" type="curve" smooth="yes"/>
      <point x="553" y="-15" type="line" smooth="yes"/>
      <point x="537" y="-15"/>
      <point x="521" y="-7"/>
      <point x="512" y="7" type="curve" smooth="yes"/>
      <point x="94" y="617" type="line"/>
      <point x="135" y="595" type="line"/>
      <point x="125" y="595" type="line"/>
      <point x="175" y="645" type="line"/>
      <point x="175" y="35" type="line" smooth="yes"/>
      <point x="175" y="8"/>
      <point x="152" y="-15"/>
      <point x="125" y="-15" type="curve" smooth="yes"/>
      <point x="98" y="-15"/>
      <point x="75" y="8"/>
      <point x="75" y="35" type="curve" smooth="yes"/>
      <point x="75" y="645" type="line"/>
      <point x="75" y="673"/>
      <point x="97" y="695"/>
      <point x="125" y="695" type="curve" smooth="yes"/>
      <point x="135" y="695" type="line" smooth="yes"/>
      <point x="151" y="695"/>
      <point x="167" y="687"/>
      <point x="176" y="673" type="curve" smooth="yes"/>
      <point x="594" y="63" type="line"/>
      <point x="553" y="85" type="line"/>
      <point x="563" y="85" type="line"/>
      <point x="513" y="35" type="line"/>
      <point x="513" y="645" type="line" smooth="yes"/>
      <point x="513" y="672"/>
      <point x="536" y="695"/>
      <point x="563" y="695" type="curve" smooth="yes"/>
      <point x="590" y="695"/>
      <point x="613" y="672"/>
    </contour>
  </outline>
</glyph>
<glyph name="Q" format="2">
  <advance width="732"/>
  <unicode hex="0051"/>
  <outline>
    <contour>
      <point x="368.0" y="85.0" type="curve" smooth="yes"/>
      <point x="503.4831842925586" y="85.0"/>
      <point x="592.0" y="191.29944451624687"/>
      <point x="592.0" y="341.0" type="curve" smooth="yes"/>
      <point x="592.0" y="488.87993266230853"/>
      <point x="503.3477349790621" y="595.0"/>
      <point x="368.0" y="595.0" type="curve" smooth="yes"/>
      <point x="231.61230590797214" y="595.0"/>
      <point x="140.0" y="489.9387088857728"/>
      <point x="140.0" y="341.0" type="curve" smooth="yes"/>
      <point x="140.0" y="191.14963161044943"/>
      <point x="231.5440779469456" y="85.0"/>
    </contour>
    <contour>
      <point x="521.4622599538551" y="-55.27814056904707" type="curve" smooth="yes"/>
      <point x="361.4622599538551" y="203.72185943095295" type="line" smooth="yes"/>
      <point x="347.27206404656965" y="226.6922390558712"/>
      <point x="354.75147980603464" y="258.34754413885946"/>
      <point x="377.7218594309529" y="272.5377400461449" type="curve" smooth="yes"/>
      <point x="400.6922390558712" y="286.72793595343035"/>
      <point x="432.34754413885946" y="279.24852019396536"/>
      <point x="446.5377400461449" y="256.2781405690471" type="curve" smooth="yes"/>
      <point x="606.5377400461449" y="-2.721859430952936" type="line" smooth="yes"/>
      <point x="620.7279359534303" y="-25.6922390558712"/>
      <point x="613.2485201939653" y="-57.347544138859504"/>
      <point x="590.2781405690471" y="-71.53774004614493" type="curve" smooth="yes"/>
      <point x="567.3077609441289" y="-85.72793595343036"/>
      <point x="535.6524558611405" y="-78.24852019396533"/>
    </contour>
    <contour>
      <point x="368.0" y="-15.0" type="curve" smooth="yes"/>
      <point x="178.61458155043604" y="-15.0"/>
      <point x="40.0" y="133.02460182532548"/>
      <point x="40.0" y="341.0" type="curve" smooth="yes"/>
      <point x="40.0" y="547.9197848993746"/>
      <point x="178.51727562585356" y="695.0"/>
      <point x="368.0" y="695.0" type="curve" smooth="yes"/>
      <point x="556.5086210062007" y="695.0"/>
      <point x="692.0" y="546.9631229512188"/>
      <point x="692.0" y="341.0" type="curve" smooth="yes"/>
      <point x="692.0" y="132.8137032711429"/>
      <point x="556.414413799301" y="-15.0"/>
    </contour>
  </outline>
</glyph>
<glyph name="R" format="2">
  <advance width="641"/>
  <unicode hex="0052"/>
  <outline>
    <contour>
      <point x="102.0" y="40.00000000000001" type="curve" smooth="yes"/>
      <point x="102.0" y="635.0" type="line" smooth="yes"/>
      <point x="102.0" y="662.6142374915397"/>
      <point x="124.38576250846033" y="685.0"/>
      <point x="152.0" y="685.0" type="curve" smooth="yes"/>
      <point x="317.0" y="685.0" type="line" smooth="yes"/>
      <point x="453.7211946159034" y="685.0"/>
      <point x="542.0" y="594.8324401801777"/>
      <point x="542.0" y="476.0" type="curve" smooth="yes"/>
      <point x="542.0" y="352.22214500095384"/>
      <point x="451.48850234280616" y="268.0"/>
      <point x="329.0" y="268.0" type="curve" smooth="yes"/>
      <point x="192.0" y="268.0" type="line" smooth="yes"/>
      <point x="165.0" y="268.0"/>
      <point x="142.0" y="291.0"/>
      <point x="142.0" y="318.0" type="curve" smooth="yes"/>
      <point x="142.0" y="345.0"/>
      <point x="165.0" y="368.0"/>
      <point x="192.0" y="368.0" type="curve" smooth="yes"/>
      <point x="329.0" y="368.0" type="line" smooth="yes"/>
      <point x="396.47608553153094" y="368.0"/>
      <point x="442.0" y="407.8136398839266"/>
      <point x="442.0" y="476.0" type="curve" smooth="yes"/>
      <point x="442.0" y="543.0848742671856"/>
      <point x="394.18367254396617" y="585.0"/>
      <point x="317.0" y="585.0" type="curve" smooth="yes"/>
      <point x="152.0" y="585.0" type="line"/>
      <point x="202.0" y="635.0" type="line"/>
      <point x="202.0" y="39.99999999999999" type="line" smooth="yes"/>
      <point x="202.0" y="12.999999999999993"/>
      <point x="178.99999999999997" y="-10.000000000000007"/>
      <point x="151.99999999999997" y="-10.0" type="curve" smooth="yes"/>
      <point x="124.99999999999997" y="-9.999999999999993"/>
      <point x="101.99999999999999" y="13.000000000000007"/>
    </contour>
    <contour>
      <point x="417.60379931539075" y="346.17090529374" type="curve" smooth="yes"/>
      <point x="589.6037993153908" y="66.17090529374003" type="line" smooth="yes"/>
      <point x="603.7360881740104" y="43.164853663429014"/>
      <point x="596.1769569240511" y="11.528489543228837"/>
      <point x="573.17090529374" y="-2.6037993153907806" type="curve" smooth="yes"/>
      <point x="550.164853663429" y="-16.736088174010398"/>
      <point x="518.5284895432288" y="-9.176956924051055"/>
      <point x="504.39620068460925" y="13.82909470625997" type="curve" smooth="yes"/>
      <point x="332.39620068460925" y="293.82909470626" type="line" smooth="yes"/>
      <point x="318.2639118259896" y="316.835146336571"/>
      <point x="325.82304307594893" y="348.4715104567711"/>
      <point x="348.8290947062599" y="362.60379931539075" type="curve" smooth="yes"/>
      <point x="371.8351463365709" y="376.7360881740104"/>
      <point x="403.4715104567711" y="369.176956924051"/>
    </contour>
  </outline>
</glyph>
<glyph name="S" format="2">
  <advance width="532"/>
  <unicode hex="0053"/>
  <outline>
    <contour>
      <point x="402" y="569" type="curve" smooth="yes"/>
      <point x="279" y="614"/>
      <point x="166" y="598"/>
      <point x="166" y="504" type="curve" smooth="yes"/>
      <point x="166" y="355"/>
      <point x="487" y="428"/>
      <point x="487" y="183" type="curve" smooth="yes"/>
      <point x="487" y="7"/>
      <point x="296" y="-62"/>
      <point x="90" y="28" type="curve" smooth="yes"/>
      <point x="65" y="39"/>
      <point x="53" y="69"/>
      <point x="64" y="94" type="curve" smooth="yes"/>
      <point x="75" y="119"/>
      <point x="105" y="131"/>
      <point x="130" y="120" type="curve" smooth="yes"/>
      <point x="254" y="65"/>
      <point x="387" y="77"/>
      <point x="387" y="183" type="curve" smooth="yes"/>
      <point x="387" y="338"/>
      <point x="66" y="269"/>
      <point x="66" y="504" type="curve" smooth="yes"/>
      <point x="66" y="664"/>
      <point x="229" y="739"/>
      <point x="436" y="663" type="curve" smooth="yes"/>
      <point x="461" y="654"/>
      <point x="475" y="624"/>
      <point x="466" y="599" type="curve" smooth="yes"/>
      <point x="456" y="573"/>
      <point x="427" y="560"/>
    </contour>
  </outline>
</glyph>
<glyph name="U" format="2">
  <advance width="688"/>
  <unicode hex="0055"/>
  <outline>
    <contour>
      <point x="180.0" y="645.0" type="curve" smooth="yes"/>
      <point x="180.0" y="268.0" type="line" smooth="yes"/>
      <point x="180.0" y="161.86015976057382"/>
      <point x="246.72237014867946" y="85.0"/>
      <point x="345.0" y="85.0" type="curve" smooth="yes"/>
      <point x="446.77820382945293" y="85.0"/>
      <point x="508.0" y="161.48792622499118"/>
      <point x="508.0" y="268.0" type="curve" smooth="yes"/>
      <point x="508.0" y="645.0" type="line" smooth="yes"/>
      <point x="508.0" y="672.0"/>
      <point x="531.0" y="695.0"/>
      <point x="558.0" y="695.0" type="curve" smooth="yes"/>
      <point x="585.0" y="695.0"/>
      <point x="608.0" y="672.0"/>
      <point x="608.0" y="645.0" type="curve" smooth="yes"/>
      <point x="608.0" y="268.0" type="line" smooth="yes"/>
      <point x="608.0" y="104.56380927349949"/>
      <point x="501.1723600275449" y="-15.0"/>
      <point x="345.0" y="-15.0" type="curve" smooth="yes"/>
      <point x="193.3673070889186" y="-15.0"/>
      <point x="80.0" y="104.23669165603208"/>
      <point x="80.0" y="268.0" type="curve" smooth="yes"/>
      <point x="80.0" y="645.0" type="line" smooth="yes"/>
      <point x="80.00000000000001" y="672.0"/>
      <point x="103.00000000000003" y="695.0"/>
      <point x="130.00000000000003" y="695.0" type="curve" smooth="yes"/>
      <point x="157.00000000000003" y="695.0"/>
      <point x="180.0" y="672.0"/>
    </contour>
  </outline>
</glyph>
<glyph name="backslash" format="2">
  <advance width="490"/>
  <unicode hex="005C"/>
  <outline>
    <contour>
      <point x="344" y="-136" type="curve" smooth="yes"/>
      <point x="64" y="714" type="line" smooth="yes"/>
      <point x="56" y="740"/>
      <point x="71" y="769"/>
      <point x="96" y="777" type="curve" smooth="yes"/>
      <point x="122" y="786"/>
      <point x="151" y="771"/>
      <point x="159" y="746" type="curve" smooth="yes"/>
      <point x="439" y="-104" type="line" smooth="yes"/>
      <point x="448" y="-130"/>
      <point x="433" y="-159"/>
      <point x="408" y="-167" type="curve" smooth="yes"/>
      <point x="382" y="-176"/>
      <point x="353" y="-161"/>
    </contour>
  </outline>
</glyph>
<glyph name="bracketright" format="2">
  <advance width="445"/>
  <unicode hex="005D"/>
  <outline>
    <contour>
      <point x="100" y="-63" type="curve" smooth="yes"/>
      <point x="287" y="-63" type="line"/>
      <point x="237" y="-113" type="line"/>
      <point x="237" y="723" type="line"/>
      <point x="287" y="673" type="line"/>
      <point x="100" y="673" type="line" smooth="yes"/>
      <point x="73" y="673"/>
      <point x="50" y="696"/>
      <point x="50" y="723" type="curve" smooth="yes"/>
      <point x="50" y="750"/>
      <point x="73" y="773"/>
      <point x="100" y="773" type="curve" smooth="yes"/>
      <point x="287" y="773" type="line" smooth="yes"/>
      <point x="315" y="773"/>
      <point x="337" y="751"/>
      <point x="337" y="723" type="curve" smooth="yes"/>
      <point x="337" y="-113" type="line" smooth="yes"/>
      <point x="337" y="-141"/>
      <point x="315" y="-163"/>
      <point x="287" y="-163" type="curve" smooth="yes"/>
      <point x="100" y="-163" type="line" smooth="yes"/>
      <point x="73" y="-163"/>
      <point x="50" y="-140"/>
      <point x="50" y="-113" type="curve" smooth="yes"/>
      <point x="50" y="-86"/>
      <point x="73" y="-63"/>
    </contour>
  </outline>
</glyph>
<glyph name="underscore" format="2">
  <advance width="615"/>
  <unicode hex="005F"/>
  <outline>
    <contour>
      <point x="617.0" y="-128.0" type="curve" smooth="yes"/>
      <point x="-2" y="-128.0" type="line" smooth="yes"/>
      <point x="-29" y="-128"/>
      <point x="-52" y="-105"/>
      <point x="-52.0" y="-78" type="curve" smooth="yes"/>
      <point x="-52" y="-51"/>
      <point x="-29" y="-28"/>
      <point x="-2" y="-28.0" type="curve" smooth="yes"/>
      <point x="617.0" y="-28.0" type="line" smooth="yes"/>
      <point x="644.0" y="-28.0"/>
      <point x="667.0" y="-51"/>
      <point x="667.0" y="-78" type="curve" smooth="yes"/>
      <point x="667.0" y="-105"/>
      <point x="644.0" y="-128.0"/>
    </contour>
  </outline>
</glyph>
<glyph name="grave" format="2">
  <advance width="408"/>
  <unicode hex="0060"/>
  <outline>
    <contour>
      <point x="205.46603858000594" y="594.7254723077821" type="curve" smooth="yes"/>
      <point x="114.46603858000594" y="720.7254723077821" type="line" smooth="yes"/>
      <point x="98.65779362620827" y="742.6138114745788"/>
      <point x="103.83713314098529" y="774.7257164661963"/>
      <point x="125.72547230778207" y="790.5339614199941" type="curve" smooth="yes"/>
      <point x="147.61381147457885" y="806.3422063737918"/>
      <point x="179.7257164661964" y="801.1628668590147"/>
      <point x="195.53396141999406" y="779.2745276922179" type="curve" smooth="yes"/>
      <point x="286.53396141999406" y="653.2745276922179" type="line" smooth="yes"/>
      <point x="302.3422063737917" y="631.3861885254212"/>
      <point x="297.1628668590147" y="599.2742835338037"/>
      <point x="275.2745276922179" y="583.4660385800059" type="curve" smooth="yes"/>
      <point x="253.3861885254211" y="567.6577936262082"/>
      <point x="221.2742835338036" y="572.8371331409853"/>
    </contour>
  </outline>
</glyph>
<glyph name="a" format="2">
  <advance width="608"/>
  <unicode hex="0061"/>
  <outline>
    <contour>
      <point x="291" y="-15" type="curve" smooth="yes"/>
      <point x="147" y="-15"/>
      <point x="37" y="100"/>
      <point x="37" y="259" type="curve" smooth="yes"/>
      <point x="37" y="418"/>
      <point x="147" y="532"/>
      <point x="290" y="532" type="curve" smooth="yes"/>
      <point x="433" y="532"/>
      <point x="543" y="418"/>
      <point x="543" y="259" type="curve" smooth="yes"/>
      <point x="543" y="100"/>
      <point x="435" y="-15"/>
    </contour>
    <contour>
      <point x="443" y="40" type="curve" smooth="yes"/>
      <point x="443" y="477" type="line" smooth="yes"/>
      <point x="443" y="504"/>
      <point x="466" y="527"/>
      <point x="493" y="527" type="curve" smooth="yes"/>
      <point x="520" y="527"/>
      <point x="543" y="504"/>
      <point x="543" y="477" type="curve" smooth="yes"/>
      <point x="543" y="40" type="line" smooth="yes"/>
      <point x="543" y="13"/>
      <point x="520" y="-10"/>
      <point x="493" y="-10" type="curve" smooth="yes"/>
      <point x="466" y="-10"/>
      <point x="443" y="13"/>
    </contour>
    <contour>
      <point x="291" y="85" type="curve" smooth="yes"/>
      <point x="382" y="85"/>
      <point x="443" y="158"/>
      <point x="443" y="259" type="curve" smooth="yes"/>
      <point x="443" y="360"/>
      <point x="381" y="432"/>
      <point x="290" y="432" type="curve" smooth="yes"/>
      <point x="199" y="432"/>
      <point x="137" y="360"/>
      <point x="137" y="259" type="curve" smooth="yes"/>
      <point x="137" y="158"/>
      <point x="199" y="85"/>
    </contour>
  </outline>
</glyph>
<glyph name="b" format="2">
  <advance width="608"/>
  <unicode hex="0062"/>
  <outline>
    <contour>
      <point x="317" y="532" type="curve" smooth="yes"/>
      <point x="461" y="532"/>
      <point x="571" y="417"/>
      <point x="571" y="258" type="curve" smooth="yes"/>
      <point x="571" y="99"/>
      <point x="461" y="-15"/>
      <point x="318" y="-15" type="curve" smooth="yes"/>
      <point x="175" y="-15"/>
      <point x="65" y="99"/>
      <point x="65" y="258" type="curve" smooth="yes"/>
      <point x="65" y="417"/>
      <point x="173" y="532"/>
    </contour>
    <contour>
      <point x="317" y="432" type="curve" smooth="yes"/>
      <point x="226" y="432"/>
      <point x="165" y="359"/>
      <point x="165" y="258" type="curve" smooth="yes"/>
      <point x="165" y="157"/>
      <point x="227" y="85"/>
      <point x="318" y="85" type="curve" smooth="yes"/>
      <point x="409" y="85"/>
      <point x="471" y="157"/>
      <point x="471" y="258" type="curve" smooth="yes"/>
      <point x="471" y="359"/>
      <point x="409" y="432"/>
    </contour>
    <contour>
      <point x="65" y="40" type="curve" smooth="yes"/>
      <point x="65" y="690" type="line" smooth="yes"/>
      <point x="65" y="717"/>
      <point x="88" y="740"/>
      <point x="115" y="740" type="curve" smooth="yes"/>
      <point x="142" y="740"/>
      <point x="165" y="717"/>
      <point x="165" y="690" type="curve" smooth="yes"/>
      <point x="165" y="40" type="line" smooth="yes"/>
      <point x="165" y="13"/>
      <point x="142" y="-10"/>
      <point x="115" y="-10" type="curve" smooth="yes"/>
      <point x="88" y="-10"/>
      <point x="65" y="13"/>
    </contour>
  </outline>
</glyph>
<glyph name="c" format="2">
  <advance width="485"/>
  <unicode hex="0063"/>
  <outline>
    <contour>
      <point x="435" y="28" type="curve" smooth="yes"/>
      <point x="246" y="-81"/>
      <point x="37" y="32"/>
      <point x="37" y="258" type="curve" smooth="yes"/>
      <point x="37" y="483"/>
      <point x="245" y="597"/>
      <point x="435" y="488" type="curve" smooth="yes"/>
      <point x="458" y="475"/>
      <point x="467" y="444"/>
      <point x="453" y="420" type="curve" smooth="yes"/>
      <point x="440" y="397"/>
      <point x="409" y="388"/>
      <point x="385" y="402" type="curve" smooth="yes"/>
      <point x="261" y="473"/>
      <point x="137" y="405"/>
      <point x="137" y="258" type="curve" smooth="yes"/>
      <point x="137" y="110"/>
      <point x="262" y="43"/>
      <point x="385" y="114" type="curve" smooth="yes"/>
      <point x="408" y="128"/>
      <point x="440" y="119"/>
      <point x="453" y="96" type="curve" smooth="yes"/>
      <point x="467" y="73"/>
      <point x="458" y="41"/>
    </contour>
  </outline>
</glyph>
<glyph name="d" format="2">
  <advance width="623"/>
  <unicode hex="0064"/>
  <outline>
    <contour>
      <point x="304.0" y="532.0" type="curve" smooth="yes"/>
      <point x="448.4627507713602" y="532.0"/>
      <point x="556.0" y="417.1538779684477"/>
      <point x="556.0" y="258.0" type="curve" smooth="yes"/>
      <point x="556.0" y="98.76654509256807"/>
      <point x="446.3101094166887" y="-15.0"/>
      <point x="303.0" y="-15.0" type="curve" smooth="yes"/>
      <point x="159.68989058331124" y="-15.0"/>
      <point x="50.0" y="98.76654509256807"/>
      <point x="50.0" y="258.0" type="curve" smooth="yes"/>
      <point x="50.0" y="417.0743407980487"/>
      <point x="159.60944450638652" y="532.0"/>
    </contour>
    <contour>
      <point x="304.0" y="432.0" type="curve" smooth="yes"/>
      <point x="212.4664960332915" y="432.0"/>
      <point x="150.0" y="358.84199589552634"/>
      <point x="150.0" y="258.0" type="curve" smooth="yes"/>
      <point x="150.0" y="157.30919147942538"/>
      <point x="212.3782723314828" y="85.0"/>
      <point x="303.0" y="85.0" type="curve" smooth="yes"/>
      <point x="393.62172766851705" y="85.0"/>
      <point x="456.0" y="157.30919147942538"/>
      <point x="456.0" y="258.0" type="curve" smooth="yes"/>
      <point x="456.0" y="358.7915748975786"/>
      <point x="395.48773721472503" y="432.0"/>
    </contour>
    <contour>
      <point x="556.0" y="690.0" type="curve" smooth="yes"/>
      <point x="556.0" y="39.999999999999986" type="line" smooth="yes"/>
      <point x="556.0" y="12.999999999999986"/>
      <point x="533.0" y="-10.000000000000007"/>
      <point x="506.0" y="-10.0" type="curve" smooth="yes"/>
      <point x="479.0" y="-9.999999999999993"/>
      <point x="456.0" y="13.000000000000014"/>
      <point x="456.0" y="40.000000000000014" type="curve" smooth="yes"/>
      <point x="456.0" y="690.0" type="line" smooth="yes"/>
      <point x="456.0" y="717.0"/>
      <point x="479.0" y="740.0"/>
      <point x="506.0" y="740.0" type="curve" smooth="yes"/>
      <point x="533.0" y="740.0"/>
      <point x="556.0" y="717.0"/>
    </contour>
  </outline>
</glyph>
<glyph name="e" format="2">
  <advance width="566"/>
  <unicode hex="0065"/>
  <outline>
    <contour>
      <point x="112" y="309" type="curve" smooth="yes"/>
      <point x="482" y="309" type="line"/>
      <point x="432" y="261" type="line"/>
      <point x="435" y="363"/>
      <point x="383" y="432"/>
      <point x="293" y="432" type="curve" smooth="yes"/>
      <point x="201" y="432"/>
      <point x="137" y="362"/>
      <point x="137" y="258" type="curve" smooth="yes"/>
      <point x="137" y="95"/>
      <point x="289" y="39"/>
      <point x="444" y="127" type="curve" smooth="yes"/>
      <point x="468" y="140"/>
      <point x="499" y="131"/>
      <point x="513" y="108" type="curve" smooth="yes"/>
      <point x="526" y="84"/>
      <point x="517" y="53"/>
      <point x="494" y="39" type="curve" smooth="yes"/>
      <point x="267" y="-88"/>
      <point x="37" y="21"/>
      <point x="37" y="258" type="curve" smooth="yes"/>
      <point x="37" y="421"/>
      <point x="149" y="532"/>
      <point x="293" y="532" type="curve" smooth="yes"/>
      <point x="437" y="532"/>
      <point x="537" y="421"/>
      <point x="532" y="257" type="curve" smooth="yes"/>
      <point x="531" y="230"/>
      <point x="509" y="209"/>
      <point x="482" y="209" type="curve" smooth="yes"/>
      <point x="112" y="209" type="line" smooth="yes"/>
      <point x="85" y="209"/>
      <point x="62" y="232"/>
      <point x="62" y="259" type="curve" smooth="yes"/>
      <point x="62" y="286"/>
      <point x="85" y="309"/>
    </contour>
  </outline>
</glyph>
<glyph name="f" format="2">
  <advance width="500"/>
  <unicode hex="0066"/>
  <outline>
    <contour>
      <point x="70.0" y="522.0" type="curve" smooth="yes"/>
      <point x="330.0" y="522.0" type="line" smooth="yes"/>
      <point x="357.0" y="522.0"/>
      <point x="380.0" y="499.0"/>
      <point x="380.0" y="472.0" type="curve" smooth="yes"/>
      <point x="380.0" y="445.0"/>
      <point x="357.0" y="422.0"/>
      <point x="330.0" y="422.0" type="curve" smooth="yes"/>
      <point x="70.0" y="422.0" type="line" smooth="yes"/>
      <point x="43.0" y="422.0"/>
      <point x="19.999999999999996" y="445.0"/>
      <point x="20.0" y="472.0" type="curve" smooth="yes"/>
      <point x="20.000000000000004" y="499.0"/>
      <point x="43.0" y="522.0"/>
    </contour>
    <contour>
      <point x="339.44759076558205" y="631.3750200255133" type="curve" smooth="yes"/>
      <point x="281.1803027130849" y="660.8219290412914"/>
      <point x="230.0" y="641.3999379477929"/>
      <point x="230.0" y="580.0" type="curve" smooth="yes"/>
      <point x="230.0" y="39.999999999999986" type="line" smooth="yes"/>
      <point x="230.0" y="12.999999999999986"/>
      <point x="206.99999999999997" y="-10.000000000000007"/>
      <point x="179.99999999999997" y="-10.0" type="curve" smooth="yes"/>
      <point x="152.99999999999997" y="-9.999999999999993"/>
      <point x="130.0" y="13.000000000000014"/>
      <point x="130.0" y="40.000000000000014" type="curve" smooth="yes"/>
      <point x="130.0" y="580.0" type="line" smooth="yes"/>
      <point x="130.0" y="714.2793729266277"/>
      <point x="257.12402472241405" y="785.0242710719513"/>
      <point x="384.55240923441795" y="720.6249799744867" type="curve" smooth="yes"/>
      <point x="408.64989842064074" y="708.446678987901"/>
      <point x="418.80328096107235" y="677.5450799518048"/>
      <point x="406.6249799744867" y="653.447590765582" type="curve" smooth="yes"/>
      <point x="394.446678987901" y="629.3501015793593"/>
      <point x="363.54507995180484" y="619.1967190389277"/>
    </contour>
  </outline>
</glyph>
<glyph name="g" format="2">
  <advance width="578"/>
  <unicode hex="0067"/>
  <outline>
    <contour>
      <point x="276.0" y="45.0" type="curve" smooth="yes"/>
      <point x="139.85300886400216" y="45.0"/>
      <point x="37.0" y="147.97275904267315"/>
      <point x="37.0" y="289.0132625994695" type="curve" smooth="yes"/>
      <point x="37.0" y="429.05130610198023"/>
      <point x="139.83206554184804" y="532.0"/>
      <point x="275.0" y="532.0" type="curve" smooth="yes"/>
      <point x="410.16793445815205" y="532.0"/>
      <point x="513.0" y="429.05130610198023"/>
      <point x="513.0" y="289.0132625994695" type="curve" smooth="yes"/>
      <point x="513.0" y="147.97275904267315"/>
      <point x="412.1469911359979" y="45.0"/>
    </contour>
    <contour>
      <point x="513.0" y="477.0" type="curve" smooth="yes"/>
      <point x="513.0" y="60.999999999999986" type="line" smooth="yes"/>
      <point x="513.0" y="-146.9397400592784"/>
      <point x="278.31978813882364" y="-220.09727912199887"/>
      <point x="101.14036465636168" y="-133.96839270691314" type="curve" smooth="yes"/>
      <point x="76.85743259462859" y="-122.16418962134844"/>
      <point x="66.22740420752216" y="-91.42329671809478"/>
      <point x="78.03160729308685" y="-67.14036465636168" type="curve" smooth="yes"/>
      <point x="89.83581037865154" y="-42.857432594628584"/>
      <point x="120.5767032819052" y="-32.22740420752217"/>
      <point x="144.8596353436383" y="-44.03160729308686" type="curve" smooth="yes"/>
      <point x="255.18573599575242" y="-97.66235066564221"/>
      <point x="413.0" y="-68.47993757088373"/>
      <point x="413.0" y="61.000000000000014" type="curve" smooth="yes"/>
      <point x="413.0" y="477.0" type="line" smooth="yes"/>
      <point x="413.0" y="504.0"/>
      <point x="436.0" y="527.0"/>
      <point x="463.0" y="527.0" type="curve" smooth="yes"/>
      <point x="490.0" y="527.0"/>
      <point x="513.0" y="504.0"/>
    </contour>
    <contour>
      <point x="276.0" y="145.0" type="curve" smooth="yes"/>
      <point x="357.8202545116781" y="145.0"/>
      <point x="413.0" y="204.25215402715457"/>
      <point x="413.0" y="289.0132625994695" type="curve" smooth="yes"/>
      <point x="413.0" y="372.7951976789116"/>
      <point x="355.86824713023174" y="432.0"/>
      <point x="275.0" y="432.0" type="curve" smooth="yes"/>
      <point x="194.13175286976826" y="432.0"/>
      <point x="137.0" y="372.7951976789116"/>
      <point x="137.0" y="289.0132625994695" type="curve" smooth="yes"/>
      <point x="137.0" y="204.20975227199082"/>
      <point x="194.1388148957698" y="145.0"/>
    </contour>
  </outline>
</glyph>
<glyph name="h" format="2">
  <advance width="600"/>
  <unicode hex="0068"/>
  <outline>
    <contour>
      <point x="67.0" y="40.00000000000001" type="curve" smooth="yes"/>
      <point x="67.0" y="690.0" type="line" smooth="yes"/>
      <point x="67.0" y="717.0"/>
      <point x="90.0" y="740.0"/>
      <point x="117.0" y="740.0" type="curve" smooth="yes"/>
      <point x="144.0" y="740.0"/>
      <point x="167.0" y="717.0"/>
      <point x="167.0" y="690.0" type="curve" smooth="yes"/>
      <point x="167.0" y="39.99999999999999" type="line" smooth="yes"/>
      <point x="167.0" y="12.999999999999993"/>
      <point x="143.99999999999997" y="-10.000000000000007"/>
      <point x="116.99999999999997" y="-10.0" type="curve" smooth="yes"/>
      <point x="89.99999999999997" y="-9.999999999999993"/>
      <point x="66.99999999999999" y="13.000000000000007"/>
    </contour>
    <contour>
      <point x="437.0" y="40.00000000000001" type="curve" smooth="yes"/>
      <point x="437.0" y="302.0" type="line" smooth="yes"/>
      <point x="437.0" y="386.8733082532867"/>
      <point x="398.0648479745686" y="432.0"/>
      <point x="325.0" y="432.0" type="curve" smooth="yes"/>
      <point x="234.33634135984178" y="432.0"/>
      <point x="167.0" y="364.08623179880647"/>
      <point x="167.0" y="284.0" type="curve" smooth="yes"/>
      <point x="167.0" y="257.0"/>
      <point x="143.99999999999997" y="234.0"/>
      <point x="116.99999999999997" y="234.0" type="curve" smooth="yes"/>
      <point x="89.99999999999997" y="234.0"/>
      <point x="66.99999999999999" y="257.0"/>
      <point x="67.0" y="284.0" type="curve" smooth="yes"/>
      <point x="67.0" y="415.8695978727028"/>
      <point x="175.71366278561953" y="532.0"/>
      <point x="325.0" y="532.0" type="curve" smooth="yes"/>
      <point x="449.7151760394589" y="532.0"/>
      <point x="537.0" y="446.8711640862401"/>
      <point x="537.0" y="302.0" type="curve" smooth="yes"/>
      <point x="537.0" y="39.99999999999999" type="line" smooth="yes"/>
      <point x="537.0" y="12.999999999999993"/>
      <point x="514.0" y="-10.000000000000007"/>
      <point x="487.0" y="-10.0" type="curve" smooth="yes"/>
      <point x="460.0" y="-9.999999999999993"/>
      <point x="437.0" y="13.000000000000007"/>
    </contour>
  </outline>
</glyph>
<glyph name="i" format="2">
  <advance width="240"/>
  <unicode hex="0069"/>
  <outline>
    <contour>
      <point x="70" y="40" type="curve" smooth="yes"/>
      <point x="70" y="477" type="line" smooth="yes"/>
      <point x="70" y="504"/>
      <point x="93" y="527"/>
      <point x="120" y="527" type="curve" smooth="yes"/>
      <point x="147" y="527"/>
      <point x="170" y="504"/>
      <point x="170" y="477" type="curve" smooth="yes"/>
      <point x="170" y="40" type="line" smooth="yes"/>
      <point x="170" y="13"/>
      <point x="147" y="-10"/>
      <point x="120" y="-10" type="curve" smooth="yes"/>
      <point x="93" y="-10"/>
      <point x="70" y="13"/>
    </contour>
    <contour>
      <point x="70" y="665" type="curve" smooth="yes"/>
      <point x="70" y="709" type="line" smooth="yes"/>
      <point x="70" y="736"/>
      <point x="93" y="759"/>
      <point x="120" y="759" type="curve" smooth="yes"/>
      <point x="147" y="759"/>
      <point x="170" y="736"/>
      <point x="170" y="709" type="curve" smooth="yes"/>
      <point x="170" y="665" type="line" smooth="yes"/>
      <point x="170" y="638"/>
      <point x="147" y="615"/>
      <point x="120" y="615" type="curve" smooth="yes"/>
      <point x="93" y="615"/>
      <point x="70" y="638"/>
    </contour>
  </outline>
</glyph>
<glyph name="j" format="2">
  <advance width="255"/>
  <unicode hex="006A"/>
  <outline>
    <contour>
      <point x="185" y="477" type="curve" smooth="yes"/>
      <point x="185" y="-1" type="line" smooth="yes"/>
      <point x="185" y="-146"/>
      <point x="70" y="-187"/>
      <point x="-33" y="-149" type="curve" smooth="yes"/>
      <point x="-58" y="-139"/>
      <point x="-71" y="-110"/>
      <point x="-62" y="-84" type="curve" smooth="yes"/>
      <point x="-52" y="-59"/>
      <point x="-23" y="-46"/>
      <point x="3" y="-55" type="curve" smooth="yes"/>
      <point x="48" y="-72"/>
      <point x="85" y="-65"/>
      <point x="85" y="-1" type="curve" smooth="yes"/>
      <point x="85" y="477" type="line" smooth="yes"/>
      <point x="85" y="504"/>
      <point x="108" y="527"/>
      <point x="135" y="527" type="curve" smooth="yes"/>
      <point x="162" y="527"/>
      <point x="185" y="504"/>
    </contour>
    <contour>
      <point x="85" y="665" type="curve" smooth="yes"/>
      <point x="85" y="709" type="line" smooth="yes"/>
      <point x="85" y="736"/>
      <point x="108" y="759"/>
      <point x="135" y="759" type="curve" smooth="yes"/>
      <point x="162" y="759"/>
      <point x="185" y="736"/>
      <point x="185" y="709" type="curve" smooth="yes"/>
      <point x="185" y="665" type="line" smooth="yes"/>
      <point x="185" y="638"/>
      <point x="162" y="615"/>
      <point x="135" y="615" type="curve" smooth="yes"/>
      <point x="108" y="615"/>
      <point x="85" y="638"/>
    </contour>
  </outline>
</glyph>
<glyph name="k" format="2">
  <advance width="516"/>
  <unicode hex="006B"/>
  <outline>
    <contour>
      <point x="170" y="695" type="curve" smooth="yes"/>
      <point x="170" y="40" type="line" smooth="yes"/>
      <point x="170" y="13"/>
      <point x="147" y="-10"/>
      <point x="120" y="-10" type="curve" smooth="yes"/>
      <point x="93" y="-10"/>
      <point x="70" y="13"/>
      <point x="70" y="40" type="curve" smooth="yes"/>
      <point x="70" y="695" type="line" smooth="yes"/>
      <point x="70" y="722"/>
      <point x="93" y="745"/>
      <point x="120" y="745" type="curve" smooth="yes"/>
      <point x="147" y="745"/>
      <point x="170" y="722"/>
    </contour>
    <contour>
      <point x="462" y="438" type="curve" smooth="yes"/>
      <point x="221" y="244" type="line"/>
      <point x="225" y="319" type="line"/>
      <point x="476" y="76" type="line" smooth="yes"/>
      <point x="495" y="57"/>
      <point x="496" y="25"/>
      <point x="477" y="5" type="curve" smooth="yes"/>
      <point x="458" y="-14"/>
      <point x="426" y="-15"/>
      <point x="406" y="4" type="curve" smooth="yes"/>
      <point x="155" y="247" type="line" smooth="yes"/>
      <point x="134" y="268"/>
      <point x="135" y="303"/>
      <point x="159" y="322" type="curve" smooth="yes"/>
      <point x="400" y="516" type="line" smooth="yes"/>
      <point x="421" y="533"/>
      <point x="453" y="529"/>
      <point x="470" y="508" type="curve" smooth="yes"/>
      <point x="487" y="487"/>
      <point x="483" y="455"/>
    </contour>
  </outline>
</glyph>
<glyph name="l" format="2">
  <advance width="231"/>
  <unicode hex="006C"/>
  <anchor x="115" y="735" name="above"/>
  <anchor x="115" y="0" name="below"/>
  <outline>
    <contour>
      <point x="65.0" y="40.00000000000001" type="curve" smooth="yes"/>
      <point x="65.0" y="695.0" type="line" smooth="yes"/>
      <point x="65.0" y="722.0"/>
      <point x="88.0" y="745.0"/>
      <point x="115.0" y="745.0" type="curve" smooth="yes"/>
      <point x="142.0" y="745.0"/>
      <point x="165.0" y="722.0"/>
      <point x="165.0" y="695.0" type="curve" smooth="yes"/>
      <point x="165.0" y="39.99999999999999" type="line" smooth="yes"/>
      <point x="165.0" y="12.999999999999993"/>
      <point x="141.99999999999997" y="-10.000000000000007"/>
      <point x="114.99999999999997" y="-10.0" type="curve" smooth="yes"/>
      <point x="87.99999999999997" y="-9.999999999999993"/>
      <point x="64.99999999999999" y="13.000000000000007"/>
    </contour>
  </outline>
</glyph>
<glyph name="m" format="2">
  <advance width="861"/>
  <unicode hex="006D"/>
  <outline>
    <contour>
      <point x="65" y="40" type="curve" smooth="yes"/>
      <point x="65" y="477" type="line" smooth="yes"/>
      <point x="65" y="504"/>
      <point x="88" y="527"/>
      <point x="115" y="527" type="curve" smooth="yes"/>
      <point x="142" y="527"/>
      <point x="165" y="504"/>
      <point x="165" y="477" type="curve" smooth="yes"/>
      <point x="165" y="40" type="line" smooth="yes"/>
      <point x="165" y="13"/>
      <point x="142" y="-10"/>
      <point x="115" y="-10" type="curve" smooth="yes"/>
      <point x="88" y="-10"/>
      <point x="65" y="13"/>
    </contour>
    <contour>
      <point x="385" y="40" type="curve" smooth="yes"/>
      <point x="385" y="331" type="line" smooth="yes"/>
      <point x="385" y="398"/>
      <point x="354" y="432"/>
      <point x="295" y="432" type="curve" smooth="yes"/>
      <point x="221" y="432"/>
      <point x="165" y="379"/>
      <point x="165" y="315" type="curve" smooth="yes"/>
      <point x="165" y="288"/>
      <point x="142" y="265"/>
      <point x="115" y="265" type="curve" smooth="yes"/>
      <point x="88" y="265"/>
      <point x="65" y="288"/>
      <point x="65" y="315" type="curve" smooth="yes"/>
      <point x="65" y="430"/>
      <point x="161" y="532"/>
      <point x="295" y="532" type="curve" smooth="yes"/>
      <point x="406" y="532"/>
      <point x="485" y="458"/>
      <point x="485" y="331" type="curve" smooth="yes"/>
      <point x="485" y="40" type="line" smooth="yes"/>
      <point x="485" y="13"/>
      <point x="462" y="-10"/>
      <point x="435" y="-10" type="curve" smooth="yes"/>
      <point x="408" y="-10"/>
      <point x="385" y="13"/>
    </contour>
    <contour>
      <point x="705" y="40" type="curve" smooth="yes"/>
      <point x="705" y="331" type="line" smooth="yes"/>
      <point x="705" y="398"/>
      <point x="674" y="432"/>
      <point x="615" y="432" type="curve" smooth="yes"/>
      <point x="541" y="432"/>
      <point x="485" y="379"/>
      <point x="485" y="315" type="curve" smooth="yes"/>
      <point x="485" y="288"/>
      <point x="462" y="265"/>
      <point x="435" y="265" type="curve" smooth="yes"/>
      <point x="408" y="265"/>
      <point x="385" y="288"/>
      <point x="385" y="315" type="curve" smooth="yes"/>
      <point x="385" y="430"/>
      <point x="481" y="532"/>
      <point x="615" y="532" type="curve" smooth="yes"/>
      <point x="726" y="532"/>
      <point x="805" y="458"/>
      <point x="805" y="331" type="curve" smooth="yes"/>
      <point x="805" y="40" type="line" smooth="yes"/>
      <point x="805" y="13"/>
      <point x="782" y="-10"/>
      <point x="755" y="-10" type="curve" smooth="yes"/>
      <point x="728" y="-10"/>
      <point x="705" y="13"/>
    </contour>
  </outline>
</glyph>
<glyph name="o" format="2">
  <advance width="600"/>
  <unicode hex="006F"/>
  <outline>
    <contour>
      <point x="300" y="85" type="curve" smooth="yes"/>
      <point x="396" y="85"/>
      <point x="463" y="158"/>
      <point x="463" y="259" type="curve" smooth="yes"/>
      <point x="463" y="360"/>
      <point x="396" y="432"/>
      <point x="300" y="432" type="curve" smooth="yes"/>
      <point x="204" y="432"/>
      <point x="137" y="360"/>
      <point x="137" y="259" type="curve" smooth="yes"/>
      <point x="137" y="158"/>
      <point x="204" y="85"/>
    </contour>
    <contour>
      <point x="300" y="-15" type="curve" smooth="yes"/>
      <point x="150" y="-15"/>
      <point x="37" y="102"/>
      <point x="37" y="259" type="curve" smooth="yes"/>
      <point x="37" y="416"/>
      <point x="150" y="532"/>
      <point x="300" y="532" type="curve" smooth="yes"/>
      <point x="450" y="532"/>
      <point x="563" y="416"/>
      <point x="563" y="259" type="curve" smooth="yes"/>
      <point x="563" y="102"/>
      <point x="450" y="-15"/>
    </contour>
  </outline>
</glyph>
<glyph name="p" format="2">
  <advance width="608"/>
  <unicode hex="0070"/>
  <outline>
    <contour>
      <point x="317" y="533" type="curve" smooth="yes"/>
      <point x="461" y="533"/>
      <point x="571" y="418"/>
      <point x="571" y="259" type="curve" smooth="yes"/>
      <point x="571" y="100"/>
      <point x="461" y="-14"/>
      <point x="318" y="-14" type="curve" smooth="yes"/>
      <point x="175" y="-14"/>
      <point x="65" y="100"/>
      <point x="65" y="259" type="curve" smooth="yes"/>
      <point x="65" y="418"/>
      <point x="173" y="533"/>
    </contour>
    <contour>
      <point x="165" y="478" type="curve" smooth="yes"/>
      <point x="165" y="-120" type="line" smooth="yes"/>
      <point x="165" y="-147"/>
      <point x="142" y="-170"/>
      <point x="115" y="-170" type="curve" smooth="yes"/>
      <point x="88" y="-170"/>
      <point x="65" y="-147"/>
      <point x="65" y="-120" type="curve" smooth="yes"/>
      <point x="65" y="478" type="line" smooth="yes"/>
      <point x="65" y="505"/>
      <point x="88" y="528"/>
      <point x="115" y="528" type="curve" smooth="yes"/>
      <point x="142" y="528"/>
      <point x="165" y="505"/>
    </contour>
    <contour>
      <point x="317" y="433" type="curve" smooth="yes"/>
      <point x="226" y="433"/>
      <point x="165" y="360"/>
      <point x="165" y="259" type="curve" smooth="yes"/>
      <point x="165" y="158"/>
      <point x="227" y="86"/>
      <point x="318" y="86" type="curve" smooth="yes"/>
      <point x="409" y="86"/>
      <point x="471" y="158"/>
      <point x="471" y="259" type="curve" smooth="yes"/>
      <point x="471" y="360"/>
      <point x="409" y="433"/>
    </contour>
  </outline>
</glyph>
<glyph name="q" format="2">
  <advance width="608"/>
  <unicode hex="0071"/>
  <outline>
    <contour>
      <point x="291" y="533" type="curve" smooth="yes"/>
      <point x="435" y="533"/>
      <point x="543" y="418"/>
      <point x="543" y="259" type="curve" smooth="yes"/>
      <point x="543" y="100"/>
      <point x="433" y="-14"/>
      <point x="290" y="-14" type="curve" smooth="yes"/>
      <point x="147" y="-14"/>
      <point x="37" y="100"/>
      <point x="37" y="259" type="curve" smooth="yes"/>
      <point x="37" y="418"/>
      <point x="147" y="533"/>
    </contour>
    <contour>
      <point x="443" y="-120" type="curve" smooth="yes"/>
      <point x="443" y="478" type="line" smooth="yes"/>
      <point x="443" y="505"/>
      <point x="466" y="528"/>
      <point x="493" y="528" type="curve" smooth="yes"/>
      <point x="520" y="528"/>
      <point x="543" y="505"/>
      <point x="543" y="478" type="curve" smooth="yes"/>
      <point x="543" y="-120" type="line" smooth="yes"/>
      <point x="543" y="-147"/>
      <point x="520" y="-170"/>
      <point x="493" y="-170" type="curve" smooth="yes"/>
      <point x="466" y="-170"/>
      <point x="443" y="-147"/>
    </contour>
    <contour>
      <point x="291" y="433" type="curve" smooth="yes"/>
      <point x="199" y="433"/>
      <point x="137" y="360"/>
      <point x="137" y="259" type="curve" smooth="yes"/>
      <point x="137" y="158"/>
      <point x="199" y="86"/>
      <point x="290" y="86" type="curve" smooth="yes"/>
      <point x="381" y="86"/>
      <point x="443" y="158"/>
      <point x="443" y="259" type="curve" smooth="yes"/>
      <point x="443" y="360"/>
      <point x="382" y="433"/>
    </contour>
  </outline>
</glyph>
<glyph name="r" format="2">
  <advance width="417"/>
  <unicode hex="0072"/>
  <outline>
    <contour>
      <point x="334.1283857736503" y="424.62351076198786" type="curve" smooth="yes"/>
      <point x="228.6090592561223" y="441.4454323807242"/>
      <point x="165.0" y="365.2852017039015"/>
      <point x="165.0" y="272.0" type="curve" smooth="yes"/>
      <point x="165.0" y="245.0"/>
      <point x="141.99999999999997" y="222.0"/>
      <point x="114.99999999999997" y="222.0" type="curve" smooth="yes"/>
      <point x="87.99999999999997" y="222.0"/>
      <point x="64.99999999999999" y="245.0"/>
      <point x="65.0" y="272.0" type="curve" smooth="yes"/>
      <point x="65.0" y="422.6385973422528"/>
      <point x="179.47713526544086" y="550.5408264636643"/>
      <point x="349.8716142263497" y="523.3764892380121" type="curve" smooth="yes"/>
      <point x="376.5349184148763" y="519.1258175557833"/>
      <point x="395.627160920241" y="492.79168996217686"/>
      <point x="391.37648923801214" y="466.1283857736503" type="curve" smooth="yes"/>
      <point x="387.12581755578327" y="439.4650815851237"/>
      <point x="360.79168996217686" y="420.372839079759"/>
    </contour>
    <contour>
      <point x="65.0" y="40.00000000000001" type="curve" smooth="yes"/>
      <point x="65.0" y="477.0" type="line" smooth="yes"/>
      <point x="65.0" y="504.0"/>
      <point x="88.0" y="527.0"/>
      <point x="115.0" y="527.0" type="curve" smooth="yes"/>
      <point x="142.0" y="527.0"/>
      <point x="165.0" y="504.0"/>
      <point x="165.0" y="477.0" type="curve" smooth="yes"/>
      <point x="165.0" y="39.99999999999999" type="line" smooth="yes"/>
      <point x="165.0" y="12.999999999999993"/>
      <point x="141.99999999999997" y="-10.000000000000007"/>
      <point x="114.99999999999997" y="-10.0" type="curve" smooth="yes"/>
      <point x="87.99999999999997" y="-9.999999999999993"/>
      <point x="64.99999999999999" y="13.000000000000007"/>
    </contour>
  </outline>
</glyph>
<glyph name="s" format="2">
  <advance width="513"/>
  <unicode hex="0073"/>
  <outline>
    <contour>
      <point x="368" y="416" type="curve" smooth="yes"/>
      <point x="290" y="445"/>
      <point x="169" y="444"/>
      <point x="169" y="395" type="curve"/>
      <point x="169" y="395"/>
      <point x="169" y="395"/>
      <point x="169" y="395" type="curve"/>
      <point x="169" y="303"/>
      <point x="460" y="333"/>
      <point x="460" y="140" type="curve"/>
      <point x="460" y="140"/>
      <point x="460" y="140"/>
      <point x="460" y="140" type="curve"/>
      <point x="460" y="8"/>
      <point x="285" y="-61"/>
      <point x="86" y="27" type="curve" smooth="yes"/>
      <point x="59" y="39"/>
      <point x="46" y="72"/>
      <point x="57" y="99" type="curve" smooth="yes"/>
      <point x="69" y="126"/>
      <point x="103" y="139"/>
      <point x="130" y="127" type="curve" smooth="yes"/>
      <point x="214" y="90"/>
      <point x="350" y="84"/>
      <point x="350" y="140" type="curve"/>
      <point x="350" y="140"/>
      <point x="350" y="140"/>
      <point x="350" y="140" type="curve"/>
      <point x="350" y="234"/>
      <point x="59" y="206"/>
      <point x="59" y="395" type="curve"/>
      <point x="59" y="395"/>
      <point x="59" y="395"/>
      <point x="59" y="395" type="curve"/>
      <point x="59" y="515"/>
      <point x="215" y="590"/>
      <point x="406" y="520" type="curve" smooth="yes"/>
      <point x="434" y="509"/>
      <point x="449" y="477"/>
      <point x="438" y="449" type="curve" smooth="yes"/>
      <point x="428" y="421"/>
      <point x="396" y="406"/>
    </contour>
  </outline>
</glyph>
<glyph name="t" format="2">
  <advance width="365"/>
  <unicode hex="0074"/>
  <outline>
    <contour>
      <point x="130.0" y="40.00000000000001" type="curve" smooth="yes"/>
      <point x="130.0" y="612.0" type="line" smooth="yes"/>
      <point x="130.0" y="639.0"/>
      <point x="153.0" y="662.0"/>
      <point x="180.0" y="662.0" type="curve" smooth="yes"/>
      <point x="207.0" y="662.0"/>
      <point x="230.0" y="639.0"/>
      <point x="230.0" y="612.0" type="curve" smooth="yes"/>
      <point x="230.0" y="39.99999999999999" type="line" smooth="yes"/>
      <point x="230.0" y="12.999999999999993"/>
      <point x="206.99999999999997" y="-10.000000000000007"/>
      <point x="179.99999999999997" y="-10.0" type="curve" smooth="yes"/>
      <point x="152.99999999999997" y="-9.999999999999993"/>
      <point x="130.0" y="13.000000000000007"/>
    </contour>
    <contour>
      <point x="70.0" y="522.0" type="curve" smooth="yes"/>
      <point x="300.0" y="522.0" type="line" smooth="yes"/>
      <point x="327.0" y="522.0"/>
      <point x="350.0" y="499.0"/>
      <point x="350.0" y="472.0" type="curve" smooth="yes"/>
      <point x="350.0" y="445.0"/>
      <point x="327.0" y="422.0"/>
      <point x="300.0" y="422.0" type="curve" smooth="yes"/>
      <point x="70.0" y="422.0" type="line" smooth="yes"/>
      <point x="43.0" y="422.0"/>
      <point x="19.999999999999996" y="445.0"/>
      <point x="20.0" y="472.0" type="curve" smooth="yes"/>
      <point x="20.000000000000004" y="499.0"/>
      <point x="43.0" y="522.0"/>
    </contour>
  </outline>
</glyph>
<glyph name="u" format="2">
  <advance width="600"/>
  <unicode hex="0075"/>
  <outline>
    <contour>
      <point x="533" y="477" type="curve" smooth="yes"/>
      <point x="533" y="40" type="line" smooth="yes"/>
      <point x="533" y="13"/>
      <point x="510" y="-10"/>
      <point x="483" y="-10" type="curve" smooth="yes"/>
      <point x="456" y="-10"/>
      <point x="433" y="13"/>
      <point x="433" y="40" type="curve" smooth="yes"/>
      <point x="433" y="477" type="line" smooth="yes"/>
      <point x="433" y="504"/>
      <point x="456" y="527"/>
      <point x="483" y="527" type="curve" smooth="yes"/>
      <point x="510" y="527"/>
      <point x="533" y="504"/>
    </contour>
    <contour>
      <point x="163" y="477" type="curve" smooth="yes"/>
      <point x="163" y="215" type="line" smooth="yes"/>
      <point x="163" y="130"/>
      <point x="202" y="85"/>
      <point x="275" y="85" type="curve" smooth="yes"/>
      <point x="366" y="85"/>
      <point x="433" y="153"/>
      <point x="433" y="233" type="curve" smooth="yes"/>
      <point x="433" y="260"/>
      <point x="456" y="283"/>
      <point x="483" y="283" type="curve" smooth="yes"/>
      <point x="510" y="283"/>
      <point x="533" y="260"/>
      <point x="533" y="233" type="curve" smooth="yes"/>
      <point x="533" y="101"/>
      <point x="424" y="-15"/>
      <point x="275" y="-15" type="curve" smooth="yes"/>
      <point x="150" y="-15"/>
      <point x="63" y="70"/>
      <point x="63" y="215" type="curve" smooth="yes"/>
      <point x="63" y="477" type="line" smooth="yes"/>
      <point x="63" y="504"/>
      <point x="86" y="527"/>
      <point x="113" y="527" type="curve" smooth="yes"/>
      <point x="140" y="527"/>
      <point x="163" y="504"/>
    </contour>
  </outline>
</glyph>
<glyph name="v" format="2">
  <advance width="520"/>
  <unicode hex="0076"/>
  <outline>
    <contour>
      <point x="118" y="495" type="curve" smooth="yes"/>
      <point x="288" y="58" type="line"/>
      <point x="242" y="90" type="line"/>
      <point x="280" y="90" type="line"/>
      <point x="233" y="58" type="line"/>
      <point x="402" y="495" type="line" smooth="yes"/>
      <point x="412" y="520"/>
      <point x="442" y="533"/>
      <point x="467" y="524" type="curve" smooth="yes"/>
      <point x="492" y="514"/>
      <point x="505" y="484"/>
      <point x="495" y="459" type="curve" smooth="yes"/>
      <point x="326" y="22" type="line" smooth="yes"/>
      <point x="319" y="3"/>
      <point x="301" y="-10"/>
      <point x="280" y="-10" type="curve" smooth="yes"/>
      <point x="242" y="-10" type="line" smooth="yes"/>
      <point x="221" y="-10"/>
      <point x="203" y="3"/>
      <point x="195" y="22" type="curve" smooth="yes"/>
      <point x="25" y="459" type="line" smooth="yes"/>
      <point x="15" y="484"/>
      <point x="29" y="514"/>
      <point x="54" y="524" type="curve" smooth="yes"/>
      <point x="79" y="533"/>
      <point x="109" y="520"/>
    </contour>
  </outline>
</glyph>
<glyph name="w" format="2">
  <advance width="779"/>
  <unicode hex="0077"/>
  <outline>
    <contour>
      <point x="132.25829649335452" y="493.3295257906099" type="curve" smooth="yes"/>
      <point x="283.2582964933545" y="56.32952579060995" type="line"/>
      <point x="236.0" y="90.0" type="line"/>
      <point x="252.0" y="90.0" type="line"/>
      <point x="204.32086674329292" y="55.05656839685487" type="line"/>
      <point x="342.3208667432929" y="492.05656839685486" type="line" smooth="yes"/>
      <point x="357.06606267039274" y="538.7496888326708"/>
      <point x="423.1909677365184" y="538.6119141049486"/>
      <point x="437.7414613265247" y="491.8577545547079" type="curve" smooth="yes"/>
      <point x="573.7414613265247" y="54.85775455470792" type="line"/>
      <point x="526.0" y="90.0" type="line"/>
      <point x="544.0" y="90.0" type="line"/>
      <point x="496.70839718018095" y="56.23281561321022" type="line"/>
      <point x="646.7083971801809" y="493.2328156132102" type="line" smooth="yes"/>
      <point x="655.4741176113145" y="518.7702811359126"/>
      <point x="684.695350090508" y="533.0573232509525"/>
      <point x="710.2328156132103" y="524.291602819819" type="curve" smooth="yes"/>
      <point x="735.7702811359126" y="515.5258823886854"/>
      <point x="750.0573232509527" y="486.30464990949207"/>
      <point x="741.2916028198191" y="460.7671843867898" type="curve" smooth="yes"/>
      <point x="591.2916028198191" y="23.76718438678978" type="line" smooth="yes"/>
      <point x="584.3576300977285" y="3.566210523099148"/>
      <point x="565.3578866639986" y="-10.000000000000002"/>
      <point x="544.0" y="-10.0" type="curve" smooth="yes"/>
      <point x="526.0" y="-10.0" type="line" smooth="yes"/>
      <point x="504.10909386198114" y="-9.999999999999996"/>
      <point x="484.76353288105196" y="4.240168469475879"/>
      <point x="478.2585386734753" y="25.142245445292083" type="curve" smooth="yes"/>
      <point x="342.2585386734753" y="462.1422454452921" type="line"/>
      <point x="437.6791332567071" y="461.94343160314514" type="line"/>
      <point x="299.6791332567071" y="24.943431603145125" type="line" smooth="yes"/>
      <point x="293.1102559147985" y="4.141986687101248"/>
      <point x="273.8139923014621" y="-10.000000000000004"/>
      <point x="252.0" y="-10.0" type="curve" smooth="yes"/>
      <point x="236.0" y="-10.0" type="line" smooth="yes"/>
      <point x="214.6797014640671" y="-9.999999999999998"/>
      <point x="195.70471080276587" y="3.5192544186310712"/>
      <point x="188.74170350664548" y="23.670474209390054" type="curve" smooth="yes"/>
      <point x="37.74170350664548" y="460.6704742093901" type="line" smooth="yes"/>
      <point x="28.923759579716112" y="486.1899543158015"/>
      <point x="43.150994102978615" y="515.4403525664251"/>
      <point x="68.67047420939006" y="524.2582964933545" type="curve" smooth="yes"/>
      <point x="94.18995431580151" y="533.0762404202839"/>
      <point x="123.44035256642516" y="518.8490058970214"/>
    </contour>
  </outline>
</glyph>
<glyph name="x" format="2">
  <advance width="519"/>
  <unicode hex="0078"/>
  <outline>
    <contour>
      <point x="134" y="508" type="curve" smooth="yes"/>
      <point x="472" y="71" type="line" smooth="yes"/>
      <point x="489" y="49"/>
      <point x="485" y="17"/>
      <point x="463" y="0" type="curve" smooth="yes"/>
      <point x="442" y="-16"/>
      <point x="410" y="-12"/>
      <point x="393" y="9" type="curve" smooth="yes"/>
      <point x="55" y="446" type="line" smooth="yes"/>
      <point x="39" y="468"/>
      <point x="43" y="500"/>
      <point x="64" y="517" type="curve" smooth="yes"/>
      <point x="85" y="533"/>
      <point x="118" y="529"/>
    </contour>
    <contour>
      <point x="467" y="446" type="curve" smooth="yes"/>
      <point x="125" y="9" type="line" smooth="yes"/>
      <point x="108" y="-12"/>
      <point x="76" y="-16"/>
      <point x="55" y="1" type="curve" smooth="yes"/>
      <point x="34" y="17"/>
      <point x="30" y="50"/>
      <point x="46" y="71" type="curve" smooth="yes"/>
      <point x="388" y="508" type="line" smooth="yes"/>
      <point x="405" y="529"/>
      <point x="437" y="533"/>
      <point x="459" y="516" type="curve" smooth="yes"/>
      <point x="480" y="500"/>
      <point x="484" y="467"/>
    </contour>
  </outline>
</glyph>
<glyph name="y" format="2">
  <advance width="518"/>
  <unicode hex="0079"/>
  <outline>
    <contour>
      <point x="117" y="498" type="curve" smooth="yes"/>
      <point x="303" y="99" type="line" smooth="yes"/>
      <point x="315" y="75"/>
      <point x="303" y="44"/>
      <point x="279" y="33" type="curve" smooth="yes"/>
      <point x="254" y="21"/>
      <point x="224" y="32"/>
      <point x="212" y="57" type="curve" smooth="yes"/>
      <point x="26" y="456" type="line" smooth="yes"/>
      <point x="15" y="480"/>
      <point x="26" y="511"/>
      <point x="51" y="522" type="curve" smooth="yes"/>
      <point x="75" y="534"/>
      <point x="106" y="523"/>
    </contour>
    <contour>
      <point x="492" y="457" type="curve" smooth="yes"/>
      <point x="224" y="-140" type="line" smooth="yes"/>
      <point x="213" y="-165"/>
      <point x="183" y="-177"/>
      <point x="158" y="-166" type="curve" smooth="yes"/>
      <point x="134" y="-155"/>
      <point x="122" y="-124"/>
      <point x="133" y="-100" type="curve" smooth="yes"/>
      <point x="401" y="497" type="line" smooth="yes"/>
      <point x="412" y="522"/>
      <point x="443" y="534"/>
      <point x="467" y="523" type="curve" smooth="yes"/>
      <point x="492" y="512"/>
      <point x="503" y="481"/>
    </contour>
  </outline>
</glyph>
<glyph name="z" format="2">
  <advance width="490"/>
  <unicode hex="007A"/>
  <outline>
    <contour>
      <point x="90.0" y="520.0" type="curve" smooth="yes"/>
      <point x="400.0" y="520.0" type="line" smooth="yes"/>
      <point x="427.61423749153965" y="520.0"/>
      <point x="450.0" y="497.61423749153965"/>
      <point x="450.0" y="470.0" type="curve" smooth="yes"/>
      <point x="450.0" y="440.0" type="line" smooth="yes"/>
      <point x="450.0" y="428.1423402974355"/>
      <point x="445.7858438723372" y="416.67060664055344"/>
      <point x="438.1098437087692" y="407.6327354802234" type="curve" smooth="yes"/>
      <point x="128.10984370876915" y="42.63273548022342" type="line"/>
      <point x="140.0" y="74.99999999999999" type="line"/>
      <point x="140.0" y="44.999999999999986" type="line"/>
      <point x="90.0" y="95.0" type="line"/>
      <point x="400.0" y="95.0" type="line" smooth="yes"/>
      <point x="427.0" y="95.0"/>
      <point x="450.0" y="72.0"/>
      <point x="450.0" y="45.0" type="curve" smooth="yes"/>
      <point x="450.0" y="18.0"/>
      <point x="427.0" y="-5.0000000000000036"/>
      <point x="400.0" y="-5.0" type="curve" smooth="yes"/>
      <point x="90.0" y="-5.0" type="line" smooth="yes"/>
      <point x="62.38576250846033" y="-4.9999999999999964"/>
      <point x="39.99999999999999" y="17.38576250846035"/>
      <point x="40.0" y="45.000000000000014" type="curve"/>
      <point x="40.0" y="75.00000000000001" type="line"/>
      <point x="40.00000000000001" y="86.85765970256446"/>
      <point x="44.214156127662875" y="98.32939335944657"/>
      <point x="51.890156291230845" y="107.36726451977658" type="curve" smooth="yes"/>
      <point x="361.8901562912308" y="472.3672645197766" type="line"/>
      <point x="350.0" y="440.0" type="line"/>
      <point x="350.0" y="470.0" type="line"/>
      <point x="400.0" y="420.0" type="line"/>
      <point x="90.0" y="420.0" type="line" smooth="yes"/>
      <point x="63.0" y="420.0"/>
      <point x="39.99999999999999" y="443.0"/>
      <point x="40.0" y="470.0" type="curve" smooth="yes"/>
      <point x="40.00000000000001" y="497.0"/>
      <point x="63.0" y="520.0"/>
    </contour>
  </outline>
</glyph>
<glyph name="braceleft" format="2">
  <advance width="461"/>
  <unicode hex="007B"/>
  <outline>
    <contour>
      <point x="80.0" y="354.0" type="curve" smooth="yes"/>
      <point x="126.0" y="354.0" type="line" smooth="yes"/>
      <point x="166.64221832357077" y="354.0"/>
      <point x="179.0" y="362.261698471335"/>
      <point x="179.0" y="389.0" type="curve" smooth="yes"/>
      <point x="179.0" y="446.9653325559265"/>
      <point x="121.0" y="532.9841737578312"/>
      <point x="121.0" y="619.0" type="curve" smooth="yes"/>
      <point x="121.0" y="744.6599879791517"/>
      <point x="239.1659540624914" y="816.1001463334745"/>
      <point x="396.5716232153236" y="764.5134144262438" type="curve" smooth="yes"/>
      <point x="422.22886700549526" y="756.104737889969"/>
      <point x="436.92209096251855" y="727.085620574848"/>
      <point x="428.5134144262438" y="701.4283767846763" type="curve" smooth="yes"/>
      <point x="420.10473788996904" y="675.7711329945046"/>
      <point x="391.08562057484806" y="661.0779090374814"/>
      <point x="365.4283767846764" y="669.4865855737562" type="curve" smooth="yes"/>
      <point x="286.947253092009" y="695.2072899772354"/>
      <point x="221.0" y="681.6529979059108"/>
      <point x="221.0" y="619.0" type="curve" smooth="yes"/>
      <point x="221.0" y="557.7050211312413"/>
      <point x="279.0" y="470.3432815988356"/>
      <point x="279.0" y="389.0" type="curve" smooth="yes"/>
      <point x="279.0" y="316.847550496876"/>
      <point x="235.67172324474828" y="254.0"/>
      <point x="126.0" y="254.0" type="curve" smooth="yes"/>
      <point x="80.0" y="254.0" type="line" smooth="yes"/>
      <point x="53.0" y="254.0"/>
      <point x="29.999999999999996" y="277.0"/>
      <point x="30.0" y="304.0" type="curve" smooth="yes"/>
      <point x="30.000000000000004" y="331.0"/>
      <point x="53.0" y="354.0"/>
    </contour>
    <contour>
      <point x="80.0" y="354.0" type="curve" smooth="yes"/>
      <point x="126.0" y="354.0" type="line" smooth="yes"/>
      <point x="235.72655910637064" y="354.0"/>
      <point x="279.0" y="292.1885257278756"/>
      <point x="279.0" y="220.0" type="curve" smooth="yes"/>
      <point x="279.0" y="138.57423181557672"/>
      <point x="221.0" y="50.39570936960182"/>
      <point x="221.0" y="-10.000000000000012" type="curve" smooth="yes"/>
      <point x="221.0" y="-73.50277349079492"/>
      <point x="286.3522010748159" y="-87.06530157997841"/>
      <point x="365.0691807144472" y="-60.60581262548054" type="curve" smooth="yes"/>
      <point x="390.6620418966877" y="-52.00317021128204"/>
      <point x="419.79154496032095" y="-66.4763195322067"/>
      <point x="428.39418737451945" y="-92.06918071444721" type="curve" smooth="yes"/>
      <point x="436.99682978871795" y="-117.66204189668773"/>
      <point x="422.52368046779327" y="-146.79154496032095"/>
      <point x="396.9308192855528" y="-155.39418737451945" type="curve" smooth="yes"/>
      <point x="239.68243782627525" y="-208.25078618436066"/>
      <point x="121.0" y="-136.85583714361888"/>
      <point x="121.0" y="-9.999999999999988" type="curve" smooth="yes"/>
      <point x="121.0" y="74.92238598918443"/>
      <point x="179.0" y="162.0926182852963"/>
      <point x="179.0" y="220.0" type="curve" smooth="yes"/>
      <point x="179.0" y="246.5259226696175"/>
      <point x="166.31940245781863" y="254.0"/>
      <point x="126.0" y="254.0" type="curve" smooth="yes"/>
      <point x="80.0" y="254.0" type="line" smooth="yes"/>
      <point x="53.0" y="254.0"/>
      <point x="29.999999999999996" y="277.0"/>
      <point x="30.0" y="304.0" type="curve" smooth="yes"/>
      <point x="30.000000000000004" y="331.0"/>
      <point x="53.0" y="354.0"/>
    </contour>
  </outline>
</glyph>
<glyph name="bar" format="2">
  <advance width="315"/>
  <unicode hex="007C"/>
  <outline>
    <contour>
      <point x="208.0" y="730.0" type="curve" smooth="yes"/>
      <point x="208.0" y="-120.00000000000001" type="line" smooth="yes"/>
      <point x="208.0" y="-147.0"/>
      <point x="184.99999999999997" y="-170.0"/>
      <point x="157.99999999999997" y="-170.0" type="curve" smooth="yes"/>
      <point x="130.99999999999997" y="-170.0"/>
      <point x="107.99999999999999" y="-147.0"/>
      <point x="108.0" y="-119.99999999999999" type="curve" smooth="yes"/>
      <point x="108.0" y="730.0" type="line" smooth="yes"/>
      <point x="108.00000000000001" y="757.0"/>
      <point x="131.00000000000003" y="780.0"/>
      <point x="158.00000000000003" y="780.0" type="curve" smooth="yes"/>
      <point x="185.00000000000003" y="780.0"/>
      <point x="208.0" y="757.0"/>
    </contour>
  </outline>
</glyph>
<glyph name="exclamdown" format="2">
  <advance width="261"/>
  <unicode hex="00A1"/>
  <outline>
    <contour>
      <point x="182" y="295" type="curve" smooth="yes"/>
      <point x="182" y="-60" type="line" smooth="yes"/>
      <point x="182" y="-87"/>
      <point x="159" y="-110"/>
      <point x="132" y="-110" type="curve" smooth="yes"/>
      <point x="105" y="-110"/>
      <point x="82" y="-87"/>
      <point x="82" y="-60" type="curve" smooth="yes"/>
      <point x="82" y="295" type="line" smooth="yes"/>
      <point x="82" y="322"/>
      <point x="105" y="345"/>
      <point x="132" y="345" type="curve" smooth="yes"/>
      <point x="159" y="345"/>
      <point x="182" y="322"/>
    </contour>
    <contour>
      <point x="133" y="447" type="curve" smooth="yes"/>
      <point x="42" y="460"/>
      <point x="42" y="576"/>
      <point x="133" y="589" type="curve" smooth="yes"/>
      <point x="160" y="593"/>
      <point x="186" y="574"/>
      <point x="190" y="547" type="curve" smooth="yes"/>
      <point x="194" y="521"/>
      <point x="174" y="494"/>
      <point x="147" y="491" type="curve" smooth="yes"/>
      <point x="145" y="490"/>
      <point x="145" y="546"/>
      <point x="147" y="545" type="curve" smooth="yes"/>
      <point x="174" y="542"/>
      <point x="194" y="515"/>
      <point x="190" y="489" type="curve" smooth="yes"/>
      <point x="186" y="462"/>
      <point x="160" y="443"/>
    </contour>
  </outline>
</glyph>
<glyph name="currency" format="2">
  <advance width="646"/>
  <unicode hex="00A4"/>
  <outline>
    <contour>
      <point x="322.0" y="224.0" type="curve" smooth="yes"/>
      <point x="392.6562421434956" y="224.0"/>
      <point x="440.0" y="271.90179373112693"/>
      <point x="440.0" y="344.0" type="curve" smooth="yes"/>
      <point x="440.0" y="416.06215716573865"/>
      <point x="392.62091402242385" y="462.0"/>
      <point x="322.0" y="462.0" type="curve" smooth="yes"/>
      <point x="251.37908597757612" y="462.0"/>
      <point x="207.0" y="416.06215716573865"/>
      <point x="207.0" y="344.0" type="curve" smooth="yes"/>
      <point x="207.0" y="271.93784283426135"/>
      <point x="251.37908597757612" y="224.0"/>
    </contour>
    <contour>
      <point x="165.64466094067262" y="429.6446609406726" type="curve" smooth="yes"/>
      <point x="64.64466094067262" y="530.6446609406727" type="line" smooth="yes"/>
      <point x="45.55277784863584" y="549.7365440327095"/>
      <point x="45.552777848635834" y="582.2634559672906"/>
      <point x="64.64466094067262" y="601.3553390593274" type="curve" smooth="yes"/>
      <point x="83.73654403270942" y="620.4472221513643"/>
      <point x="116.2634559672906" y="620.4472221513641"/>
      <point x="135.35533905932738" y="601.3553390593273" type="curve" smooth="yes"/>
      <point x="236.35533905932738" y="500.3553390593274" type="line" smooth="yes"/>
      <point x="255.44722215136417" y="481.2634559672906"/>
      <point x="255.44722215136417" y="448.7365440327094"/>
      <point x="236.35533905932738" y="429.6446609406726" type="curve" smooth="yes"/>
      <point x="217.26345596729058" y="410.55277784863586"/>
      <point x="184.73654403270942" y="410.55277784863586"/>
    </contour>
    <contour>
      <point x="322.0" y="124.0" type="curve" smooth="yes"/>
      <point x="196.65346636354994" y="124.0"/>
      <point x="107.0" y="216.09537384035715"/>
      <point x="107.0" y="344.0" type="curve" smooth="yes"/>
      <point x="107.0" y="471.90462615964293"/>
      <point x="196.65346636354994" y="562.0"/>
      <point x="322.0" y="562.0" type="curve" smooth="yes"/>
      <point x="447.34653363645003" y="562.0"/>
      <point x="540.0" y="471.90462615964293"/>
      <point x="540.0" y="344.0" type="curve" smooth="yes"/>
      <point x="540.0" y="216.09537384035715"/>
      <point x="447.34653363645003" y="124.0"/>
    </contour>
    <contour>
      <point x="582.3553390593273" y="530.6446609406726" type="curve" smooth="yes"/>
      <point x="481.3553390593274" y="429.6446609406726" type="line" smooth="yes"/>
      <point x="462.2634559672906" y="410.55277784863586"/>
      <point x="429.7365440327094" y="410.55277784863586"/>
      <point x="410.6446609406726" y="429.6446609406726" type="curve" smooth="yes"/>
      <point x="391.55277784863586" y="448.7365440327094"/>
      <point x="391.55277784863586" y="481.2634559672906"/>
      <point x="410.6446609406726" y="500.3553390593274" type="curve" smooth="yes"/>
      <point x="511.6446609406726" y="601.3553390593274" type="line" smooth="yes"/>
      <point x="530.7365440327094" y="620.4472221513643"/>
      <point x="563.2634559672905" y="620.4472221513643"/>
      <point x="582.3553390593273" y="601.3553390593274" type="curve" smooth="yes"/>
      <point x="601.4472221513641" y="582.2634559672906"/>
      <point x="601.4472221513641" y="549.7365440327094"/>
    </contour>
    <contour>
      <point x="64.64466094067262" y="155.35533905932738" type="curve" smooth="yes"/>
      <point x="165.64466094067262" y="256.3553390593274" type="line" smooth="yes"/>
      <point x="184.73654403270942" y="275.44722215136414"/>
      <point x="217.2634559672906" y="275.44722215136414"/>
      <point x="236.35533905932738" y="256.3553390593274" type="curve" smooth="yes"/>
      <point x="255.44722215136414" y="237.26345596729058"/>
      <point x="255.44722215136417" y="204.7365440327094"/>
      <point x="236.35533905932738" y="185.64466094067262" type="curve" smooth="yes"/>
      <point x="135.35533905932738" y="84.64466094067262" type="line" smooth="yes"/>
      <point x="116.26345596729058" y="65.55277784863584"/>
      <point x="83.7365440327094" y="65.55277784863583"/>
      <point x="64.64466094067262" y="84.64466094067262" type="curve" smooth="yes"/>
      <point x="45.55277784863584" y="103.73654403270942"/>
      <point x="45.552777848635834" y="136.2634559672906"/>
    </contour>
    <contour>
      <point x="481.3553390593274" y="256.3553390593274" type="curve" smooth="yes"/>
      <point x="582.3553390593274" y="155.35533905932738" type="line" smooth="yes"/>
      <point x="601.4472221513643" y="136.2634559672906"/>
      <point x="601.4472221513643" y="103.73654403270943"/>
      <point x="582.3553390593274" y="84.64466094067265" type="curve" smooth="yes"/>
      <point x="563.2634559672906" y="65.55277784863587"/>
      <point x="530.7365440327094" y="65.55277784863586"/>
      <point x="511.6446609406726" y="84.64466094067262" type="curve" smooth="yes"/>
      <point x="410.6446609406726" y="185.64466094067262" type="line" smooth="yes"/>
      <point x="391.55277784863586" y="204.7365440327094"/>
      <point x="391.55277784863586" y="237.26345596729058"/>
      <point x="410.6446609406726" y="256.3553390593274" type="curve" smooth="yes"/>
      <point x="429.7365440327094" y="275.44722215136414"/>
      <point x="462.2634559672906" y="275.44722215136414"/>
    </contour>
  </outline>
</glyph>
<glyph name="dieresis" format="2">
  <advance width="577"/>
  <unicode hex="00A8"/>
  <anchor x="0" y="497.0" name="top"/>
  <anchor x="288" y="497.0" name="center"/>
  <outline>
    <contour>
      <point x="183.0" y="587.0" type="curve" smooth="yes"/>
      <point x="92.0" y="600.0"/>
      <point x="92.0" y="716.0"/>
      <point x="183.0" y="729.0" type="curve" smooth="yes"/>
      <point x="209.0" y="733.0"/>
      <point x="236.0" y="714.0"/>
      <point x="239.0" y="687.0" type="curve" smooth="yes"/>
      <point x="243.0" y="661.0"/>
      <point x="224.0" y="634.0"/>
      <point x="197.0" y="631.0" type="curve" smooth="yes"/>
      <point x="195.0" y="630.0"/>
      <point x="195.0" y="686.0"/>
      <point x="197.0" y="685.0" type="curve" smooth="yes"/>
      <point x="224.0" y="682.0"/>
      <point x="243.0" y="655.0"/>
      <point x="239.0" y="629.0" type="curve" smooth="yes"/>
      <point x="236.0" y="602.0"/>
      <point x="209.0" y="583.0"/>
    </contour>
    <contour>
      <point x="403.0" y="587.0" type="curve" smooth="yes"/>
      <point x="312.0" y="600.0"/>
      <point x="312.0" y="716.0"/>
      <point x="403.0" y="729.0" type="curve" smooth="yes"/>
      <point x="429.0" y="733.0"/>
      <point x="456.0" y="714.0"/>
      <point x="459.0" y="687.0" type="curve" smooth="yes"/>
      <point x="463.0" y="661.0"/>
      <point x="444.0" y="634.0"/>
      <point x="417.0" y="631.0" type="curve" smooth="yes"/>
      <point x="415.0" y="630.0"/>
      <point x="415.0" y="686.0"/>
      <point x="417.0" y="685.0" type="curve" smooth="yes"/>
      <point x="444.0" y="682.0"/>
      <point x="463.0" y="655.0"/>
      <point x="459.0" y="629.0" type="curve" smooth="yes"/>
      <point x="456.0" y="602.0"/>
      <point x="429.0" y="583.0"/>
    </contour>
  </outline>
</glyph>
<glyph name="copyright" format="2">
  <advance width="803"/>
  <unicode hex="00A9"/>
  <outline>
    <contour>
      <point x="406.0" y="86.0" type="curve" smooth="yes"/>
      <point x="554.3721260179884" y="86.0"/>
      <point x="651.0" y="191.62787398201152"/>
      <point x="651.0" y="340.0" type="curve" smooth="yes"/>
      <point x="651.0" y="488.37212601798853"/>
      <point x="554.3721260179884" y="594.0"/>
      <point x="406.0" y="594.0" type="curve" smooth="yes"/>
      <point x="256.7122522272454" y="594.0"/>
      <point x="152.0" y="488.44431416951875"/>
      <point x="152.0" y="340.0" type="curve" smooth="yes"/>
      <point x="152.0" y="191.5556858304813"/>
      <point x="256.7122522272454" y="86.0"/>
    </contour>
    <contour>
      <point x="406.0" y="-14.0" type="curve" smooth="yes"/>
      <point x="201.30794406359365" y="-14.0"/>
      <point x="52.0" y="136.46439635701964"/>
      <point x="52.0" y="340.0" type="curve" smooth="yes"/>
      <point x="52.0" y="543.5356036429803"/>
      <point x="201.30794406359365" y="694.0"/>
      <point x="406.0" y="694.0" type="curve" smooth="yes"/>
      <point x="609.6373714448017" y="694.0"/>
      <point x="751.0" y="543.6373714448017"/>
      <point x="751.0" y="340.0" type="curve" smooth="yes"/>
      <point x="751.0" y="136.36262855519814"/>
      <point x="609.6373714448017" y="-14.0"/>
    </contour>
    <contour>
      <point x="455.6930766973276" y="402.30942256898715" type="curve" smooth="yes"/>
      <point x="398.80094422536666" y="427.59481477874766"/>
      <point x="350.0" y="402.581345719157"/>
      <point x="350.0" y="340.0" type="curve" smooth="yes"/>
      <point x="350.0" y="277.418654280843"/>
      <point x="398.80094422536666" y="252.40518522125248"/>
      <point x="455.6930766973276" y="277.69057743101285" type="curve" smooth="yes"/>
      <point x="480.36598851007454" y="288.6563160144559"/>
      <point x="510.72483884756974" y="276.9798351154193"/>
      <point x="521.6905774310128" y="252.30692330267237" type="curve" smooth="yes"/>
      <point x="532.6563160144559" y="227.63401148992543"/>
      <point x="520.9798351154193" y="197.27516115243023"/>
      <point x="496.3069233026724" y="186.30942256898715" type="curve" smooth="yes"/>
      <point x="373.296964415359" y="131.63832973018123"/>
      <point x="250.0" y="204.68904522395528"/>
      <point x="250.0" y="340.0" type="curve" smooth="yes"/>
      <point x="250.0" y="475.31095477604475"/>
      <point x="373.296964415359" y="548.3616702698189"/>
      <point x="496.3069233026724" y="493.69057743101285" type="curve" smooth="yes"/>
      <point x="520.9798351154193" y="482.7248388475698"/>
      <point x="532.6563160144559" y="452.3659885100746"/>
      <point x="521.6905774310128" y="427.6930766973276" type="curve" smooth="yes"/>
      <point x="510.72483884756974" y="403.02016488458065"/>
      <point x="480.3659885100746" y="391.3436839855441"/>
    </contour>
  </outline>
</glyph>
<glyph name="ordfeminine" format="2">
  <advance width="495"/>
  <unicode hex="00AA"/>
  <outline>
    <contour>
      <point x="247.0" y="300.0" type="curve" smooth="yes"/>
      <point x="137.99054203342558" y="300.0"/>
      <point x="56.0" y="383.67300749847084"/>
      <point x="56.0" y="498.0" type="curve" smooth="yes"/>
      <point x="56.0" y="612.4413480757788"/>
      <point x="138.21221867281292" y="695.0"/>
      <point x="246.0" y="695.0" type="curve" smooth="yes"/>
      <point x="352.61683343554307" y="695.0"/>
      <point x="436.0" y="612.6130959432088"/>
      <point x="436.0" y="498.0" type="curve" smooth="yes"/>
      <point x="436.0" y="383.5014312501833"/>
      <point x="354.8416752178507" y="300.0"/>
    </contour>
    <contour>
      <point x="399.0" y="128.0" type="curve" smooth="yes"/>
      <point x="105.99999999999999" y="128.0" type="line" smooth="yes"/>
      <point x="78.99999999999999" y="128.0"/>
      <point x="55.99999999999999" y="151.0"/>
      <point x="56.0" y="178.0" type="curve" smooth="yes"/>
      <point x="56.00000000000001" y="205.0"/>
      <point x="79.00000000000001" y="228.0"/>
      <point x="106.00000000000001" y="228.0" type="curve" smooth="yes"/>
      <point x="399.0" y="228.0" type="line" smooth="yes"/>
      <point x="426.0" y="228.0"/>
      <point x="449.0" y="204.99999999999997"/>
      <point x="449.0" y="177.99999999999997" type="curve" smooth="yes"/>
      <point x="449.0" y="150.99999999999997"/>
      <point x="426.0" y="127.99999999999999"/>
    </contour>
    <contour>
      <point x="336.0" y="354.0" type="curve" smooth="yes"/>
      <point x="336.0" y="642.0" type="line" smooth="yes"/>
      <point x="336.0" y="669.0"/>
      <point x="359.0" y="692.0"/>
      <point x="386.0" y="692.0" type="curve" smooth="yes"/>
      <point x="413.0" y="692.0"/>
      <point x="436.0" y="669.0"/>
      <point x="436.0" y="642.0" type="curve" smooth="yes"/>
      <point x="436.0" y="354.0" type="line" smooth="yes"/>
      <point x="436.0" y="327.0"/>
      <point x="413.0" y="304.0"/>
      <point x="386.0" y="304.0" type="curve" smooth="yes"/>
      <point x="359.0" y="304.0"/>
      <point x="336.0" y="327.0"/>
    </contour>
    <contour>
      <point x="247.0" y="400.0" type="curve" smooth="yes"/>
      <point x="301.08608842939515" y="400.0"/>
      <point x="336.0" y="440.5752641366915"/>
      <point x="336.0" y="498.0" type="curve" smooth="yes"/>
      <point x="336.0" y="555.3107581623755"/>
      <point x="299.3123331743028" y="595.0"/>
      <point x="246.0" y="595.0" type="curve" smooth="yes"/>
      <point x="191.8597848905493" y="595.0"/>
      <point x="156.0" y="555.4822036964538"/>
      <point x="156.0" y="498.0" type="curve" smooth="yes"/>
      <point x="156.0" y="440.34583788895276"/>
      <point x="192.02742682435044" y="400.0"/>
    </contour>
  </outline>
</glyph>
<glyph name="guillemetleft" format="2">
  <advance width="637"/>
  <unicode hex="00AB"/>
  <outline>
    <contour>
      <point x="312.26526219995714" y="422.5548129929002" type="curve" smooth="yes"/>
      <point x="115.26526219995714" y="226.55481299290022" type="line"/>
      <point x="115.44473266029199" y="297.2657188589773" type="line"/>
      <point x="312.444732660292" y="99.26571885897735" type="line" smooth="yes"/>
      <point x="331.4882208441398" y="80.12556322241967"/>
      <point x="331.405874495535" y="47.59875552355578"/>
      <point x="312.2657188589773" y="28.55526733970801" type="curve" smooth="yes"/>
      <point x="293.12556322241966" y="9.511779155860243"/>
      <point x="260.5987555235558" y="9.59412550446498"/>
      <point x="241.555267339708" y="28.734281141022656" type="curve" smooth="yes"/>
      <point x="44.55526733970801" y="226.73428114102265" type="line" smooth="yes"/>
      <point x="25.078371187223784" y="246.3100447866667"/>
      <point x="25.158723223299738" y="277.9685430627259"/>
      <point x="44.734737800042865" y="297.4451870070998" type="curve" smooth="yes"/>
      <point x="241.73473780004286" y="493.4451870070998" type="line" smooth="yes"/>
      <point x="260.8751387838767" y="512.4884285950767"/>
      <point x="293.4019454191228" y="512.405663183791"/>
      <point x="312.44518700709966" y="493.2652621999572" type="curve" smooth="yes"/>
      <point x="331.4884285950765" y="474.12486121612335"/>
      <point x="331.405663183791" y="441.59805458087715"/>
    </contour>
    <contour>
      <point x="572.2652621999571" y="422.5548129929002" type="curve" smooth="yes"/>
      <point x="375.26526219995714" y="226.55481299290022" type="line"/>
      <point x="375.444732660292" y="297.2657188589773" type="line"/>
      <point x="572.444732660292" y="99.26571885897735" type="line" smooth="yes"/>
      <point x="591.4882208441397" y="80.12556322241967"/>
      <point x="591.405874495535" y="47.59875552355578"/>
      <point x="572.2657188589774" y="28.55526733970801" type="curve" smooth="yes"/>
      <point x="553.1255632224197" y="9.511779155860243"/>
      <point x="520.5987555235557" y="9.59412550446498"/>
      <point x="501.555267339708" y="28.734281141022656" type="curve" smooth="yes"/>
      <point x="304.555267339708" y="226.73428114102265" type="line" smooth="yes"/>
      <point x="285.0783711872237" y="246.31004478666682"/>
      <point x="285.15872322329966" y="277.9685430627258"/>
      <point x="304.73473780004286" y="297.4451870070998" type="curve" smooth="yes"/>
      <point x="501.73473780004286" y="493.4451870070998" type="line" smooth="yes"/>
      <point x="520.8751387838767" y="512.4884285950767"/>
      <point x="553.4019454191227" y="512.405663183791"/>
      <point x="572.4451870070997" y="493.2652621999572" type="curve" smooth="yes"/>
      <point x="591.4884285950766" y="474.12486121612335"/>
      <point x="591.4056631837909" y="441.59805458087715"/>
    </contour>
  </outline>
</glyph>
<glyph name="plusminus" format="2">
  <advance width="540"/>
  <unicode hex="00B1"/>
  <outline>
    <contour>
      <point x="320.0" y="554.0" type="curve" smooth="yes"/>
      <point x="320.0" y="224.0" type="line" smooth="yes"/>
      <point x="320.0" y="197.0"/>
      <point x="297.0" y="174.0"/>
      <point x="270.0" y="174.0" type="curve" smooth="yes"/>
      <point x="243.0" y="174.0"/>
      <point x="220.0" y="197.0"/>
      <point x="220.0" y="224.0" type="curve" smooth="yes"/>
      <point x="220.0" y="554.0" type="line" smooth="yes"/>
      <point x="220.0" y="581.0"/>
      <point x="243.0" y="604.0"/>
      <point x="270.0" y="604.0" type="curve" smooth="yes"/>
      <point x="297.0" y="604.0"/>
      <point x="320.0" y="581.0"/>
    </contour>
    <contour>
      <point x="460.0" y="328.0" type="curve" smooth="yes"/>
      <point x="79.99999999999999" y="328.0" type="line" smooth="yes"/>
      <point x="52.999999999999986" y="328.0"/>
      <point x="29.999999999999996" y="351.0"/>
      <point x="30.0" y="378.0" type="curve" smooth="yes"/>
      <point x="30.000000000000004" y="405.0"/>
      <point x="53.000000000000014" y="428.0"/>
      <point x="80.00000000000001" y="428.0" type="curve" smooth="yes"/>
      <point x="460.0" y="428.0" type="line" smooth="yes"/>
      <point x="487.0" y="428.0"/>
      <point x="510.0" y="405.0"/>
      <point x="510.0" y="378.0" type="curve" smooth="yes"/>
      <point x="510.0" y="351.0"/>
      <point x="487.0" y="328.0"/>
    </contour>
    <contour>
      <point x="460.0" y="28.0" type="curve" smooth="yes"/>
      <point x="79.99999999999999" y="28.0" type="line" smooth="yes"/>
      <point x="52.999999999999986" y="28.000000000000007"/>
      <point x="29.999999999999996" y="51.0"/>
      <point x="30.0" y="78.0" type="curve" smooth="yes"/>
      <point x="30.000000000000004" y="105.0"/>
      <point x="53.000000000000014" y="128.0"/>
      <point x="80.00000000000001" y="128.0" type="curve" smooth="yes"/>
      <point x="460.0" y="128.0" type="line" smooth="yes"/>
      <point x="487.0" y="127.99999999999999"/>
      <point x="510.0" y="104.99999999999999"/>
      <point x="510.0" y="77.99999999999999" type="curve" smooth="yes"/>
      <point x="510.0" y="50.999999999999986"/>
      <point x="487.0" y="27.99999999999999"/>
    </contour>
  </outline>
</glyph>
<glyph name="twosuperior" format="2">
  <advance width="431"/>
  <unicode hex="00B2"/>
  <outline>
    <contour>
      <point x="332.0" y="270.0" type="curve" smooth="yes"/>
      <point x="106.99999999999999" y="270.0" type="line" smooth="yes"/>
      <point x="60.32816725717628" y="270.0"/>
      <point x="39.10502747503295" y="328.2784465576628"/>
      <point x="74.84725120645155" y="358.2910008359532" type="curve" smooth="yes"/>
      <point x="205.84725120645155" y="468.2910008359532" type="line" smooth="yes"/>
      <point x="238.4918024111443" y="495.9137803706853"/>
      <point x="268.0" y="528.4083141366601"/>
      <point x="268.0" y="553.0" type="curve" smooth="yes"/>
      <point x="268.0" y="600.5856350274217"/>
      <point x="190.16060752714145" y="607.8749540038082"/>
      <point x="138.65615549746124" y="577.0842489860647" type="curve" smooth="yes"/>
      <point x="115.48164994993618" y="563.2299250174357"/>
      <point x="83.9385729546938" y="571.1693389550136"/>
      <point x="70.08424898606472" y="594.3438445025387" type="curve" smooth="yes"/>
      <point x="56.22992501743565" y="617.5183500500638"/>
      <point x="64.1693389550137" y="649.0614270453062"/>
      <point x="87.34384450253876" y="662.9157510139353" type="curve" smooth="yes"/>
      <point x="217.79462756272235" y="740.9026321912193"/>
      <point x="368.0" y="673.5251800012567"/>
      <point x="368.0" y="553.0" type="curve" smooth="yes"/>
      <point x="368.0" y="501.4905708749673"/>
      <point x="338.97635090668564" y="449.9438878213247"/>
      <point x="270.1527487935485" y="391.7089991640468" type="curve" smooth="yes"/>
      <point x="139.15274879354845" y="281.7089991640468" type="line"/>
      <point x="107.00000000000001" y="370.0" type="line"/>
      <point x="332.0" y="370.0" type="line" smooth="yes"/>
      <point x="359.0" y="370.0"/>
      <point x="382.0" y="347.0"/>
      <point x="382.0" y="320.0" type="curve" smooth="yes"/>
      <point x="382.0" y="293.0"/>
      <point x="359.0" y="270.0"/>
    </contour>
  </outline>
</glyph>
<glyph name="acute" format="2">
  <advance width="408"/>
  <unicode hex="00B4"/>
  <outline>
    <contour>
      <point x="293.53396141999406" y="720.7254723077821" type="curve" smooth="yes"/>
      <point x="202.53396141999406" y="594.7254723077821" type="line" smooth="yes"/>
      <point x="186.7257164661964" y="572.8371331409853"/>
      <point x="154.61381147457888" y="567.6577936262083"/>
      <point x="132.7254723077821" y="583.4660385800059" type="curve" smooth="yes"/>
      <point x="110.8371331409853" y="599.2742835338036"/>
      <point x="105.65779362620827" y="631.3861885254212"/>
      <point x="121.46603858000594" y="653.2745276922179" type="curve" smooth="yes"/>
      <point x="212.46603858000594" y="779.2745276922179" type="line" smooth="yes"/>
      <point x="228.2742835338036" y="801.1628668590147"/>
      <point x="260.3861885254211" y="806.3422063737918"/>
      <point x="282.27452769221793" y="790.5339614199941" type="curve" smooth="yes"/>
      <point x="304.16286685901474" y="774.7257164661963"/>
      <point x="309.3422063737917" y="742.6138114745788"/>
    </contour>
  </outline>
</glyph>
<glyph name="cedilla" format="2">
  <advance width="416"/>
  <unicode hex="00B8"/>
  <outline>
    <contour>
      <point x="234.0" y="27.99999999999999" type="curve" smooth="yes"/>
      <point x="234.0" y="-68.00000000000001" type="line"/>
      <point x="186.08152723560897" y="-18.043346345382403" type="line"/>
      <point x="291.87208021202656" y="-22.451286052733135"/>
      <point x="356.0" y="-72.12639850347041"/>
      <point x="356.0" y="-150.0" type="curve" smooth="yes"/>
      <point x="356.0" y="-251.73530904020717"/>
      <point x="240.3339021733076" y="-313.4366007397124"/>
      <point x="82.07897699965196" y="-252.67801339625538" type="curve" smooth="yes"/>
      <point x="56.87284976567404" y="-243.00066097606745"/>
      <point x="43.64463418355666" y="-213.2851042336299"/>
      <point x="53.321986603744605" y="-188.078976999652" type="curve" smooth="yes"/>
      <point x="62.99933902393255" y="-162.87284976567412"/>
      <point x="92.71489576637012" y="-149.6446341835567"/>
      <point x="117.92102300034804" y="-159.32198660374462" type="curve" smooth="yes"/>
      <point x="174.1716885998153" y="-180.9182242892544"/>
      <point x="256.0" y="-186.16114217108608"/>
      <point x="256.0" y="-150.0" type="curve" smooth="yes"/>
      <point x="256.0" y="-126.66193731163703"/>
      <point x="213.62301075612936" y="-119.27767607094003"/>
      <point x="181.91847276439103" y="-117.9566536546176" type="curve" smooth="yes"/>
      <point x="155.1371326296746" y="-116.84076448233776"/>
      <point x="134.0" y="-94.80457774441118"/>
      <point x="134.0" y="-67.99999999999999" type="curve" smooth="yes"/>
      <point x="134.0" y="28.00000000000001" type="line" smooth="yes"/>
      <point x="134.0" y="55.000000000000014"/>
      <point x="157.00000000000003" y="78.00000000000001"/>
      <point x="184.00000000000003" y="78.0" type="curve" smooth="yes"/>
      <point x="211.00000000000003" y="77.99999999999999"/>
      <point x="234.0" y="54.999999999999986"/>
    </contour>
  </outline>
</glyph>
<glyph name="onesuperior" format="2">
  <advance width="338"/>
  <unicode hex="00B9"/>
  <outline>
    <contour>
      <point x="69.76675531141558" y="665.9416050323604" type="curve" smooth="yes"/>
      <point x="179.76675531141558" y="688.9416050323604" type="line" smooth="yes"/>
      <point x="210.8255982174118" y="695.4357267308868"/>
      <point x="240.0" y="671.7305111729172"/>
      <point x="240.0" y="640.0" type="curve" smooth="yes"/>
      <point x="240.0" y="311.0" type="line" smooth="yes"/>
      <point x="240.0" y="284.0"/>
      <point x="216.99999999999997" y="261.0"/>
      <point x="189.99999999999997" y="261.0" type="curve" smooth="yes"/>
      <point x="162.99999999999997" y="261.0"/>
      <point x="140.0" y="284.0"/>
      <point x="140.0" y="311.0" type="curve" smooth="yes"/>
      <point x="140.0" y="640.0" type="line"/>
      <point x="200.23324468858442" y="591.0583949676396" type="line"/>
      <point x="90.23324468858442" y="568.0583949676396" type="line" smooth="yes"/>
      <point x="63.80477797110984" y="562.5324428358041"/>
      <point x="36.58434709947526" y="580.3382885939409"/>
      <point x="31.058394967639664" y="606.7667553114155" type="curve" smooth="yes"/>
      <point x="25.532442835804073" y="633.1952220288902"/>
      <point x="43.338288593941" y="660.4156529005248"/>
    </contour>
  </outline>
</glyph>
<glyph name="guillemetright" format="2">
  <advance width="727"/>
  <unicode hex="00BB"/>
  <outline>
    <contour>
      <point x="378.1349252496403" y="103.53072814201659" type="curve" smooth="yes"/>
      <point x="615.1349252496403" y="299.5307281420166" type="line"/>
      <point x="614.9430298574963" y="222.62877816276074" type="line"/>
      <point x="377.9430298574963" y="420.62877816276074" type="line" smooth="yes"/>
      <point x="357.2225700653871" y="437.9395420397127"/>
      <point x="354.3180142858088" y="470.3365103503945"/>
      <point x="371.62877816276074" y="491.0569701425037" type="curve" smooth="yes"/>
      <point x="388.9395420397127" y="511.7774299346129"/>
      <point x="421.3365103503945" y="514.6819857141912"/>
      <point x="442.0569701425037" y="497.37122183723926" type="curve" smooth="yes"/>
      <point x="679.0569701425037" y="299.37122183723926" type="line" smooth="yes"/>
      <point x="703.0588456575373" y="279.3190220398694"/>
      <point x="702.9667242701765" y="242.40143770559567"/>
      <point x="678.8650747503597" y="222.46927185798341" type="curve" smooth="yes"/>
      <point x="441.8650747503597" y="26.469271857983415" type="line" smooth="yes"/>
      <point x="421.0584815536708" y="9.262131492789177"/>
      <point x="388.67641222317764" y="12.328332052951342"/>
      <point x="371.4692718579834" y="33.134925249640304" type="curve" smooth="yes"/>
      <point x="354.2621314927892" y="53.94151844632927"/>
      <point x="357.32833205295134" y="86.32358777682235"/>
    </contour>
    <contour>
      <point x="57.82088953819746" y="103.53072814201659" type="curve" smooth="yes"/>
      <point x="294.82088953819743" y="299.5307281420166" type="line"/>
      <point x="294.62899414605346" y="222.62877816276074" type="line"/>
      <point x="57.62899414605347" y="420.62877816276074" type="line" smooth="yes"/>
      <point x="36.90853435394427" y="437.9395420397127"/>
      <point x="34.0039785743659" y="470.3365103503945"/>
      <point x="51.3147424513179" y="491.0569701425037" type="curve" smooth="yes"/>
      <point x="68.62550632826989" y="511.7774299346129"/>
      <point x="101.02247463895165" y="514.6819857141912"/>
      <point x="121.74293443106085" y="497.37122183723926" type="curve" smooth="yes"/>
      <point x="358.74293443106086" y="299.37122183723926" type="line" smooth="yes"/>
      <point x="382.7448099460947" y="279.31902203986925"/>
      <point x="382.6526885587339" y="242.40143770559587"/>
      <point x="358.5510390389169" y="222.46927185798341" type="curve" smooth="yes"/>
      <point x="121.55103903891685" y="26.469271857983415" type="line" smooth="yes"/>
      <point x="100.74444584222789" y="9.262131492789177"/>
      <point x="68.36237651173481" y="12.328332052951342"/>
      <point x="51.155236146540574" y="33.134925249640304" type="curve" smooth="yes"/>
      <point x="33.94809578134634" y="53.94151844632927"/>
      <point x="37.0142963415085" y="86.32358777682235"/>
    </contour>
  </outline>
</glyph>
<glyph name="questiondown" format="2">
  <advance width="511"/>
  <unicode hex="00BF"/>
  <outline>
    <contour>
      <point x="286" y="447" type="curve" smooth="yes"/>
      <point x="195" y="460"/>
      <point x="195" y="576"/>
      <point x="286" y="589" type="curve" smooth="yes"/>
      <point x="312" y="593"/>
      <point x="339" y="574"/>
      <point x="342" y="547" type="curve" smooth="yes"/>
      <point x="346" y="521"/>
      <point x="327" y="494"/>
      <point x="300" y="491" type="curve" smooth="yes"/>
      <point x="298" y="490"/>
      <point x="298" y="546"/>
      <point x="300" y="545" type="curve" smooth="yes"/>
      <point x="327" y="542"/>
      <point x="346" y="515"/>
      <point x="342" y="489" type="curve" smooth="yes"/>
      <point x="339" y="462"/>
      <point x="312" y="443"/>
    </contour>
    <contour>
      <point x="452" y="-77" type="curve" smooth="yes"/>
      <point x="232" y="-169"/>
      <point x="24" y="-83"/>
      <point x="24" y="62" type="curve" smooth="yes"/>
      <point x="24" y="171"/>
      <point x="115" y="230"/>
      <point x="274" y="266" type="curve"/>
      <point x="235" y="217" type="line"/>
      <point x="235" y="295" type="line" smooth="yes"/>
      <point x="235" y="322"/>
      <point x="258" y="345"/>
      <point x="285" y="345" type="curve" smooth="yes"/>
      <point x="312" y="345"/>
      <point x="335" y="322"/>
      <point x="335" y="295" type="curve" smooth="yes"/>
      <point x="335" y="217" type="line" smooth="yes"/>
      <point x="335" y="194"/>
      <point x="319" y="173"/>
      <point x="296" y="168" type="curve" smooth="yes"/>
      <point x="210" y="149"/>
      <point x="124" y="121"/>
      <point x="124" y="62" type="curve" smooth="yes"/>
      <point x="124" y="-18"/>
      <point x="293" y="-35"/>
      <point x="414" y="15" type="curve" smooth="yes"/>
      <point x="439" y="26"/>
      <point x="469" y="13"/>
      <point x="479" y="-12" type="curve" smooth="yes"/>
      <point x="490" y="-37"/>
      <point x="477" y="-67"/>
    </contour>
  </outline>
</glyph>
<glyph name="multiply" format="2">
  <advance width="517"/>
  <unicode hex="00D7"/>
  <outline>
    <contour>
      <point x="150" y="487" type="curve" smooth="yes"/>
      <point x="438" y="199" type="line" smooth="yes"/>
      <point x="457" y="180"/>
      <point x="457" y="148"/>
      <point x="438" y="129" type="curve" smooth="yes"/>
      <point x="419" y="110"/>
      <point x="386" y="110"/>
      <point x="367" y="129" type="curve" smooth="yes"/>
      <point x="79" y="417" type="line" smooth="yes"/>
      <point x="60" y="436"/>
      <point x="60" y="468"/>
      <point x="79" y="487" type="curve" smooth="yes"/>
      <point x="98" y="506"/>
      <point x="131" y="506"/>
    </contour>
    <contour>
      <point x="438" y="417" type="curve" smooth="yes"/>
      <point x="150" y="129" type="line" smooth="yes"/>
      <point x="131" y="110"/>
      <point x="98" y="110"/>
      <point x="79" y="129" type="curve" smooth="yes"/>
      <point x="60" y="148"/>
      <point x="60" y="180"/>
      <point x="79" y="199" type="curve" smooth="yes"/>
      <point x="367" y="487" type="line" smooth="yes"/>
      <point x="386" y="506"/>
      <point x="419" y="506"/>
      <point x="438" y="487" type="curve" smooth="yes"/>
      <point x="457" y="468"/>
      <point x="457" y="436"/>
    </contour>
  </outline>
</glyph>
<glyph name="Oslash" format="2">
  <advance width="732"/>
  <unicode hex="00D8"/>
  <anchor x="366" y="3" name="below"/>
  <anchor x="356" y="682" name="above"/>
  <outline>
    <contour>
      <point x="364.0" y="85.0" type="curve" smooth="yes"/>
      <point x="500.4559220530544" y="85.0"/>
      <point x="592.0" y="191.14963161044943"/>
      <point x="592.0" y="341.0" type="curve" smooth="yes"/>
      <point x="592.0" y="489.9387088857728"/>
      <point x="500.38769409202786" y="595.0"/>
      <point x="364.0" y="595.0" type="curve" smooth="yes"/>
      <point x="228.6522650209379" y="595.0"/>
      <point x="140.0" y="488.87993266230853"/>
      <point x="140.0" y="341.0" type="curve" smooth="yes"/>
      <point x="140.0" y="191.29944451624687"/>
      <point x="228.5168157074414" y="85.0"/>
    </contour>
    <contour>
      <point x="364.0" y="-15.0" type="curve" smooth="yes"/>
      <point x="175.58558620069914" y="-15.0"/>
      <point x="40.0" y="132.8137032711429"/>
      <point x="40.0" y="341.0" type="curve" smooth="yes"/>
      <point x="40.0" y="546.9631229512188"/>
      <point x="175.4913789937995" y="695.0"/>
      <point x="364.0" y="695.0" type="curve" smooth="yes"/>
      <point x="553.4827243741464" y="695.0"/>
      <point x="692.0" y="547.9197848993746"/>
      <point x="692.0" y="341.0" type="curve" smooth="yes"/>
      <point x="692.0" y="133.02460182532548"/>
      <point x="553.3854184495639" y="-15.0"/>
    </contour>
    <contour>
      <point x="123.94198659682166" y="-5.359114759270145" type="curve" smooth="yes"/>
      <point x="519.9419865968217" y="732.6408852407299" type="line" smooth="yes"/>
      <point x="532.7080646268158" y="756.4322124784461"/>
      <point x="563.8495580030136" y="765.8240914331724"/>
      <point x="587.6408852407299" y="753.0580134031783" type="curve" smooth="yes"/>
      <point x="611.4322124784461" y="740.2919353731842"/>
      <point x="620.8240914331724" y="709.1504419969864"/>
      <point x="608.0580134031783" y="685.3591147592701" type="curve" smooth="yes"/>
      <point x="212.05801340317834" y="-52.64088524072986" type="line" smooth="yes"/>
      <point x="199.2919353731842" y="-76.43221247844616"/>
      <point x="168.15044199698644" y="-85.82409143317247"/>
      <point x="144.35911475927014" y="-73.05801340317834" type="curve" smooth="yes"/>
      <point x="120.56778752155384" y="-60.29193537318421"/>
      <point x="111.17590856682753" y="-29.150441996986444"/>
    </contour>
  </outline>
</glyph>
<glyph name="ae" format="2">
  <advance width="938"/>
  <unicode hex="00E6"/>
  <outline>
    <contour>
      <point x="280.0" y="-16.0" type="curve" smooth="yes"/>
      <point x="139.52245062651602" y="-16.0"/>
      <point x="34.0" y="94.96759937117982"/>
      <point x="34.0" y="249.0" type="curve" smooth="yes"/>
      <point x="34.0" y="403.1115422294858"/>
      <point x="139.68316582454474" y="513.0"/>
      <point x="279.0" y="513.0" type="curve" smooth="yes"/>
      <point x="417.2220603004425" y="513.0"/>
      <point x="524.0" y="403.2656922996008"/>
      <point x="524.0" y="249.0" type="curve" smooth="yes"/>
      <point x="524.0" y="94.81140199939934"/>
      <point x="419.386492592543" y="-16.0"/>
    </contour>
    <contour>
      <point x="424.0" y="40.00000000000001" type="curve" smooth="yes"/>
      <point x="424.0" y="458.0" type="line" smooth="yes"/>
      <point x="424.0" y="485.0"/>
      <point x="447.0" y="508.0"/>
      <point x="474.0" y="508.0" type="curve" smooth="yes"/>
      <point x="501.0" y="508.0"/>
      <point x="524.0" y="485.0"/>
      <point x="524.0" y="458.0" type="curve" smooth="yes"/>
      <point x="524.0" y="39.99999999999999" type="line" smooth="yes"/>
      <point x="524.0" y="12.999999999999993"/>
      <point x="501.0" y="-10.000000000000007"/>
      <point x="474.0" y="-10.0" type="curve" smooth="yes"/>
      <point x="447.0" y="-9.999999999999993"/>
      <point x="424.0" y="13.000000000000007"/>
    </contour>
    <contour>
      <point x="280.0" y="84.0" type="curve" smooth="yes"/>
      <point x="366.532055201403" y="84.0"/>
      <point x="424.0" y="153.27869999844805"/>
      <point x="424.0" y="249.0" type="curve" smooth="yes"/>
      <point x="424.0" y="344.6734393515511"/>
      <point x="364.72340165899" y="413.0"/>
      <point x="279.0" y="413.0" type="curve" smooth="yes"/>
      <point x="192.42465712716063" y="413.0"/>
      <point x="134.0" y="344.7691845938488"/>
      <point x="134.0" y="249.0" type="curve" smooth="yes"/>
      <point x="134.0" y="153.08701785568212"/>
      <point x="192.52736028438204" y="84.0"/>
    </contour>
    <contour>
      <point x="498.0" y="299.0" type="curve" smooth="yes"/>
      <point x="853.0" y="299.0" type="line"/>
      <point x="803.0243961956461" y="250.56173761888607" type="line"/>
      <point x="806.0677108259014" y="347.9478057870568"/>
      <point x="757.2128096471494" y="413.0"/>
      <point x="672.0" y="413.0" type="curve" smooth="yes"/>
      <point x="584.0899970858037" y="413.0"/>
      <point x="524.0" y="347.47710856080084"/>
      <point x="524.0" y="248.0" type="curve" smooth="yes"/>
      <point x="524.0" y="93.07888940664864"/>
      <point x="667.9310728479766" y="39.612540364608066"/>
      <point x="816.3971371666049" y="123.5281419360067" type="curve" smooth="yes"/>
      <point x="839.9023338120486" y="136.81368786604006"/>
      <point x="871.2425960059734" y="128.10805947883873"/>
      <point x="884.5281419360067" y="104.60286283339511" type="curve" smooth="yes"/>
      <point x="897.81368786604" y="81.09766618795149"/>
      <point x="889.1080594788388" y="49.75740399402665"/>
      <point x="865.6028628333951" y="36.47185806399329" type="curve" smooth="yes"/>
      <point x="646.2797327860438" y="-87.49338935407471"/>
      <point x="424.0" y="19.141081689720636"/>
      <point x="424.0" y="248.0" type="curve" smooth="yes"/>
      <point x="424.0" y="406.40618348092215"/>
      <point x="532.01314017965" y="513.0"/>
      <point x="672.0" y="513.0" type="curve" smooth="yes"/>
      <point x="810.567961179165" y="513.0"/>
      <point x="907.9244595607528" y="405.8016465858739"/>
      <point x="902.9756038043539" y="247.43826238111393" type="curve" smooth="yes"/>
      <point x="902.1320719457369" y="220.44524290537012"/>
      <point x="880.0061964447863" y="199.0"/>
      <point x="853.0" y="199.0" type="curve" smooth="yes"/>
      <point x="498.0" y="199.0" type="line" smooth="yes"/>
      <point x="471.0" y="199.0"/>
      <point x="448.0" y="222.0"/>
      <point x="448.0" y="249.0" type="curve" smooth="yes"/>
      <point x="448.0" y="276.0"/>
      <point x="471.0" y="299.0"/>
    </contour>
  </outline>
</glyph>
<glyph name="eth" format="2">
  <advance width="551"/>
  <unicode hex="00F0"/>
  <outline>
    <contour>
      <point x="267.7929677801083" y="729.392805628607" type="curve" smooth="yes"/>
      <point x="421.1749933349171" y="609.4955884695663"/>
      <point x="517.0" y="473.9481613717618"/>
      <point x="517.0" y="267.0" type="curve" smooth="yes"/>
      <point x="517.0" y="117.50533467287093"/>
      <point x="421.8136750537184" y="-15.0"/>
      <point x="270.0" y="-15.0" type="curve" smooth="yes"/>
      <point x="132.46125678413722" y="-15.0"/>
      <point x="34.0" y="87.07037901694235"/>
      <point x="34.0" y="237.0" type="curve" smooth="yes"/>
      <point x="34.0" y="388.6675113057641"/>
      <point x="142.16185034739763" y="490.0"/>
      <point x="265.0" y="490.0" type="curve" smooth="yes"/>
      <point x="403.92877263734397" y="490.0"/>
      <point x="532.4956099995273" y="369.7469825617391"/>
      <point x="509.52024476827444" y="205.09019840442681" type="curve" smooth="yes"/>
      <point x="505.7889519066649" y="178.3492662295586"/>
      <point x="479.831130579295" y="158.74846237011602"/>
      <point x="453.0901984044268" y="162.47975523172553" type="curve" smooth="yes"/>
      <point x="426.3492662295586" y="166.21104809333505"/>
      <point x="406.74846237011604" y="192.16886942070497"/>
      <point x="410.47975523172556" y="218.90980159557319" type="curve" smooth="yes"/>
      <point x="424.3218271504939" y="318.11131701341213"/>
      <point x="348.7010442739956" y="390.0"/>
      <point x="265.0" y="390.0" type="curve" smooth="yes"/>
      <point x="191.94810443029968" y="390.0"/>
      <point x="134.0" y="327.19672820340537"/>
      <point x="134.0" y="237.0" type="curve" smooth="yes"/>
      <point x="134.0" y="145.03176968727448"/>
      <point x="185.6324498784089" y="85.0"/>
      <point x="270.0" y="85.0" type="curve" smooth="yes"/>
      <point x="364.9564612387854" y="85.0"/>
      <point x="417.0" y="173.49403363354648"/>
      <point x="417.0" y="267.0" type="curve" smooth="yes"/>
      <point x="417.0" y="441.480821996228"/>
      <point x="335.5255133354297" y="549.5202126543174"/>
      <point x="206.20703221989172" y="650.607194371393" type="curve" smooth="yes"/>
      <point x="184.93491718044393" y="667.2353969726515"/>
      <point x="180.9789917701345" y="699.5208527406604"/>
      <point x="197.607194371393" y="720.7929677801083" type="curve" smooth="yes"/>
      <point x="214.2353969726515" y="742.0650828195561"/>
      <point x="246.52085274066053" y="746.0210082298655"/>
    </contour>
    <contour>
      <point x="463.1010218519181" y="614.0153743058411" type="curve" smooth="yes"/>
      <point x="191.10102185191812" y="515.0153743058411" type="line" smooth="yes"/>
      <point x="165.7293239770723" y="505.7808225058053"/>
      <point x="136.24992610587685" y="519.527280273236"/>
      <point x="127.01537430584108" y="544.8989781480818" type="curve" smooth="yes"/>
      <point x="117.78082250580529" y="570.2706760229277"/>
      <point x="131.52728027323607" y="599.7500738941231"/>
      <point x="156.89897814808188" y="608.9846256941589" type="curve" smooth="yes"/>
      <point x="428.8989781480819" y="707.9846256941589" type="line" smooth="yes"/>
      <point x="454.2706760229277" y="717.2191774941947"/>
      <point x="483.7500738941231" y="703.472719726764"/>
      <point x="492.9846256941589" y="678.1010218519182" type="curve" smooth="yes"/>
      <point x="502.21917749419475" y="652.7293239770723"/>
      <point x="488.47271972676396" y="623.2499261058769"/>
    </contour>
  </outline>
</glyph>
<glyph name="thorn" format="2">
  <advance width="584"/>
  <unicode hex="00FE"/>
  <outline>
    <contour>
      <point x="305.0" y="513.0" type="curve" smooth="yes"/>
      <point x="444.31683417545526" y="513.0"/>
      <point x="551.0" y="402.1115422294858"/>
      <point x="551.0" y="248.0" type="curve" smooth="yes"/>
      <point x="551.0" y="93.73430770039904"/>
      <point x="444.2220603004425" y="-16.0"/>
      <point x="306.0" y="-16.0" type="curve" smooth="yes"/>
      <point x="166.68316582454474" y="-16.0"/>
      <point x="61.0" y="93.8884577705141"/>
      <point x="61.0" y="248.0" type="curve" smooth="yes"/>
      <point x="61.0" y="402.03240062881997"/>
      <point x="164.52245062651602" y="513.0"/>
    </contour>
    <contour>
      <point x="305.0" y="413.0" type="curve" smooth="yes"/>
      <point x="217.57109660423984" y="413.0"/>
      <point x="161.0" y="343.86502565324565"/>
      <point x="161.0" y="248.0" type="curve" smooth="yes"/>
      <point x="161.0" y="152.23081540615112"/>
      <point x="219.42465712716063" y="84.0"/>
      <point x="306.0" y="84.0" type="curve" smooth="yes"/>
      <point x="391.72340165899" y="84.0"/>
      <point x="451.0" y="152.32656064844883"/>
      <point x="451.0" y="248.0" type="curve" smooth="yes"/>
      <point x="451.0" y="343.7691845938488"/>
      <point x="391.5753428728394" y="413.0"/>
    </contour>
    <contour>
      <point x="61.0" y="-125.0" type="curve" smooth="yes"/>
      <point x="61.0" y="695.0" type="line" smooth="yes"/>
      <point x="61.00000000000001" y="722.0"/>
      <point x="84.0" y="745.0"/>
      <point x="111.0" y="745.0" type="curve" smooth="yes"/>
      <point x="138.0" y="745.0"/>
      <point x="161.0" y="722.0"/>
      <point x="161.0" y="695.0" type="curve" smooth="yes"/>
      <point x="161.0" y="-125.0" type="line" smooth="yes"/>
      <point x="161.0" y="-152.0"/>
      <point x="137.99999999999997" y="-175.0"/>
      <point x="110.99999999999997" y="-175.0" type="curve" smooth="yes"/>
      <point x="83.99999999999997" y="-175.0"/>
      <point x="60.99999999999999" y="-152.0"/>
    </contour>
  </outline>
</glyph>
<glyph name="Aogonek" format="2">
  <advance width="651"/>
  <unicode hex="0104"/>
  <outline>
    <contour>
      <point x="36.90580542390133" y="56.796929398808544" type="curve" smooth="yes"/>
      <point x="250.9058054239013" y="656.7969293988085" type="line" smooth="yes"/>
      <point x="258.00701929389635" y="676.7068748287011"/>
      <point x="276.8615713580997" y="690.0"/>
      <point x="298.0" y="690.0" type="curve" smooth="yes"/>
      <point x="352.0" y="690.0" type="line" smooth="yes"/>
      <point x="373.1655665765577" y="690.0"/>
      <point x="392.0381605491183" y="676.6732451297908"/>
      <point x="399.11899164778225" y="656.7272420349627" type="curve" smooth="yes"/>
      <point x="612.1189916477823" y="56.72724203496273" type="line" smooth="yes"/>
      <point x="621.4611462616521" y="30.411313545188843"/>
      <point x="607.4375902755969" y="1.5441177879260604"/>
      <point x="580.9765671553587" y="-7.378785357270544" type="curve" smooth="yes"/>
      <point x="532.7588106501463" y="-23.63826138809793"/>
      <point x="502.0" y="-39.8911217473939"/>
      <point x="502.0" y="-64.00000000000001" type="curve" smooth="yes"/>
      <point x="502.0" y="-85.39081833700317"/>
      <point x="521.9080707025167" y="-84.08149916861451"/>
      <point x="552.5816969970873" y="-70.35908740525397" type="curve" smooth="yes"/>
      <point x="577.2277897982501" y="-59.333203783681114"/>
      <point x="607.6150289731731" y="-70.93560419592445"/>
      <point x="618.640912594746" y="-95.5816969970873" type="curve" smooth="yes"/>
      <point x="629.666796216319" y="-120.22778979825016"/>
      <point x="618.0643958040755" y="-150.61502897317317"/>
      <point x="593.4183030029127" y="-161.64091259474603" type="curve" smooth="yes"/>
      <point x="476.34280785136633" y="-214.01679200464827"/>
      <point x="402.0" y="-145.64475319778896"/>
      <point x="402.0" y="-63.999999999999986" type="curve" smooth="yes"/>
      <point x="402.0" y="-5.640046281220863"/>
      <point x="432.3035254070831" y="48.01974680274509"/>
      <point x="549.0234328446413" y="87.37878535727054" type="curve"/>
      <point x="517.8810083522177" y="23.27275796503727" type="line"/>
      <point x="304.88100835221775" y="623.2727579650373" type="line"/>
      <point x="352.0" y="590.0" type="line"/>
      <point x="298.0" y="590.0" type="line"/>
      <point x="345.0941945760987" y="623.2030706011915" type="line"/>
      <point x="131.0941945760987" y="23.203070601191456" type="line" smooth="yes"/>
      <point x="122.02385270074208" y="-2.2277944699018306"/>
      <point x="92.63393567228476" y="-16.164536451455277"/>
      <point x="67.20307060119148" y="-7.094194576098673" type="curve" smooth="yes"/>
      <point x="41.7722055300982" y="1.9761472992579332"/>
      <point x="27.835463548544716" y="31.366064327715257"/>
    </contour>
    <contour>
      <point x="502.0" y="168.0" type="curve" smooth="yes"/>
      <point x="149.0" y="168.0" type="line" smooth="yes"/>
      <point x="122.0" y="168.0"/>
      <point x="99.0" y="191.0"/>
      <point x="99.0" y="218.0" type="curve" smooth="yes"/>
      <point x="99.0" y="245.0"/>
      <point x="122.0" y="268.0"/>
      <point x="149.0" y="268.0" type="curve" smooth="yes"/>
      <point x="502.0" y="268.0" type="line" smooth="yes"/>
      <point x="529.0" y="268.0"/>
      <point x="552.0" y="245.0"/>
      <point x="552.0" y="218.0" type="curve" smooth="yes"/>
      <point x="552.0" y="191.0"/>
      <point x="529.0" y="168.0"/>
    </contour>
  </outline>
</glyph>
<glyph name="dcroat" format="2">
  <advance width="584"/>
  <unicode hex="0111"/>
  <outline>
    <contour>
      <point x="280.0" y="513.0" type="curve" smooth="yes"/>
      <point x="419.386492592543" y="513.0"/>
      <point x="524.0" y="402.1885980006005"/>
      <point x="524.0" y="248.0" type="curve" smooth="yes"/>
      <point x="524.0" y="93.73430770039904"/>
      <point x="417.2220603004425" y="-16.0"/>
      <point x="279.0" y="-16.0" type="curve" smooth="yes"/>
      <point x="139.68316582454474" y="-16.0"/>
      <point x="34.0" y="93.8884577705141"/>
      <point x="34.0" y="248.0" type="curve" smooth="yes"/>
      <point x="34.0" y="402.03240062881997"/>
      <point x="139.52245062651602" y="513.0"/>
    </contour>
    <contour>
      <point x="335.0" y="644.0" type="curve" smooth="yes"/>
      <point x="575.0" y="644.0" type="line" smooth="yes"/>
      <point x="602.0" y="644.0"/>
      <point x="625.0" y="621.0"/>
      <point x="625.0" y="594.0" type="curve" smooth="yes"/>
      <point x="625.0" y="567.0"/>
      <point x="602.0" y="544.0"/>
      <point x="575.0" y="544.0" type="curve" smooth="yes"/>
      <point x="335.0" y="544.0" type="line" smooth="yes"/>
      <point x="308.0" y="544.0"/>
      <point x="285.0" y="567.0"/>
      <point x="285.0" y="594.0" type="curve" smooth="yes"/>
      <point x="285.0" y="621.0"/>
      <point x="308.0" y="644.0"/>
    </contour>
    <contour>
      <point x="280.0" y="413.0" type="curve" smooth="yes"/>
      <point x="192.52736028438204" y="413.0"/>
      <point x="134.0" y="343.9129821443178"/>
      <point x="134.0" y="248.0" type="curve" smooth="yes"/>
      <point x="134.0" y="152.23081540615112"/>
      <point x="192.42465712716063" y="84.0"/>
      <point x="279.0" y="84.0" type="curve" smooth="yes"/>
      <point x="364.72340165899" y="84.0"/>
      <point x="424.0" y="152.32656064844883"/>
      <point x="424.0" y="248.0" type="curve" smooth="yes"/>
      <point x="424.0" y="343.72130000155187"/>
      <point x="366.532055201403" y="413.0"/>
    </contour>
    <contour>
      <point x="524.0" y="695.0" type="curve" smooth="yes"/>
      <point x="524.0" y="39.999999999999986" type="line" smooth="yes"/>
      <point x="524.0" y="12.999999999999986"/>
      <point x="501.0" y="-10.000000000000007"/>
      <point x="474.0" y="-10.0" type="curve" smooth="yes"/>
      <point x="447.0" y="-9.999999999999993"/>
      <point x="424.0" y="13.000000000000014"/>
      <point x="424.0" y="40.000000000000014" type="curve" smooth="yes"/>
      <point x="424.0" y="695.0" type="line" smooth="yes"/>
      <point x="424.0" y="722.0"/>
      <point x="447.0" y="745.0"/>
      <point x="474.0" y="745.0" type="curve" smooth="yes"/>
      <point x="501.0" y="745.0"/>
      <point x="524.0" y="722.0"/>
    </contour>
  </outline>
</glyph>
<glyph name="eogonek" format="2">
  <advance width="548"/>
  <unicode hex="0119"/>
  <anchor x="283" y="508" name="above"/>
  <outline>
    <contour>
      <point x="108.0" y="299.0" type="curve" smooth="yes"/>
      <point x="463.0" y="299.0" type="line"/>
      <point x="413.0243961956461" y="250.56173761888607" type="line"/>
      <point x="416.0677108259014" y="347.9478057870568"/>
      <point x="367.2128096471493" y="413.0"/>
      <point x="282.0" y="413.0" type="curve" smooth="yes"/>
      <point x="194.089997085804" y="413.0"/>
      <point x="134.0" y="347.47710856080084"/>
      <point x="134.0" y="248.0" type="curve" smooth="yes"/>
      <point x="134.0" y="93.07888940664864"/>
      <point x="277.9310728479767" y="39.612540364608066"/>
      <point x="426.3971371666049" y="123.5281419360067" type="curve"/>
      <point x="475.36830796320686" y="36.34011489925438" type="line"/>
      <point x="430.2417281152852" y="11.153186612042255"/>
      <point x="388.0" y="-12.436710076039148"/>
      <point x="388.0" y="-35.000000000000014" type="curve" smooth="yes"/>
      <point x="388.0" y="-56.390818337003175"/>
      <point x="407.90807070251674" y="-55.08149916861449"/>
      <point x="438.5816969970873" y="-41.35908740525397" type="curve" smooth="yes"/>
      <point x="463.22778979825017" y="-30.333203783681114"/>
      <point x="493.6150289731732" y="-41.935604195924455"/>
      <point x="504.64091259474606" y="-66.5816969970873" type="curve" smooth="yes"/>
      <point x="515.666796216319" y="-91.22778979825016"/>
      <point x="504.06439580407556" y="-121.61502897317317"/>
      <point x="479.4183030029127" y="-132.64091259474603" type="curve" smooth="yes"/>
      <point x="362.3428078513663" y="-185.01679200464827"/>
      <point x="288.0" y="-116.64475319778892"/>
      <point x="288.0" y="-34.999999999999986" type="curve" smooth="yes"/>
      <point x="288.0" y="22.393342310122772"/>
      <point x="311.8450074165477" y="59.59289833595741"/>
      <point x="426.63169203679314" y="123.65988510074561" type="curve" smooth="yes"/>
      <point x="484.6884766310029" y="156.0636718510022"/>
      <point x="533.4844617962327" y="69.18754443429287"/>
      <point x="475.6028628333951" y="36.47185806399329" type="curve" smooth="yes"/>
      <point x="256.279732786044" y="-87.49338935407471"/>
      <point x="34.0" y="19.141081689720636"/>
      <point x="34.0" y="248.0" type="curve" smooth="yes"/>
      <point x="34.0" y="406.40618348092215"/>
      <point x="142.01314017965012" y="513.0"/>
      <point x="282.0" y="513.0" type="curve" smooth="yes"/>
      <point x="420.56796117916514" y="513.0"/>
      <point x="517.9244595607528" y="405.8016465858739"/>
      <point x="512.9756038043539" y="247.43826238111393" type="curve" smooth="yes"/>
      <point x="512.1320719457369" y="220.44524290537012"/>
      <point x="490.00619644478627" y="199.0"/>
      <point x="463.0" y="199.0" type="curve" smooth="yes"/>
      <point x="108.0" y="199.0" type="line" smooth="yes"/>
      <point x="81.0" y="199.0"/>
      <point x="57.99999999999999" y="222.0"/>
      <point x="58.0" y="249.0" type="curve" smooth="yes"/>
      <point x="58.00000000000001" y="276.0"/>
      <point x="81.0" y="299.0"/>
    </contour>
  </outline>
</glyph>
<glyph name="hbar" format="2">
  <advance width="568"/>
  <unicode hex="0127"/>
  <anchor x="273" y="745" name="above"/>
  <anchor x="273" y="-10" name="below"/>
  <outline>
    <contour>
      <point x="10" y="644" type="curve" smooth="yes"/>
      <point x="250" y="644" type="line" smooth="yes"/>
      <point x="277" y="644"/>
      <point x="300" y="621"/>
      <point x="300" y="594" type="curve" smooth="yes"/>
      <point x="300" y="567"/>
      <point x="277" y="544"/>
      <point x="250" y="544" type="curve" smooth="yes"/>
      <point x="10" y="544" type="line" smooth="yes"/>
      <point x="-17" y="544"/>
      <point x="-40" y="567"/>
      <point x="-40" y="594" type="curve" smooth="yes"/>
      <point x="-40" y="621"/>
      <point x="-17" y="644"/>
    </contour>
    <contour>
      <point x="61" y="40" type="curve" smooth="yes"/>
      <point x="61" y="695" type="line" smooth="yes"/>
      <point x="61" y="722"/>
      <point x="84" y="745"/>
      <point x="111" y="745" type="curve" smooth="yes"/>
      <point x="138" y="745"/>
      <point x="161" y="722"/>
      <point x="161" y="695" type="curve" smooth="yes"/>
      <point x="161" y="40" type="line" smooth="yes"/>
      <point x="161" y="13"/>
      <point x="138" y="-10"/>
      <point x="111" y="-10" type="curve" smooth="yes"/>
      <point x="84" y="-10"/>
      <point x="61" y="13"/>
    </contour>
    <contour>
      <point x="416" y="40" type="curve" smooth="yes"/>
      <point x="416" y="290" type="line" smooth="yes"/>
      <point x="416" y="371"/>
      <point x="380" y="413"/>
      <point x="311" y="413" type="curve" smooth="yes"/>
      <point x="224" y="413"/>
      <point x="161" y="349"/>
      <point x="161" y="273" type="curve" smooth="yes"/>
      <point x="161" y="246"/>
      <point x="138" y="223"/>
      <point x="111" y="223" type="curve" smooth="yes"/>
      <point x="84" y="223"/>
      <point x="61" y="246"/>
      <point x="61" y="273" type="curve" smooth="yes"/>
      <point x="61" y="401"/>
      <point x="166" y="513"/>
      <point x="311" y="513" type="curve" smooth="yes"/>
      <point x="432" y="513"/>
      <point x="516" y="431"/>
      <point x="516" y="290" type="curve" smooth="yes"/>
      <point x="516" y="40" type="line" smooth="yes"/>
      <point x="516" y="13"/>
      <point x="493" y="-10"/>
      <point x="466" y="-10" type="curve" smooth="yes"/>
      <point x="439" y="-10"/>
      <point x="416" y="13"/>
    </contour>
  </outline>
</glyph>
<glyph name="Iogonek" format="2">
  <advance width="270"/>
  <unicode hex="012E"/>
  <outline>
    <contour>
      <point x="184.0" y="640.0" type="curve" smooth="yes"/>
      <point x="184.0" y="38.999999999999986" type="line" smooth="yes"/>
      <point x="184.0" y="19.39282566284319"/>
      <point x="172.53986144937184" y="1.5951825970118882"/>
      <point x="154.69014721505923" y="-6.518323873130221" type="curve" smooth="yes"/>
      <point x="125.87339361088" y="-19.616848238666243"/>
      <point x="110.0" y="-31.138124913628143"/>
      <point x="110.0" y="-50.000000000000014" type="curve" smooth="yes"/>
      <point x="110.0" y="-71.39081833700317"/>
      <point x="129.9080707025167" y="-70.08149916861451"/>
      <point x="160.5816969970873" y="-56.35908740525397" type="curve" smooth="yes"/>
      <point x="185.22778979825017" y="-45.333203783681114"/>
      <point x="215.61502897317317" y="-56.935604195924455"/>
      <point x="226.64091259474603" y="-81.5816969970873" type="curve" smooth="yes"/>
      <point x="237.6667962163189" y="-106.22778979825016"/>
      <point x="226.06439580407556" y="-136.61502897317317"/>
      <point x="201.4183030029127" y="-147.64091259474603" type="curve" smooth="yes"/>
      <point x="84.34280785136633" y="-200.01679200464827"/>
      <point x="10.0" y="-131.644753197789"/>
      <point x="10.0" y="-49.999999999999986" type="curve" smooth="yes"/>
      <point x="10.0" y="1.2768325272213124"/>
      <point x="34.97024753501935" y="48.90941239589322"/>
      <point x="113.30985278494077" y="84.51832387313021" type="curve"/>
      <point x="84.0" y="39.000000000000014" type="line"/>
      <point x="84.0" y="640.0" type="line" smooth="yes"/>
      <point x="84.00000000000001" y="667.0"/>
      <point x="107.00000000000003" y="690.0"/>
      <point x="134.00000000000003" y="690.0" type="curve" smooth="yes"/>
      <point x="161.00000000000003" y="690.0"/>
      <point x="184.0" y="667.0"/>
    </contour>
  </outline>
</glyph>
<glyph name="Lslash" format="2">
  <advance width="508"/>
  <unicode hex="0141"/>
  <anchor x="245" y="-5" name="below"/>
  <anchor x="168" y="690" name="above"/>
  <outline>
    <contour>
      <point x="332.3657177911797" y="393.1125619638148" type="curve" smooth="yes"/>
      <point x="62.36571779117969" y="293.1125619638148" type="line" smooth="yes"/>
      <point x="37.04650125163968" y="283.7350743565778"/>
      <point x="7.490049571051848" y="297.31506566928033"/>
      <point x="-1.8874380361851877" y="322.6342822088203" type="curve" smooth="yes"/>
      <point x="-11.264925643422224" y="347.9534987483603"/>
      <point x="2.315065669280301" y="377.5099504289482"/>
      <point x="27.634282208820306" y="386.8874380361852" type="curve" smooth="yes"/>
      <point x="297.6342822088203" y="486.8874380361852" type="line" smooth="yes"/>
      <point x="322.95349874836035" y="496.26492564342215"/>
      <point x="352.50995042894823" y="482.68493433071956"/>
      <point x="361.88743803618524" y="457.3657177911796" type="curve" smooth="yes"/>
      <point x="371.26492564342226" y="432.0465012516396"/>
      <point x="357.6849343307197" y="402.49004957105177"/>
    </contour>
    <contour>
      <point x="423.0" y="-5.0" type="curve" smooth="yes"/>
      <point x="135.0" y="-5.0" type="line" smooth="yes"/>
      <point x="107.38576250846033" y="-4.999999999999993"/>
      <point x="85.0" y="17.385762508460335"/>
      <point x="85.0" y="45.00000000000001" type="curve" smooth="yes"/>
      <point x="85.0" y="640.0" type="line" smooth="yes"/>
      <point x="85.0" y="667.0"/>
      <point x="108.0" y="690.0"/>
      <point x="135.0" y="690.0" type="curve" smooth="yes"/>
      <point x="162.0" y="690.0"/>
      <point x="185.0" y="667.0"/>
      <point x="185.0" y="640.0" type="curve" smooth="yes"/>
      <point x="185.0" y="44.99999999999999" type="line"/>
      <point x="135.0" y="95.0" type="line"/>
      <point x="423.0" y="95.0" type="line" smooth="yes"/>
      <point x="450.0" y="94.99999999999999"/>
      <point x="473.0" y="71.99999999999999"/>
      <point x="473.0" y="44.999999999999986" type="curve" smooth="yes"/>
      <point x="473.0" y="17.999999999999986"/>
      <point x="450.0" y="-5.00000000000001"/>
    </contour>
  </outline>
</glyph>
<glyph name="Eng" format="2">
  <advance width="688"/>
  <unicode hex="014A"/>
  <outline>
    <contour>
      <point x="613.0" y="640.0" type="curve" smooth="yes"/>
      <point x="613.0" y="-17.00000000000001" type="line" smooth="yes"/>
      <point x="613.0" y="-158.05162492516942"/>
      <point x="500.3827115644324" y="-198.4416762705107"/>
      <point x="401.2276088942638" y="-160.73480624101" type="curve" smooth="yes"/>
      <point x="375.99081352411844" y="-151.13771504391246"/>
      <point x="362.66810256189245" y="-121.46440426440921"/>
      <point x="372.26519375899" y="-96.2276088942638" type="curve" smooth="yes"/>
      <point x="381.86228495608754" y="-70.99081352411838"/>
      <point x="411.5355957355908" y="-57.66810256189243"/>
      <point x="436.7723911057362" y="-67.26519375898998" type="curve" smooth="yes"/>
      <point x="479.2219000565493" y="-83.40796476845412"/>
      <point x="513.0" y="-77.38592118355096"/>
      <point x="513.0" y="-16.99999999999999" type="curve" smooth="yes"/>
      <point x="513.0" y="640.0" type="line" smooth="yes"/>
      <point x="513.0" y="667.0"/>
      <point x="536.0" y="690.0"/>
      <point x="563.0" y="690.0" type="curve" smooth="yes"/>
      <point x="590.0" y="690.0"/>
      <point x="613.0" y="667.0"/>
    </contour>
    <contour>
      <point x="75.0" y="40.00000000000001" type="curve" smooth="yes"/>
      <point x="75.0" y="640.0" type="line" smooth="yes"/>
      <point x="75.0" y="667.6142374915397"/>
      <point x="97.38576250846033" y="690.0"/>
      <point x="125.0" y="690.0" type="curve" smooth="yes"/>
      <point x="135.0" y="690.0" type="line" smooth="yes"/>
      <point x="151.35527598075723" y="690.0"/>
      <point x="166.67664976674487" y="682.0010108445227"/>
      <point x="176.02573932689472" y="668.5812650644034" type="curve" smooth="yes"/>
      <point x="594.0257393268947" y="68.58126506440335" type="line" smooth="yes"/>
      <point x="609.4596224616726" y="46.427365827880195"/>
      <point x="603.7351643009265" y="14.40814380788308"/>
      <point x="581.5812650644034" y="-1.0257393268947297" type="curve" smooth="yes"/>
      <point x="559.4273658278803" y="-16.459622461672538"/>
      <point x="527.4081438078831" y="-10.735164300926506"/>
      <point x="511.9742606731053" y="11.41873493559665" type="curve" smooth="yes"/>
      <point x="93.97426067310528" y="611.4187349355966" type="line"/>
      <point x="135.0" y="590.0" type="line"/>
      <point x="125.0" y="590.0" type="line"/>
      <point x="175.0" y="640.0" type="line"/>
      <point x="175.0" y="39.99999999999999" type="line" smooth="yes"/>
      <point x="175.0" y="12.999999999999993"/>
      <point x="151.99999999999997" y="-10.000000000000007"/>
      <point x="124.99999999999997" y="-10.0" type="curve" smooth="yes"/>
      <point x="97.99999999999997" y="-9.999999999999993"/>
      <point x="74.99999999999999" y="13.000000000000007"/>
    </contour>
  </outline>
</glyph>
<glyph name="eng" format="2">
  <advance width="568"/>
  <unicode hex="014B"/>
  <outline>
    <contour>
      <point x="60.0" y="41.00000000000001" type="curve" smooth="yes"/>
      <point x="60.0" y="459.0" type="line" smooth="yes"/>
      <point x="60.00000000000001" y="486.0"/>
      <point x="83.0" y="509.0"/>
      <point x="110.0" y="509.0" type="curve" smooth="yes"/>
      <point x="137.0" y="509.0"/>
      <point x="160.0" y="486.0"/>
      <point x="160.0" y="459.0" type="curve" smooth="yes"/>
      <point x="160.0" y="40.99999999999999" type="line" smooth="yes"/>
      <point x="160.0" y="13.999999999999993"/>
      <point x="136.99999999999997" y="-9.000000000000007"/>
      <point x="109.99999999999997" y="-9.0" type="curve" smooth="yes"/>
      <point x="82.99999999999997" y="-8.999999999999993"/>
      <point x="59.99999999999999" y="14.000000000000007"/>
    </contour>
    <contour>
      <point x="60.0" y="274.0" type="curve" smooth="yes"/>
      <point x="60.0" y="401.85195167923916"/>
      <point x="164.59974122753187" y="514.0"/>
      <point x="310.0" y="514.0" type="curve" smooth="yes"/>
      <point x="430.63885090434263" y="514.0"/>
      <point x="515.0" y="431.95697316191604"/>
      <point x="515.0" y="291.0" type="curve" smooth="yes"/>
      <point x="515.0" y="-16.00000000000001" type="line" smooth="yes"/>
      <point x="515.0" y="-157.05162492516942"/>
      <point x="402.3827115644324" y="-197.4416762705107"/>
      <point x="303.2276088942638" y="-159.73480624101" type="curve" smooth="yes"/>
      <point x="277.99081352411844" y="-150.13771504391246"/>
      <point x="264.66810256189245" y="-120.46440426440921"/>
      <point x="274.26519375899" y="-95.2276088942638" type="curve" smooth="yes"/>
      <point x="283.86228495608754" y="-69.99081352411838"/>
      <point x="313.5355957355908" y="-56.66810256189243"/>
      <point x="338.7723911057362" y="-66.26519375898998" type="curve" smooth="yes"/>
      <point x="381.2219000565493" y="-82.40796476845412"/>
      <point x="415.0" y="-76.38592118355096"/>
      <point x="415.0" y="-15.999999999999988" type="curve" smooth="yes"/>
      <point x="415.0" y="291.0" type="line" smooth="yes"/>
      <point x="415.0" y="371.79088412337086"/>
      <point x="379.14535127675896" y="414.0"/>
      <point x="310.0" y="414.0" type="curve" smooth="yes"/>
      <point x="223.4017623023142" y="414.0"/>
      <point x="160.0" y="350.14672625141316"/>
      <point x="160.0" y="274.0" type="curve" smooth="yes"/>
      <point x="160.0" y="247.0"/>
      <point x="136.99999999999997" y="224.0"/>
      <point x="109.99999999999997" y="224.0" type="curve" smooth="yes"/>
      <point x="82.99999999999997" y="224.0"/>
      <point x="59.99999999999999" y="247.0"/>
    </contour>
  </outline>
</glyph>
<glyph name="Tcedilla" format="2">
  <advance width="498"/>
  <unicode hex="0162"/>
  <anchor x="249" y="-9" name="below"/>
  <anchor x="249" y="685" name="above"/>
  <outline>
    <contour>
      <point x="75.0" y="685.0" type="curve" smooth="yes"/>
      <point x="423.0" y="685.0" type="line" smooth="yes"/>
      <point x="450.0" y="685.0"/>
      <point x="473.0" y="662.0"/>
      <point x="473.0" y="635.0" type="curve" smooth="yes"/>
      <point x="473.0" y="608.0"/>
      <point x="450.0" y="585.0"/>
      <point x="423.0" y="585.0" type="curve" smooth="yes"/>
      <point x="75.0" y="585.0" type="line" smooth="yes"/>
      <point x="48.0" y="585.0"/>
      <point x="24.999999999999996" y="608.0"/>
      <point x="25.0" y="635.0" type="curve" smooth="yes"/>
      <point x="25.000000000000004" y="662.0"/>
      <point x="48.0" y="685.0"/>
    </contour>
    <contour>
      <point x="299.0" y="625.0" type="curve" smooth="yes"/>
      <point x="299.0" y="-62.000000000000014" type="line"/>
      <point x="255.46695920338834" y="-12.419979440688905" type="line"/>
      <point x="329.871517306279" y="-22.12492180193552"/>
      <point x="394.0" y="-60.830422684191554"/>
      <point x="394.0" y="-132.0" type="curve" smooth="yes"/>
      <point x="394.0" y="-216.5860800715444"/>
      <point x="312.9460556285373" y="-275.89695647807156"/>
      <point x="156.67685685229415" y="-242.92272187391023" type="curve" smooth="yes"/>
      <point x="130.25858704038262" y="-237.34822457414907"/>
      <point x="112.50278082632862" y="-210.09512666420568"/>
      <point x="118.07727812608977" y="-183.67685685229415" type="curve" smooth="yes"/>
      <point x="123.65177542585091" y="-157.25858704038262"/>
      <point x="150.90487333579432" y="-139.5027808263286"/>
      <point x="177.32314314770585" y="-145.07727812608977" type="curve" smooth="yes"/>
      <point x="223.93239038377655" y="-154.91225690067355"/>
      <point x="294.0" y="-157.22885859567128"/>
      <point x="294.0" y="-132.0" type="curve" smooth="yes"/>
      <point x="294.0" y="-121.84342855556547"/>
      <point x="253.15127457942953" y="-112.96500757446125"/>
      <point x="242.53304079661166" y="-111.5800205593111" type="curve" smooth="yes"/>
      <point x="217.62965271213636" y="-108.3317525482926"/>
      <point x="199.0" y="-87.11433819867432"/>
      <point x="199.0" y="-61.999999999999986" type="curve" smooth="yes"/>
      <point x="199.0" y="625.0" type="line" smooth="yes"/>
      <point x="199.0" y="652.0"/>
      <point x="222.0" y="675.0"/>
      <point x="249.0" y="675.0" type="curve" smooth="yes"/>
      <point x="276.0" y="675.0"/>
      <point x="299.0" y="652.0"/>
    </contour>
  </outline>
</glyph>
<glyph name="tcedilla" format="2">
  <advance width="336"/>
  <unicode hex="0163"/>
  <anchor x="168" y="640" name="above"/>
  <anchor x="168" y="-14" name="below"/>
  <anchor x="240" y="501" name="right"/>
  <outline>
    <contour>
      <point x="91.32314314770585" y="-145.07727812608977" type="curve" smooth="yes"/>
      <point x="137.93239038377658" y="-154.91225690067355"/>
      <point x="208.0" y="-157.22885859567128"/>
      <point x="208.0" y="-132.0" type="curve" smooth="yes"/>
      <point x="208.0" y="-121.84342855556547"/>
      <point x="167.15127457942958" y="-112.96500757446125"/>
      <point x="156.53304079661166" y="-111.5800205593111" type="curve" smooth="yes"/>
      <point x="131.6296527121362" y="-108.33175254829258"/>
      <point x="113.0" y="-87.11433819867449"/>
      <point x="113.0" y="-61.99999999999999" type="curve" smooth="yes"/>
      <point x="113.0" y="588.0" type="line" smooth="yes"/>
      <point x="113.0" y="615.0"/>
      <point x="136.0" y="638.0"/>
      <point x="163.0" y="638.0" type="curve" smooth="yes"/>
      <point x="190.0" y="638.0"/>
      <point x="213.0" y="615.0"/>
      <point x="213.0" y="588.0" type="curve" smooth="yes"/>
      <point x="213.0" y="-62.00000000000001" type="line"/>
      <point x="169.46695920338834" y="-12.419979440688905" type="line"/>
      <point x="243.8715173062791" y="-22.12492180193552"/>
      <point x="308.0" y="-60.83042268419154"/>
      <point x="308.0" y="-132.0" type="curve" smooth="yes"/>
      <point x="308.0" y="-216.5860800715444"/>
      <point x="226.94605562853727" y="-275.89695647807156"/>
      <point x="70.67685685229415" y="-242.92272187391023" type="curve" smooth="yes"/>
      <point x="44.25858704038262" y="-237.34822457414913"/>
      <point x="26.502780826328646" y="-210.09512666420576"/>
      <point x="32.07727812608976" y="-183.67685685229424" type="curve" smooth="yes"/>
      <point x="37.65177542585087" y="-157.2585870403827"/>
      <point x="64.90487333579432" y="-139.50278082632866"/>
    </contour>
    <contour>
      <point x="57.0" y="503.0" type="curve" smooth="yes"/>
      <point x="279.0" y="503.0" type="line" smooth="yes"/>
      <point x="306.0" y="503.0"/>
      <point x="329.0" y="480.0"/>
      <point x="329.0" y="453.0" type="curve" smooth="yes"/>
      <point x="329.0" y="426.0"/>
      <point x="306.0" y="403.0"/>
      <point x="279.0" y="403.0" type="curve" smooth="yes"/>
      <point x="57.0" y="403.0" type="line" smooth="yes"/>
      <point x="30.0" y="403.0"/>
      <point x="6.999999999999995" y="426.0"/>
      <point x="7.0" y="453.0" type="curve" smooth="yes"/>
      <point x="7.000000000000005" y="480.0"/>
      <point x="30.0" y="503.0"/>
    </contour>
  </outline>
</glyph>
<glyph name="Tbar" format="2">
  <advance width="498"/>
  <unicode hex="0166"/>
  <outline>
    <contour>
      <point x="119.0" y="390.0" type="curve" smooth="yes"/>
      <point x="379.0" y="390.0" type="line" smooth="yes"/>
      <point x="406.0" y="390.0"/>
      <point x="429.0" y="367.0"/>
      <point x="429.0" y="340.0" type="curve" smooth="yes"/>
      <point x="429.0" y="313.0"/>
      <point x="406.0" y="290.0"/>
      <point x="379.0" y="290.0" type="curve" smooth="yes"/>
      <point x="119.0" y="290.0" type="line" smooth="yes"/>
      <point x="92" y="290"/>
      <point x="69" y="313.0"/>
      <point x="69.0" y="340.0" type="curve" smooth="yes"/>
      <point x="69" y="367.0"/>
      <point x="92" y="390"/>
    </contour>
    <contour>
      <point x="75.0" y="685.0" type="curve" smooth="yes"/>
      <point x="423.0" y="685.0" type="line" smooth="yes"/>
      <point x="450.0" y="685.0"/>
      <point x="473.0" y="662.0"/>
      <point x="473.0" y="635.0" type="curve" smooth="yes"/>
      <point x="473.0" y="608.0"/>
      <point x="450.0" y="585.0"/>
      <point x="423.0" y="585.0" type="curve" smooth="yes"/>
      <point x="75.0" y="585.0" type="line" smooth="yes"/>
      <point x="48.0" y="585.0"/>
      <point x="24.999999999999996" y="608.0"/>
      <point x="25.0" y="635.0" type="curve" smooth="yes"/>
      <point x="25.000000000000004" y="662.0"/>
      <point x="48.0" y="685.0"/>
    </contour>
    <contour>
      <point x="199.0" y="40.00000000000001" type="curve" smooth="yes"/>
      <point x="199.0" y="625.0" type="line" smooth="yes"/>
      <point x="199.0" y="652.0"/>
      <point x="222.0" y="675.0"/>
      <point x="249.0" y="675.0" type="curve" smooth="yes"/>
      <point x="276.0" y="675.0"/>
      <point x="299.0" y="652.0"/>
      <point x="299.0" y="625.0" type="curve" smooth="yes"/>
      <point x="299.0" y="39.99999999999999" type="line" smooth="yes"/>
      <point x="299.0" y="12.999999999999993"/>
      <point x="276.0" y="-10.000000000000007"/>
      <point x="249.0" y="-10.0" type="curve" smooth="yes"/>
      <point x="222.0" y="-9.999999999999993"/>
      <point x="199.0" y="13.000000000000007"/>
    </contour>
    <contour>
      <point x="75.0" y="685.0" type="curve" smooth="yes"/>
      <point x="423.0" y="685.0" type="line" smooth="yes"/>
      <point x="450.0" y="685.0"/>
      <point x="473.0" y="662.0"/>
      <point x="473.0" y="635.0" type="curve" smooth="yes"/>
      <point x="473.0" y="608.0"/>
      <point x="450.0" y="585.0"/>
      <point x="423.0" y="585.0" type="curve" smooth="yes"/>
      <point x="75.0" y="585.0" type="line" smooth="yes"/>
      <point x="48.0" y="585.0"/>
      <point x="24.999999999999996" y="608.0"/>
      <point x="25.0" y="635.0" type="curve" smooth="yes"/>
      <point x="25.000000000000004" y="662.0"/>
      <point x="48.0" y="685.0"/>
    </contour>
    <contour>
      <point x="199.0" y="40.00000000000001" type="curve" smooth="yes"/>
      <point x="199.0" y="625.0" type="line" smooth="yes"/>
      <point x="199.0" y="652.0"/>
      <point x="222.0" y="675.0"/>
      <point x="249.0" y="675.0" type="curve" smooth="yes"/>
      <point x="276.0" y="675.0"/>
      <point x="299.0" y="652.0"/>
      <point x="299.0" y="625.0" type="curve" smooth="yes"/>
      <point x="299.0" y="39.99999999999999" type="line" smooth="yes"/>
      <point x="299.0" y="12.999999999999993"/>
      <point x="276.0" y="-10.000000000000007"/>
      <point x="249.0" y="-10.0" type="curve" smooth="yes"/>
      <point x="222.0" y="-9.999999999999993"/>
      <point x="199.0" y="13.000000000000007"/>
    </contour>
  </outline>
</glyph>
<glyph name="uogonek" format="2">
  <advance width="568"/>
  <unicode hex="0173"/>
  <anchor x="360" y="508" name="horn"/>
  <anchor x="283" y="508" name="above"/>
  <anchor x="283" y="26" name="below"/>
  <outline>
    <contour>
      <point x="508.0" y="458.0" type="curve" smooth="yes"/>
      <point x="508.0" y="39.999999999999986" type="line" smooth="yes"/>
      <point x="508.0" y="18.54258528473186"/>
      <point x="494.3090920776912" y="-0.5224688136932896"/>
      <point x="473.9765671553587" y="-7.378785357270544" type="curve" smooth="yes"/>
      <point x="425.75881065014636" y="-23.63826138809793"/>
      <point x="395.0" y="-39.8911217473939"/>
      <point x="395.0" y="-64.00000000000001" type="curve" smooth="yes"/>
      <point x="395.0" y="-85.39081833700317"/>
      <point x="414.90807070251674" y="-84.08149916861451"/>
      <point x="445.5816969970873" y="-70.35908740525397" type="curve" smooth="yes"/>
      <point x="470.22778979825017" y="-59.333203783681114"/>
      <point x="500.6150289731732" y="-70.93560419592445"/>
      <point x="511.64091259474606" y="-95.5816969970873" type="curve" smooth="yes"/>
      <point x="522.666796216319" y="-120.22778979825016"/>
      <point x="511.06439580407556" y="-150.61502897317317"/>
      <point x="486.4183030029127" y="-161.64091259474603" type="curve" smooth="yes"/>
      <point x="369.3428078513663" y="-214.01679200464827"/>
      <point x="295.0" y="-145.64475319778896"/>
      <point x="295.0" y="-63.999999999999986" type="curve" smooth="yes"/>
      <point x="295.0" y="-5.640046281220863"/>
      <point x="325.3035254070831" y="48.01974680274509"/>
      <point x="442.0234328446413" y="87.37878535727054" type="curve"/>
      <point x="408.0" y="40.000000000000014" type="line"/>
      <point x="408.0" y="458.0" type="line" smooth="yes"/>
      <point x="408.0" y="485.0"/>
      <point x="431.0" y="508.0"/>
      <point x="458.0" y="508.0" type="curve" smooth="yes"/>
      <point x="485.0" y="508.0"/>
      <point x="508.0" y="485.0"/>
    </contour>
    <contour>
      <point x="152.0" y="458.0" type="curve" smooth="yes"/>
      <point x="152.0" y="207.0" type="line" smooth="yes"/>
      <point x="152.0" y="126.04733192901787"/>
      <point x="187.98688166833983" y="84.0"/>
      <point x="258.0" y="84.0" type="curve" smooth="yes"/>
      <point x="343.72416316852593" y="84.0"/>
      <point x="408.0" y="147.96639440704658"/>
      <point x="408.0" y="224.0" type="curve" smooth="yes"/>
      <point x="408.0" y="251.0"/>
      <point x="431.0" y="274.0"/>
      <point x="458.0" y="274.0" type="curve" smooth="yes"/>
      <point x="485.0" y="274.0"/>
      <point x="508.0" y="251.0"/>
      <point x="508.0" y="224.0" type="curve" smooth="yes"/>
      <point x="508.0" y="96.0201644060936"/>
      <point x="402.2909911107768" y="-16.0"/>
      <point x="258.0" y="-16.0" type="curve" smooth="yes"/>
      <point x="136.21308381747065" y="-16.0"/>
      <point x="52.0" y="66.18387816395045"/>
      <point x="52.0" y="207.0" type="curve" smooth="yes"/>
      <point x="52.0" y="458.0" type="line" smooth="yes"/>
      <point x="52.000000000000014" y="485.0"/>
      <point x="75.00000000000003" y="508.0"/>
      <point x="102.00000000000003" y="508.0" type="curve" smooth="yes"/>
      <point x="129.00000000000003" y="508.0"/>
      <point x="152.0" y="485.0"/>
    </contour>
  </outline>
</glyph>
<glyph name="Schwa" format="2">
  <advance width="685"/>
  <unicode hex="018F"/>
  <outline>
    <contour>
      <point x="189" y="348" type="line"/>
      <point x="189" y="206"/>
      <point x="247" y="146"/>
      <point x="327" y="146" type="curve" smooth="yes"/>
      <point x="411" y="146"/>
      <point x="478" y="207"/>
      <point x="478" y="344" type="curve" smooth="yes"/>
      <point x="478" y="545"/>
      <point x="310" y="578"/>
      <point x="73" y="490" type="curve"/>
      <point x="73" y="644" type="line"/>
      <point x="378" y="775"/>
      <point x="654" y="648"/>
      <point x="654" y="341" type="curve" smooth="yes"/>
      <point x="654" y="138"/>
      <point x="519" y="-16"/>
      <point x="328" y="-16" type="curve" smooth="yes"/>
      <point x="110" y="-16"/>
      <point x="-11" y="184"/>
      <point x="35" y="425" type="curve"/>
      <point x="522" y="425" type="line"/>
      <point x="522" y="274" type="line"/>
      <point x="138" y="274" type="line"/>
    </contour>
  </outline>
</glyph>
<glyph name="dotlessj" format="2">
  <advance width="245"/>
  <unicode hex="0237"/>
  <anchor x="95" y="-162" name="below"/>
  <anchor x="129" y="498" name="above"/>
  <outline>
    <contour>
      <point x="179" y="458" type="curve" smooth="yes"/>
      <point x="179" y="-17" type="line" smooth="yes"/>
      <point x="179" y="-158"/>
      <point x="66" y="-198"/>
      <point x="-33" y="-161" type="curve" smooth="yes"/>
      <point x="-58" y="-151"/>
      <point x="-71" y="-121"/>
      <point x="-62" y="-96" type="curve" smooth="yes"/>
      <point x="-52" y="-71"/>
      <point x="-22" y="-58"/>
      <point x="3" y="-67" type="curve" smooth="yes"/>
      <point x="45" y="-83"/>
      <point x="79" y="-77"/>
      <point x="79" y="-17" type="curve" smooth="yes"/>
      <point x="79" y="458" type="line" smooth="yes"/>
      <point x="79" y="485"/>
      <point x="102" y="508"/>
      <point x="129" y="508" type="curve" smooth="yes"/>
      <point x="156" y="508"/>
      <point x="179" y="485"/>
    </contour>
  </outline>
</glyph>
<glyph name="ringhalfrightmod" format="2">
  <advance width="350"/>
  <unicode hex="02BE"/>
  <outline>
    <contour>
      <point x="135" y="769" type="curve" smooth="yes"/>
      <point x="213" y="769"/>
      <point x="265" y="718"/>
      <point x="265" y="650" type="curve" smooth="yes"/>
      <point x="265" y="578"/>
      <point x="213" y="526"/>
      <point x="135" y="526" type="curve" smooth="yes"/>
      <point x="108" y="526"/>
      <point x="85" y="549"/>
      <point x="85" y="576" type="curve" smooth="yes"/>
      <point x="85" y="603"/>
      <point x="108" y="626"/>
      <point x="135" y="626" type="curve" smooth="yes"/>
      <point x="155" y="626"/>
      <point x="165" y="632"/>
      <point x="165" y="650" type="curve" smooth="yes"/>
      <point x="165" y="665"/>
      <point x="152" y="669"/>
      <point x="135" y="669" type="curve" smooth="yes"/>
      <point x="108" y="669"/>
      <point x="85" y="692"/>
      <point x="85" y="719" type="curve" smooth="yes"/>
      <point x="85" y="746"/>
      <point x="108" y="769"/>
    </contour>
  </outline>
</glyph>
<glyph name="ringhalfleftmod" format="2">
  <advance width="347"/>
  <unicode hex="02BF"/>
  <outline>
    <contour>
      <point x="212" y="526" type="curve" smooth="yes"/>
      <point x="135" y="526"/>
      <point x="85" y="578"/>
      <point x="85" y="650" type="curve" smooth="yes"/>
      <point x="85" y="718"/>
      <point x="136" y="769"/>
      <point x="212" y="769" type="curve" smooth="yes"/>
      <point x="239" y="769"/>
      <point x="262" y="746"/>
      <point x="262" y="719" type="curve" smooth="yes"/>
      <point x="262" y="692"/>
      <point x="239" y="669"/>
      <point x="212" y="669" type="curve" smooth="yes"/>
      <point x="195" y="669"/>
      <point x="185" y="665"/>
      <point x="185" y="650" type="curve" smooth="yes"/>
      <point x="185" y="632"/>
      <point x="193" y="626"/>
      <point x="212" y="626" type="curve" smooth="yes"/>
      <point x="239" y="626"/>
      <point x="262" y="603"/>
      <point x="262" y="576" type="curve" smooth="yes"/>
      <point x="262" y="549"/>
      <point x="239" y="526"/>
    </contour>
  </outline>
</glyph>
<glyph name="circumflex" format="2">
  <advance width="562"/>
  <unicode hex="02C6"/>
  <outline>
    <contour>
      <point x="118.7846804437584" y="659.4948062193863" type="curve" smooth="yes"/>
      <point x="245.78468044375842" y="785.4948062193863" type="line" smooth="yes"/>
      <point x="265.2784329319901" y="804.8350645935374"/>
      <point x="296.7215670680099" y="804.8350645935374"/>
      <point x="316.2153195562416" y="785.4948062193863" type="curve" smooth="yes"/>
      <point x="443.2153195562416" y="659.4948062193863" type="line" smooth="yes"/>
      <point x="462.3825149147102" y="640.4785336590159"/>
      <point x="462.5110787797568" y="607.951875802227"/>
      <point x="443.49480621938636" y="588.7846804437584" type="curve" smooth="yes"/>
      <point x="424.4785336590159" y="569.6174850852897"/>
      <point x="391.95187580222705" y="569.4889212202432"/>
      <point x="372.7846804437584" y="588.5051937806137" type="curve" smooth="yes"/>
      <point x="245.78468044375842" y="714.5051937806137" type="line"/>
      <point x="316.2153195562416" y="714.5051937806137" type="line"/>
      <point x="189.21531955624158" y="588.5051937806137" type="line" smooth="yes"/>
      <point x="170.04812419777295" y="569.4889212202432"/>
      <point x="137.52146634098412" y="569.6174850852897"/>
      <point x="118.50519378061365" y="588.7846804437584" type="curve" smooth="yes"/>
      <point x="99.4889212202432" y="607.951875802227"/>
      <point x="99.61748508528979" y="640.4785336590159"/>
    </contour>
  </outline>
</glyph>
<glyph name="verticallinemod" format="2">
  <advance width="300"/>
  <unicode hex="02C8"/>
  <outline>
    <contour>
      <point x="200.0" y="635.0" type="curve" smooth="yes"/>
      <point x="200.0" y="448.0" type="line" smooth="yes"/>
      <point x="200.0" y="421.0"/>
      <point x="176.99999999999997" y="398.0"/>
      <point x="149.99999999999997" y="398.0" type="curve" smooth="yes"/>
      <point x="122.99999999999997" y="398.0"/>
      <point x="99.99999999999999" y="421.0"/>
      <point x="100.0" y="448.0" type="curve" smooth="yes"/>
      <point x="100.0" y="635.0" type="line" smooth="yes"/>
      <point x="100.00000000000001" y="662.0"/>
      <point x="123.00000000000003" y="685.0"/>
      <point x="150.00000000000003" y="685.0" type="curve" smooth="yes"/>
      <point x="177.00000000000003" y="685.0"/>
      <point x="200.0" y="662.0"/>
    </contour>
  </outline>
</glyph>
<glyph name="verticallinelowmod" format="2">
  <advance width="300"/>
  <unicode hex="02CC"/>
  <outline>
    <contour>
      <point x="200.0" y="76.99999999999999" type="curve" smooth="yes"/>
      <point x="200.0" y="-110.00000000000001" type="line" smooth="yes"/>
      <point x="200.0" y="-137.0"/>
      <point x="176.99999999999997" y="-160.0"/>
      <point x="149.99999999999997" y="-160.0" type="curve" smooth="yes"/>
      <point x="122.99999999999997" y="-160.0"/>
      <point x="99.99999999999999" y="-137.0"/>
      <point x="100.0" y="-109.99999999999999" type="curve" smooth="yes"/>
      <point x="100.0" y="77.00000000000001" type="line" smooth="yes"/>
      <point x="100.00000000000001" y="104.00000000000001"/>
      <point x="123.00000000000003" y="127.00000000000001"/>
      <point x="150.00000000000003" y="127.0" type="curve" smooth="yes"/>
      <point x="177.00000000000003" y="126.99999999999999"/>
      <point x="200.0" y="103.99999999999999"/>
    </contour>
  </outline>
</glyph>
<glyph name="ring" format="2">
  <advance width="420"/>
  <unicode hex="02DA"/>
  <outline>
    <contour>
      <point x="209.0" y="666.0" type="curve" smooth="yes"/>
      <point x="235.982841027983" y="666.0"/>
      <point x="250.0" y="678.5077560816167"/>
      <point x="250.0" y="705.0" type="curve" smooth="yes"/>
      <point x="250.0" y="731.4922439183833"/>
      <point x="235.982841027983" y="744.0"/>
      <point x="209.0" y="744.0" type="curve" smooth="yes"/>
      <point x="182.76854086912934" y="744.0"/>
      <point x="171.0" y="731.2314591308707"/>
      <point x="171.0" y="705.0" type="curve" smooth="yes"/>
      <point x="171.0" y="678.7685408691293"/>
      <point x="182.76854086912934" y="666.0"/>
    </contour>
    <contour>
      <point x="209.0" y="566.0" type="curve" smooth="yes"/>
      <point x="127.34368583434083" y="566.0"/>
      <point x="71.0" y="623.3436858343407"/>
      <point x="71.0" y="705.0" type="curve" smooth="yes"/>
      <point x="71.0" y="786.6563141656593"/>
      <point x="127.34368583434083" y="844.0"/>
      <point x="209.0" y="844.0" type="curve" smooth="yes"/>
      <point x="291.9193987802275" y="844.0"/>
      <point x="350.0" y="786.41177334786"/>
      <point x="350.0" y="705.0" type="curve" smooth="yes"/>
      <point x="350.0" y="623.58822665214"/>
      <point x="291.9193987802275" y="566.0"/>
    </contour>
  </outline>
</glyph>
